%FSLAX23Y23*%
%MOIN*%
G70*
G01*
G75*
%ADD10R,0.071X0.063*%
%ADD11R,0.063X0.071*%
%ADD12C,0.050*%
%ADD13C,0.020*%
%ADD14C,0.010*%
%ADD15C,0.100*%
%ADD16C,0.200*%
%ADD17R,0.120X0.083*%
%ADD18R,0.120X0.087*%
%ADD19R,0.120X0.090*%
%ADD20C,0.059*%
%ADD21C,0.063*%
%ADD22C,0.110*%
%ADD23R,0.110X0.110*%
%ADD24C,0.049*%
%ADD25R,0.049X0.049*%
%ADD26R,0.063X0.063*%
%ADD27C,0.059*%
%ADD28R,0.059X0.059*%
%ADD29R,0.063X0.063*%
%ADD30O,0.079X0.039*%
%ADD31O,0.079X0.039*%
%ADD32R,0.059X0.059*%
%ADD33C,0.051*%
%ADD34C,0.051*%
%ADD35R,0.059X0.059*%
%ADD36C,0.065*%
%ADD37R,0.065X0.065*%
%ADD38C,0.196*%
%ADD39C,0.049*%
%ADD40R,0.049X0.049*%
%ADD41C,0.050*%
%ADD42R,0.079X0.071*%
%ADD43R,0.071X0.079*%
%ADD44C,0.067*%
%ADD45C,0.071*%
%ADD46C,0.118*%
%ADD47R,0.118X0.118*%
%ADD48C,0.057*%
%ADD49R,0.057X0.057*%
%ADD50R,0.071X0.071*%
%ADD51C,0.067*%
%ADD52R,0.067X0.067*%
%ADD53R,0.071X0.071*%
%ADD54O,0.087X0.047*%
%ADD55O,0.087X0.047*%
%ADD56R,0.067X0.067*%
%ADD57C,0.059*%
%ADD58C,0.059*%
%ADD59R,0.067X0.067*%
%ADD60C,0.073*%
%ADD61R,0.073X0.073*%
%ADD62C,0.204*%
%ADD63C,0.057*%
%ADD64R,0.057X0.057*%
%ADD65C,0.058*%
%ADD66C,0.004*%
%ADD67C,0.007*%
D66*
X2373Y3741D02*
Y3781D01*
X2413D01*
Y3741D01*
X2373D01*
X4969Y1700D02*
X4949Y1740D01*
X4989D01*
X4969Y1700D01*
X5711D02*
X5691Y1740D01*
X5731D01*
X5711Y1700D01*
X6401Y2299D02*
X6411Y2309D01*
X6421D01*
X6411Y2319D01*
X6421Y2329D01*
X6411D01*
X6401Y2339D01*
X6391Y2329D01*
X6381D01*
X6391Y2319D01*
X6381Y2309D01*
X6391D01*
X6401Y2299D01*
Y2358D02*
X6411Y2368D01*
X6421D01*
X6411Y2378D01*
X6421Y2388D01*
X6411D01*
X6401Y2398D01*
X6391Y2388D01*
X6381D01*
X6391Y2378D01*
X6381Y2368D01*
X6391D01*
X6401Y2358D01*
X5802Y2317D02*
Y2357D01*
X5842D01*
Y2317D01*
X5802D01*
Y2417D02*
Y2457D01*
X5842D01*
Y2417D01*
X5802D01*
Y2517D02*
Y2557D01*
X5842D01*
Y2517D01*
X5802D01*
X5502Y2317D02*
Y2357D01*
X5542D01*
Y2317D01*
X5502D01*
Y2417D02*
Y2457D01*
X5542D01*
Y2417D01*
X5502D01*
Y2517D02*
Y2557D01*
X5542D01*
Y2517D01*
X5502D01*
X5202Y2444D02*
X5212Y2464D01*
X5202Y2484D01*
X5222Y2474D01*
X5242Y2484D01*
X5232Y2464D01*
X5242Y2444D01*
X5222Y2454D01*
X5202Y2444D01*
Y2394D02*
X5212Y2414D01*
X5202Y2434D01*
X5222Y2424D01*
X5242Y2434D01*
X5232Y2414D01*
X5242Y2394D01*
X5222Y2404D01*
X5202Y2394D01*
Y2344D02*
X5212Y2364D01*
X5202Y2384D01*
X5222Y2374D01*
X5242Y2384D01*
X5232Y2364D01*
X5242Y2344D01*
X5222Y2354D01*
X5202Y2344D01*
X6445Y3686D02*
X6455Y3696D01*
X6465D01*
X6455Y3706D01*
X6465Y3716D01*
X6455D01*
X6445Y3726D01*
X6435Y3716D01*
X6425D01*
X6435Y3706D01*
X6425Y3696D01*
X6435D01*
X6445Y3686D01*
Y3745D02*
X6455Y3755D01*
X6465D01*
X6455Y3765D01*
X6465Y3775D01*
X6455D01*
X6445Y3785D01*
X6435Y3775D01*
X6425D01*
X6435Y3765D01*
X6425Y3755D01*
X6435D01*
X6445Y3745D01*
X5776Y3406D02*
Y3446D01*
X5816D01*
Y3406D01*
X5776D01*
Y3506D02*
Y3546D01*
X5816D01*
Y3506D01*
X5776D01*
Y3606D02*
Y3646D01*
X5816D01*
Y3606D01*
X5776D01*
X5476Y3406D02*
Y3446D01*
X5516D01*
Y3406D01*
X5476D01*
Y3506D02*
Y3546D01*
X5516D01*
Y3506D01*
X5476D01*
Y3606D02*
Y3646D01*
X5516D01*
Y3606D01*
X5476D01*
X5183Y3537D02*
X5193Y3557D01*
X5183Y3577D01*
X5203Y3567D01*
X5223Y3577D01*
X5213Y3557D01*
X5223Y3537D01*
X5203Y3547D01*
X5183Y3537D01*
Y3487D02*
X5193Y3507D01*
X5183Y3527D01*
X5203Y3517D01*
X5223Y3527D01*
X5213Y3507D01*
X5223Y3487D01*
X5203Y3497D01*
X5183Y3487D01*
Y3437D02*
X5193Y3457D01*
X5183Y3477D01*
X5203Y3467D01*
X5223Y3477D01*
X5213Y3457D01*
X5223Y3437D01*
X5203Y3447D01*
X5183Y3437D01*
X4969Y6520D02*
X4949Y6560D01*
X4989D01*
X4969Y6520D01*
X5711D02*
X5691Y6560D01*
X5731D01*
X5711Y6520D01*
X6367Y5900D02*
X6377Y5910D01*
X6387D01*
X6377Y5920D01*
X6387Y5930D01*
X6377D01*
X6367Y5940D01*
X6357Y5930D01*
X6347D01*
X6357Y5920D01*
X6347Y5910D01*
X6357D01*
X6367Y5900D01*
Y5959D02*
X6377Y5969D01*
X6387D01*
X6377Y5979D01*
X6387Y5989D01*
X6377D01*
X6367Y5999D01*
X6357Y5989D01*
X6347D01*
X6357Y5979D01*
X6347Y5969D01*
X6357D01*
X6367Y5959D01*
X5790Y5760D02*
Y5800D01*
X5830D01*
Y5760D01*
X5790D01*
Y5860D02*
Y5900D01*
X5830D01*
Y5860D01*
X5790D01*
Y5960D02*
Y6000D01*
X5830D01*
Y5960D01*
X5790D01*
X5490Y5760D02*
Y5800D01*
X5530D01*
Y5760D01*
X5490D01*
Y5860D02*
Y5900D01*
X5530D01*
Y5860D01*
X5490D01*
Y5960D02*
Y6000D01*
X5530D01*
Y5960D01*
X5490D01*
X5210Y5893D02*
X5220Y5913D01*
X5210Y5933D01*
X5230Y5923D01*
X5250Y5933D01*
X5240Y5913D01*
X5250Y5893D01*
X5230Y5903D01*
X5210Y5893D01*
Y5843D02*
X5220Y5863D01*
X5210Y5883D01*
X5230Y5873D01*
X5250Y5883D01*
X5240Y5863D01*
X5250Y5843D01*
X5230Y5853D01*
X5210Y5843D01*
Y5793D02*
X5220Y5813D01*
X5210Y5833D01*
X5230Y5823D01*
X5250Y5833D01*
X5240Y5813D01*
X5250Y5793D01*
X5230Y5803D01*
X5210Y5793D01*
X6388Y4678D02*
X6398Y4688D01*
X6408D01*
X6398Y4698D01*
X6408Y4708D01*
X6398D01*
X6388Y4718D01*
X6378Y4708D01*
X6368D01*
X6378Y4698D01*
X6368Y4688D01*
X6378D01*
X6388Y4678D01*
Y4737D02*
X6398Y4747D01*
X6408D01*
X6398Y4757D01*
X6408Y4767D01*
X6398D01*
X6388Y4777D01*
X6378Y4767D01*
X6368D01*
X6378Y4757D01*
X6368Y4747D01*
X6378D01*
X6388Y4737D01*
X5782Y4572D02*
Y4612D01*
X5822D01*
Y4572D01*
X5782D01*
Y4672D02*
Y4712D01*
X5822D01*
Y4672D01*
X5782D01*
Y4772D02*
Y4812D01*
X5822D01*
Y4772D01*
X5782D01*
X5482Y4572D02*
Y4612D01*
X5522D01*
Y4572D01*
X5482D01*
Y4672D02*
Y4712D01*
X5522D01*
Y4672D01*
X5482D01*
Y4772D02*
Y4812D01*
X5522D01*
Y4772D01*
X5482D01*
X5213Y4670D02*
X5223Y4690D01*
X5213Y4710D01*
X5233Y4700D01*
X5253Y4710D01*
X5243Y4690D01*
X5253Y4670D01*
X5233Y4680D01*
X5213Y4670D01*
Y4620D02*
X5223Y4640D01*
X5213Y4660D01*
X5233Y4650D01*
X5253Y4660D01*
X5243Y4640D01*
X5253Y4620D01*
X5233Y4630D01*
X5213Y4620D01*
Y4570D02*
X5223Y4590D01*
X5213Y4610D01*
X5233Y4600D01*
X5253Y4610D01*
X5243Y4590D01*
X5253Y4570D01*
X5233Y4580D01*
X5213Y4570D01*
X1613Y3871D02*
Y3911D01*
X1653D01*
Y3871D01*
X1613D01*
X1713D02*
Y3911D01*
X1753D01*
Y3871D01*
X1713D01*
X1613Y3771D02*
Y3811D01*
X1653D01*
Y3771D01*
X1613D01*
X1713D02*
Y3811D01*
X1753D01*
Y3771D01*
X1713D01*
X1613Y3671D02*
Y3711D01*
X1653D01*
Y3671D01*
X1613D01*
X1713D02*
Y3711D01*
X1753D01*
Y3671D01*
X1713D01*
X2210Y2851D02*
Y2841D01*
X2230D01*
Y2851D01*
X2240D01*
Y2871D01*
X2230D01*
Y2881D01*
X2210D01*
Y2871D01*
X2200D01*
Y2851D01*
X2210D01*
Y2640D02*
Y2630D01*
X2230D01*
Y2640D01*
X2240D01*
Y2660D01*
X2230D01*
Y2670D01*
X2210D01*
Y2660D01*
X2200D01*
Y2640D01*
X2210D01*
X3147Y1412D02*
X3157Y1422D01*
X3167D01*
X3157Y1432D01*
X3167Y1442D01*
X3157D01*
X3147Y1452D01*
X3137Y1442D01*
X3127D01*
X3137Y1432D01*
X3127Y1422D01*
X3137D01*
X3147Y1412D01*
Y1353D02*
X3157Y1363D01*
X3167D01*
X3157Y1373D01*
X3167Y1383D01*
X3157D01*
X3147Y1393D01*
X3137Y1383D01*
X3127D01*
X3137Y1373D01*
X3127Y1363D01*
X3137D01*
X3147Y1353D01*
X1820Y1410D02*
X1830Y1420D01*
X1840D01*
X1830Y1430D01*
X1840Y1440D01*
X1830D01*
X1820Y1450D01*
X1810Y1440D01*
X1800D01*
X1810Y1430D01*
X1800Y1420D01*
X1810D01*
X1820Y1410D01*
Y1350D02*
X1830Y1360D01*
X1840D01*
X1830Y1370D01*
X1840Y1380D01*
X1830D01*
X1820Y1390D01*
X1810Y1380D01*
X1800D01*
X1810Y1370D01*
X1800Y1360D01*
X1810D01*
X1820Y1350D01*
X2973Y2041D02*
Y2081D01*
X3013D01*
Y2041D01*
X2973D01*
Y2141D02*
Y2181D01*
X3013D01*
Y2141D01*
X2973D01*
Y2241D02*
Y2281D01*
X3013D01*
Y2241D01*
X2973D01*
Y2341D02*
Y2381D01*
X3013D01*
Y2341D01*
X2973D01*
Y2441D02*
Y2481D01*
X3013D01*
Y2441D01*
X2973D01*
Y2541D02*
Y2581D01*
X3013D01*
Y2541D01*
X2973D01*
Y2641D02*
Y2681D01*
X3013D01*
Y2641D01*
X2973D01*
Y2741D02*
Y2781D01*
X3013D01*
Y2741D01*
X2973D01*
Y2841D02*
Y2881D01*
X3013D01*
Y2841D01*
X2973D01*
Y2941D02*
Y2981D01*
X3013D01*
Y2941D01*
X2973D01*
Y3041D02*
Y3081D01*
X3013D01*
Y3041D01*
X2973D01*
Y3141D02*
Y3181D01*
X3013D01*
Y3141D01*
X2973D01*
Y3241D02*
Y3281D01*
X3013D01*
Y3241D01*
X2973D01*
Y3341D02*
Y3381D01*
X3013D01*
Y3341D01*
X2973D01*
Y3441D02*
Y3481D01*
X3013D01*
Y3441D01*
X2973D01*
Y3541D02*
Y3581D01*
X3013D01*
Y3541D01*
X2973D01*
Y3641D02*
Y3681D01*
X3013D01*
Y3641D01*
X2973D01*
Y3741D02*
Y3781D01*
X3013D01*
Y3741D01*
X2973D01*
Y3841D02*
Y3881D01*
X3013D01*
Y3841D01*
X2973D01*
Y3941D02*
Y3981D01*
X3013D01*
Y3941D01*
X2973D01*
X2373Y2041D02*
Y2081D01*
X2413D01*
Y2041D01*
X2373D01*
Y2141D02*
Y2181D01*
X2413D01*
Y2141D01*
X2373D01*
Y2241D02*
Y2281D01*
X2413D01*
Y2241D01*
X2373D01*
Y2341D02*
Y2381D01*
X2413D01*
Y2341D01*
X2373D01*
Y2441D02*
Y2481D01*
X2413D01*
Y2441D01*
X2373D01*
Y2541D02*
Y2581D01*
X2413D01*
Y2541D01*
X2373D01*
Y2641D02*
Y2681D01*
X2413D01*
Y2641D01*
X2373D01*
Y2741D02*
Y2781D01*
X2413D01*
Y2741D01*
X2373D01*
Y2841D02*
Y2881D01*
X2413D01*
Y2841D01*
X2373D01*
Y2941D02*
Y2981D01*
X2413D01*
Y2941D01*
X2373D01*
Y3041D02*
Y3081D01*
X2413D01*
Y3041D01*
X2373D01*
Y3141D02*
Y3181D01*
X2413D01*
Y3141D01*
X2373D01*
Y3241D02*
Y3281D01*
X2413D01*
Y3241D01*
X2373D01*
Y3341D02*
Y3381D01*
X2413D01*
Y3341D01*
X2373D01*
Y3441D02*
Y3481D01*
X2413D01*
Y3441D01*
X2373D01*
Y3541D02*
Y3581D01*
X2413D01*
Y3541D01*
X2373D01*
Y3641D02*
Y3681D01*
X2413D01*
Y3641D01*
X2373D01*
Y3841D02*
Y3881D01*
X2413D01*
Y3841D01*
X2373D01*
Y3941D02*
Y3981D01*
X2413D01*
Y3941D01*
X2373D01*
X3279Y3328D02*
X3289Y3348D01*
X3279Y3368D01*
X3299Y3358D01*
X3319Y3368D01*
X3309Y3348D01*
X3319Y3328D01*
X3299Y3338D01*
X3279Y3328D01*
Y3228D02*
X3289Y3248D01*
X3279Y3268D01*
X3299Y3258D01*
X3319Y3268D01*
X3309Y3248D01*
X3319Y3228D01*
X3299Y3238D01*
X3279Y3228D01*
X3594Y3324D02*
X3604Y3344D01*
X3594Y3364D01*
X3614Y3354D01*
X3634Y3364D01*
X3624Y3344D01*
X3634Y3324D01*
X3614Y3334D01*
X3594Y3324D01*
Y3224D02*
X3604Y3244D01*
X3594Y3264D01*
X3614Y3254D01*
X3634Y3264D01*
X3624Y3244D01*
X3634Y3224D01*
X3614Y3234D01*
X3594Y3224D01*
X2093Y3001D02*
X2103Y3011D01*
X2113D01*
X2103Y3021D01*
X2113Y3031D01*
X2103D01*
X2093Y3041D01*
X2083Y3031D01*
X2073D01*
X2083Y3021D01*
X2073Y3011D01*
X2083D01*
X2093Y3001D01*
Y3061D02*
X2103Y3071D01*
X2113D01*
X2103Y3081D01*
X2113Y3091D01*
X2103D01*
X2093Y3101D01*
X2083Y3091D01*
X2073D01*
X2083Y3081D01*
X2073Y3071D01*
X2083D01*
X2093Y3061D01*
X3473Y2881D02*
X3483Y2891D01*
X3493D01*
X3483Y2901D01*
X3493Y2911D01*
X3483D01*
X3473Y2921D01*
X3463Y2911D01*
X3453D01*
X3463Y2901D01*
X3453Y2891D01*
X3463D01*
X3473Y2881D01*
Y2821D02*
X3483Y2831D01*
X3493D01*
X3483Y2841D01*
X3493Y2851D01*
X3483D01*
X3473Y2861D01*
X3463Y2851D01*
X3453D01*
X3463Y2841D01*
X3453Y2831D01*
X3463D01*
X3473Y2821D01*
X3453Y2101D02*
X3463Y2121D01*
X3453Y2141D01*
X3473Y2131D01*
X3493Y2141D01*
X3483Y2121D01*
X3493Y2101D01*
X3473Y2111D01*
X3453Y2101D01*
Y2051D02*
X3463Y2071D01*
X3453Y2091D01*
X3473Y2081D01*
X3493Y2091D01*
X3483Y2071D01*
X3493Y2051D01*
X3473Y2061D01*
X3453Y2051D01*
Y2001D02*
X3463Y2021D01*
X3453Y2041D01*
X3473Y2031D01*
X3493Y2041D01*
X3483Y2021D01*
X3493Y2001D01*
X3473Y2011D01*
X3453Y2001D01*
X4000Y1220D02*
Y1260D01*
X4040D01*
Y1220D01*
X4000D01*
X3900D02*
Y1260D01*
X3940D01*
Y1220D01*
X3900D01*
X2820Y5330D02*
X2830Y5340D01*
X2840D01*
X2830Y5350D01*
X2840Y5360D01*
X2830D01*
X2820Y5370D01*
X2810Y5360D01*
X2800D01*
X2810Y5350D01*
X2800Y5340D01*
X2810D01*
X2820Y5330D01*
Y5390D02*
X2830Y5400D01*
X2840D01*
X2830Y5410D01*
X2840Y5420D01*
X2830D01*
X2820Y5430D01*
X2810Y5420D01*
X2800D01*
X2810Y5410D01*
X2800Y5400D01*
X2810D01*
X2820Y5390D01*
X4185Y5317D02*
X4195Y5327D01*
X4205D01*
X4195Y5337D01*
X4205Y5347D01*
X4195D01*
X4185Y5357D01*
X4175Y5347D01*
X4165D01*
X4175Y5337D01*
X4165Y5327D01*
X4175D01*
X4185Y5317D01*
Y5376D02*
X4195Y5386D01*
X4205D01*
X4195Y5396D01*
X4205Y5406D01*
X4195D01*
X4185Y5416D01*
X4175Y5406D01*
X4165D01*
X4175Y5396D01*
X4165Y5386D01*
X4175D01*
X4185Y5376D01*
X10323Y6080D02*
X10333D01*
X10343Y6090D01*
X10353Y6080D01*
X10363D01*
Y6090D01*
X10353Y6100D01*
X10363Y6110D01*
Y6120D01*
X10353D01*
X10343Y6110D01*
X10333Y6120D01*
X10323D01*
Y6110D01*
X10333Y6100D01*
X10323Y6090D01*
Y6080D01*
X10717D02*
X10727D01*
X10737Y6090D01*
X10747Y6080D01*
X10757D01*
Y6090D01*
X10747Y6100D01*
X10757Y6110D01*
Y6120D01*
X10747D01*
X10737Y6110D01*
X10727Y6120D01*
X10717D01*
Y6110D01*
X10727Y6100D01*
X10717Y6090D01*
Y6080D01*
X9400Y6060D02*
Y6100D01*
X9440D01*
Y6060D01*
X9400D01*
X8900D02*
Y6100D01*
X8940D01*
Y6060D01*
X8900D01*
X11823Y6080D02*
X11833D01*
X11843Y6090D01*
X11853Y6080D01*
X11863D01*
Y6090D01*
X11853Y6100D01*
X11863Y6110D01*
Y6120D01*
X11853D01*
X11843Y6110D01*
X11833Y6120D01*
X11823D01*
Y6110D01*
X11833Y6100D01*
X11823Y6090D01*
Y6080D01*
X12217D02*
X12227D01*
X12237Y6090D01*
X12247Y6080D01*
X12257D01*
Y6090D01*
X12247Y6100D01*
X12257Y6110D01*
Y6120D01*
X12247D01*
X12237Y6110D01*
X12227Y6120D01*
X12217D01*
Y6110D01*
X12227Y6100D01*
X12217Y6090D01*
Y6080D01*
X9720Y2830D02*
X9740Y2850D01*
X9760Y2830D01*
X9740Y2810D01*
X9720Y2830D01*
X9740Y3170D02*
X9750Y3180D01*
X9760D01*
X9750Y3190D01*
X9760Y3200D01*
X9750D01*
X9740Y3210D01*
X9730Y3200D01*
X9720D01*
X9730Y3190D01*
X9720Y3180D01*
X9730D01*
X9740Y3170D01*
X9920Y2380D02*
Y2420D01*
X9960D01*
Y2380D01*
X9920D01*
X10220D02*
Y2420D01*
X10260D01*
Y2380D01*
X10220D01*
X10070Y2660D02*
X10080Y2670D01*
X10090D01*
X10080Y2680D01*
X10090Y2690D01*
X10080D01*
X10070Y2700D01*
X10060Y2690D01*
X10050D01*
X10060Y2680D01*
X10050Y2670D01*
X10060D01*
X10070Y2660D01*
X10210Y2680D02*
X10230Y2700D01*
X10250Y2680D01*
X10230Y2660D01*
X10210Y2680D01*
X3770Y2670D02*
Y2710D01*
X3810D01*
Y2670D01*
X3770D01*
X3778Y2678D02*
Y2702D01*
X3802D01*
Y2678D01*
X3778D01*
X3771Y2306D02*
Y2346D01*
X3811D01*
Y2306D01*
X3771D01*
X3779Y2314D02*
Y2338D01*
X3803D01*
Y2314D01*
X3779D01*
X4370Y3380D02*
Y3420D01*
X4410D01*
Y3380D01*
X4370D01*
X4378Y3388D02*
Y3412D01*
X4402D01*
Y3388D01*
X4378D01*
X4787Y3382D02*
Y3422D01*
X4827D01*
Y3382D01*
X4787D01*
X4795Y3390D02*
Y3414D01*
X4819D01*
Y3390D01*
X4795D01*
X10220Y1455D02*
Y1495D01*
X10260D01*
Y1455D01*
X10220D01*
X10228Y1463D02*
Y1487D01*
X10252D01*
Y1463D01*
X10228D01*
X10220Y2105D02*
Y2145D01*
X10260D01*
Y2105D01*
X10220D01*
X10228Y2113D02*
Y2137D01*
X10252D01*
Y2113D01*
X10228D01*
X6100Y6217D02*
Y6257D01*
X6140D01*
Y6217D01*
X6100D01*
X6108Y6225D02*
Y6249D01*
X6132D01*
Y6225D01*
X6108D01*
X6100Y5649D02*
Y5689D01*
X6140D01*
Y5649D01*
X6100D01*
X6108Y5657D02*
Y5681D01*
X6132D01*
Y5657D01*
X6108D01*
X6090Y5064D02*
Y5104D01*
X6130D01*
Y5064D01*
X6090D01*
X6098Y5072D02*
Y5096D01*
X6122D01*
Y5072D01*
X6098D01*
X6085Y4470D02*
Y4510D01*
X6125D01*
Y4470D01*
X6085D01*
X6093Y4478D02*
Y4502D01*
X6117D01*
Y4478D01*
X6093D01*
X6155Y3995D02*
Y4035D01*
X6195D01*
Y3995D01*
X6155D01*
X6163Y4003D02*
Y4027D01*
X6187D01*
Y4003D01*
X6163D01*
X6170Y3415D02*
Y3455D01*
X6210D01*
Y3415D01*
X6170D01*
X6178Y3423D02*
Y3447D01*
X6202D01*
Y3423D01*
X6178D01*
X6010Y2120D02*
Y2160D01*
X6050D01*
Y2120D01*
X6010D01*
X6018Y2128D02*
Y2152D01*
X6042D01*
Y2128D01*
X6018D01*
X6015Y2756D02*
Y2796D01*
X6055D01*
Y2756D01*
X6015D01*
X6023Y2764D02*
Y2788D01*
X6047D01*
Y2764D01*
X6023D01*
D67*
X10966Y4546D02*
G03*
X10966Y4546I-20J0D01*
G01*
X9391Y4564D02*
G03*
X9391Y4564I-20J0D01*
G01*
X6376Y2656D02*
G03*
X6376Y2656I-20J0D01*
G01*
X6476D02*
G03*
X6476Y2656I-20J0D01*
G01*
X6576D02*
G03*
X6576Y2656I-20J0D01*
G01*
X10966Y4646D02*
G03*
X10966Y4646I-20J0D01*
G01*
Y4446D02*
G03*
X10966Y4446I-20J0D01*
G01*
X6396Y2136D02*
G03*
X6396Y2136I-20J0D01*
G01*
X6496D02*
G03*
X6496Y2136I-20J0D01*
G01*
X6596D02*
G03*
X6596Y2136I-20J0D01*
G01*
X6385Y4015D02*
G03*
X6385Y4015I-20J0D01*
G01*
X6485D02*
G03*
X6485Y4015I-20J0D01*
G01*
X6585D02*
G03*
X6585Y4015I-20J0D01*
G01*
X10957Y3651D02*
G03*
X10957Y3651I-20J0D01*
G01*
Y3551D02*
G03*
X10957Y3551I-20J0D01*
G01*
Y3451D02*
G03*
X10957Y3451I-20J0D01*
G01*
X6405Y3435D02*
G03*
X6405Y3435I-20J0D01*
G01*
X6505D02*
G03*
X6505Y3435I-20J0D01*
G01*
X6605D02*
G03*
X6605Y3435I-20J0D01*
G01*
X6327Y6249D02*
G03*
X6327Y6249I-20J0D01*
G01*
X6427D02*
G03*
X6427Y6249I-20J0D01*
G01*
X6527D02*
G03*
X6527Y6249I-20J0D01*
G01*
X9391Y4664D02*
G03*
X9391Y4664I-20J0D01*
G01*
Y4464D02*
G03*
X9391Y4464I-20J0D01*
G01*
X6327Y5669D02*
G03*
X6327Y5669I-20J0D01*
G01*
X6427D02*
G03*
X6427Y5669I-20J0D01*
G01*
X6527D02*
G03*
X6527Y5669I-20J0D01*
G01*
X6368Y5048D02*
G03*
X6368Y5048I-20J0D01*
G01*
X6468D02*
G03*
X6468Y5048I-20J0D01*
G01*
X6568D02*
G03*
X6568Y5048I-20J0D01*
G01*
X9382Y3669D02*
G03*
X9382Y3669I-20J0D01*
G01*
Y3569D02*
G03*
X9382Y3569I-20J0D01*
G01*
Y3469D02*
G03*
X9382Y3469I-20J0D01*
G01*
X6388Y4488D02*
G03*
X6388Y4488I-20J0D01*
G01*
X6488D02*
G03*
X6488Y4488I-20J0D01*
G01*
X6588D02*
G03*
X6588Y4488I-20J0D01*
G01*
X2625Y1372D02*
G03*
X2625Y1372I-20J0D01*
G01*
X2525D02*
G03*
X2525Y1372I-20J0D01*
G01*
X2425D02*
G03*
X2425Y1372I-20J0D01*
G01*
X1781Y3468D02*
G03*
X1781Y3468I-20J0D01*
G01*
X1604D02*
G03*
X1604Y3468I-20J0D01*
G01*
Y3114D02*
G03*
X1604Y3114I-20J0D01*
G01*
X1781D02*
G03*
X1781Y3114I-20J0D01*
G01*
X3425Y5406D02*
G03*
X3425Y5406I-20J0D01*
G01*
X3525D02*
G03*
X3525Y5406I-20J0D01*
G01*
X3625D02*
G03*
X3625Y5406I-20J0D01*
G01*
M02*
