%FSLAX23Y23*%
%MOIN*%
G70*
G01*
G75*
G04 Layer_Physical_Order=2*
G04 Layer_Color=16711680*
%ADD10R,0.071X0.063*%
%ADD11R,0.063X0.071*%
%ADD12C,0.050*%
%ADD13C,0.020*%
%ADD14C,0.010*%
%ADD15C,0.100*%
%ADD16C,0.200*%
%ADD17R,0.120X0.083*%
%ADD18R,0.120X0.087*%
%ADD19R,0.120X0.090*%
%ADD20C,0.059*%
%ADD21C,0.063*%
%ADD22C,0.110*%
%ADD23R,0.110X0.110*%
%ADD24C,0.049*%
%ADD25R,0.049X0.049*%
%ADD26R,0.063X0.063*%
%ADD27C,0.059*%
%ADD28R,0.059X0.059*%
%ADD29R,0.063X0.063*%
%ADD30O,0.079X0.039*%
%ADD31O,0.079X0.039*%
%ADD32R,0.059X0.059*%
%ADD33C,0.051*%
%ADD34C,0.051*%
%ADD35R,0.059X0.059*%
%ADD36C,0.065*%
%ADD37R,0.065X0.065*%
%ADD38C,0.196*%
%ADD39C,0.049*%
%ADD40R,0.049X0.049*%
%ADD41C,0.050*%
G36*
X985Y6880D02*
X12805D01*
Y990D01*
X12800Y985D01*
X12785Y1000D01*
X980D01*
Y6878D01*
X985Y6880D01*
X985Y6880D01*
D02*
G37*
%LPC*%
G36*
X2088Y3016D02*
X2059D01*
X2059Y3012D01*
X2063Y3004D01*
X2068Y2997D01*
X2075Y2991D01*
X2084Y2988D01*
X2088Y2987D01*
Y3016D01*
D02*
G37*
G36*
X2268Y3017D02*
X2227D01*
Y2996D01*
X2147D01*
X2127Y3016D01*
X2127Y3016D01*
X2098D01*
Y2987D01*
X2098Y2987D01*
X2124Y2961D01*
X2131Y2957D01*
X2138Y2956D01*
X2227D01*
Y2934D01*
X2268D01*
Y2976D01*
Y3017D01*
D02*
G37*
G36*
X3659Y3034D02*
X3619D01*
Y2997D01*
X3659D01*
Y3034D01*
D02*
G37*
G36*
X2318Y3017D02*
X2278D01*
Y2976D01*
Y2934D01*
X2318D01*
Y2956D01*
X2354D01*
X2354Y2951D01*
X2358Y2941D01*
X2365Y2933D01*
X2373Y2926D01*
X2383Y2923D01*
X2388Y2922D01*
Y2961D01*
Y3000D01*
X2383Y3000D01*
X2375Y2996D01*
X2318D01*
Y3017D01*
D02*
G37*
G36*
X2432Y2956D02*
X2398D01*
Y2922D01*
X2403Y2923D01*
X2413Y2926D01*
X2421Y2933D01*
X2427Y2941D01*
X2431Y2951D01*
X2432Y2956D01*
D02*
G37*
G36*
X2398Y3000D02*
Y2966D01*
X2432D01*
X2431Y2971D01*
X2427Y2981D01*
X2421Y2989D01*
X2413Y2996D01*
X2403Y3000D01*
X2398Y3000D01*
D02*
G37*
G36*
X2988Y3100D02*
X2983Y3100D01*
X2973Y3096D01*
X2965Y3089D01*
X2958Y3081D01*
X2954Y3071D01*
X2954Y3066D01*
X2988D01*
Y3100D01*
D02*
G37*
G36*
X2998D02*
Y3066D01*
X3032D01*
X3031Y3071D01*
X3027Y3081D01*
X3021Y3089D01*
X3013Y3096D01*
X3003Y3100D01*
X2998Y3100D01*
D02*
G37*
G36*
X1756Y3109D02*
X1719D01*
Y3071D01*
X1756D01*
Y3109D01*
D02*
G37*
G36*
X2988Y3056D02*
X2954D01*
X2954Y3051D01*
X2958Y3041D01*
X2965Y3033D01*
X2973Y3026D01*
X2983Y3023D01*
X2988Y3022D01*
Y3056D01*
D02*
G37*
G36*
X3345Y3084D02*
X3304D01*
Y3043D01*
X3294D01*
Y3084D01*
X3254D01*
Y3063D01*
X3032D01*
X3033Y3061D01*
X3032Y3056D01*
X2998D01*
Y3022D01*
X3003Y3023D01*
X3005Y3023D01*
X3011Y3022D01*
X3254D01*
Y3001D01*
X3272D01*
Y2968D01*
X3247D01*
Y2931D01*
X3338D01*
Y2968D01*
X3313D01*
Y3001D01*
X3345D01*
Y3022D01*
X3562D01*
X3563Y3018D01*
X3480Y2934D01*
X3478Y2935D01*
Y2906D01*
X3507D01*
X3507Y2904D01*
X3601Y2997D01*
X3609D01*
Y3039D01*
Y3080D01*
X3568D01*
Y3063D01*
X3345D01*
Y3084D01*
D02*
G37*
G36*
X3659Y3080D02*
X3619D01*
Y3044D01*
X3659D01*
Y3080D01*
D02*
G37*
G36*
X3468Y2935D02*
X3464Y2934D01*
X3455Y2931D01*
X3448Y2925D01*
X3443Y2918D01*
X3439Y2910D01*
X3439Y2906D01*
X3468D01*
Y2935D01*
D02*
G37*
G36*
X2993Y2801D02*
X2983Y2800D01*
X2973Y2796D01*
X2965Y2789D01*
X2958Y2781D01*
X2954Y2771D01*
X2953Y2761D01*
X2954Y2751D01*
X2958Y2741D01*
X2965Y2733D01*
X2973Y2726D01*
X2983Y2723D01*
X2993Y2721D01*
X3003Y2723D01*
X3013Y2726D01*
X3021Y2733D01*
X3027Y2741D01*
X3031Y2751D01*
X3033Y2761D01*
X3031Y2771D01*
X3027Y2781D01*
X3021Y2789D01*
X3013Y2796D01*
X3003Y2800D01*
X2993Y2801D01*
D02*
G37*
G36*
X1993Y2851D02*
X1956D01*
Y2811D01*
X1993D01*
Y2851D01*
D02*
G37*
G36*
X2039D02*
X2003D01*
Y2811D01*
X2039D01*
Y2851D01*
D02*
G37*
G36*
X2393Y2801D02*
X2383Y2800D01*
X2373Y2796D01*
X2365Y2789D01*
X2359Y2781D01*
X2328D01*
X2320Y2780D01*
X2314Y2775D01*
X2309Y2769D01*
X2309Y2768D01*
X2226Y2685D01*
X2220Y2686D01*
X2214Y2685D01*
X2168Y2730D01*
X2162Y2735D01*
X2154Y2736D01*
X2149D01*
Y2761D01*
X2066D01*
Y2671D01*
X2149D01*
Y2685D01*
X2154Y2687D01*
X2185Y2656D01*
X2184Y2650D01*
X2185Y2641D01*
X2189Y2632D01*
X2195Y2625D01*
X2202Y2619D01*
X2211Y2615D01*
X2220Y2614D01*
X2229Y2615D01*
X2238Y2619D01*
X2245Y2625D01*
X2251Y2632D01*
X2255Y2641D01*
X2256Y2650D01*
X2255Y2656D01*
X2339Y2741D01*
X2359D01*
X2365Y2733D01*
X2373Y2726D01*
X2383Y2723D01*
X2393Y2721D01*
X2403Y2723D01*
X2413Y2726D01*
X2421Y2733D01*
X2427Y2741D01*
X2431Y2751D01*
X2433Y2761D01*
X2431Y2771D01*
X2427Y2781D01*
X2421Y2789D01*
X2413Y2796D01*
X2403Y2800D01*
X2393Y2801D01*
D02*
G37*
G36*
X1993Y2761D02*
X1956D01*
Y2721D01*
X1993D01*
Y2761D01*
D02*
G37*
G36*
X2039D02*
X2003D01*
Y2721D01*
X2039D01*
Y2761D01*
D02*
G37*
G36*
Y2901D02*
X2003D01*
Y2861D01*
X2039D01*
Y2901D01*
D02*
G37*
G36*
X3288Y2921D02*
X3247D01*
Y2885D01*
X3288D01*
Y2921D01*
D02*
G37*
G36*
X3338D02*
X3298D01*
Y2885D01*
X3338D01*
Y2921D01*
D02*
G37*
G36*
X2149Y2901D02*
X2066D01*
Y2811D01*
X2149D01*
Y2841D01*
X2191D01*
X2195Y2836D01*
X2202Y2830D01*
X2211Y2826D01*
X2220Y2825D01*
X2229Y2826D01*
X2238Y2830D01*
X2245Y2836D01*
X2249Y2841D01*
X2359D01*
X2365Y2833D01*
X2373Y2826D01*
X2383Y2823D01*
X2393Y2821D01*
X2403Y2823D01*
X2413Y2826D01*
X2421Y2833D01*
X2427Y2841D01*
X2431Y2851D01*
X2433Y2861D01*
X2431Y2871D01*
X2427Y2881D01*
X2421Y2889D01*
X2413Y2896D01*
X2403Y2900D01*
X2393Y2901D01*
X2383Y2900D01*
X2373Y2896D01*
X2365Y2889D01*
X2359Y2881D01*
X2249D01*
X2245Y2886D01*
X2238Y2892D01*
X2229Y2896D01*
X2220Y2897D01*
X2211Y2896D01*
X2202Y2892D01*
X2195Y2886D01*
X2191Y2881D01*
X2149D01*
Y2901D01*
D02*
G37*
G36*
X2993Y2901D02*
X2983Y2900D01*
X2973Y2896D01*
X2965Y2889D01*
X2958Y2881D01*
X2954Y2871D01*
X2953Y2861D01*
X2954Y2851D01*
X2958Y2841D01*
X2965Y2833D01*
X2973Y2826D01*
X2983Y2823D01*
X2993Y2821D01*
X3003Y2823D01*
X3013Y2826D01*
X3021Y2833D01*
X3027Y2841D01*
X3031Y2851D01*
X3033Y2861D01*
X3031Y2871D01*
X3027Y2881D01*
X3021Y2889D01*
X3013Y2896D01*
X3003Y2900D01*
X2993Y2901D01*
D02*
G37*
G36*
X1993Y2901D02*
X1956D01*
Y2861D01*
X1993D01*
Y2901D01*
D02*
G37*
G36*
X2993Y3401D02*
X2983Y3400D01*
X2973Y3396D01*
X2965Y3389D01*
X2958Y3381D01*
X2954Y3371D01*
X2953Y3361D01*
X2954Y3351D01*
X2958Y3341D01*
X2965Y3333D01*
X2973Y3326D01*
X2983Y3323D01*
X2993Y3321D01*
X3003Y3323D01*
X3013Y3326D01*
X3021Y3333D01*
X3027Y3341D01*
X3261D01*
X3261Y3337D01*
X3265Y3328D01*
X3271Y3319D01*
X3280Y3313D01*
X3289Y3309D01*
X3299Y3308D01*
X3310Y3309D01*
X3319Y3313D01*
X3328Y3319D01*
X3334Y3328D01*
X3338Y3337D01*
X3339Y3348D01*
X3338Y3358D01*
X3334Y3368D01*
X3328Y3376D01*
X3319Y3382D01*
X3310Y3386D01*
X3299Y3388D01*
X3289Y3386D01*
X3280Y3382D01*
X3279Y3381D01*
X3027D01*
X3021Y3389D01*
X3013Y3396D01*
X3003Y3400D01*
X2993Y3401D01*
D02*
G37*
G36*
X5496Y3466D02*
X5485Y3464D01*
X5476Y3461D01*
X5467Y3454D01*
X5461Y3446D01*
X5457Y3436D01*
X5456Y3426D01*
X5457Y3416D01*
X5461Y3406D01*
X5467Y3398D01*
X5476Y3391D01*
X5485Y3387D01*
X5496Y3386D01*
X5506Y3387D01*
X5516Y3391D01*
X5524Y3398D01*
X5530Y3406D01*
X5534Y3416D01*
X5536Y3426D01*
X5534Y3436D01*
X5530Y3446D01*
X5524Y3454D01*
X5516Y3461D01*
X5506Y3464D01*
X5496Y3466D01*
D02*
G37*
G36*
X6427Y3477D02*
X6344D01*
Y3471D01*
X6190D01*
X6180Y3470D01*
X6172Y3466D01*
X6165Y3460D01*
X6159Y3453D01*
X6155Y3445D01*
X6154Y3435D01*
X6155Y3426D01*
X6159Y3418D01*
X6165Y3410D01*
X6172Y3405D01*
X6180Y3401D01*
X6190Y3400D01*
X6344D01*
Y3394D01*
X6427D01*
Y3477D01*
D02*
G37*
G36*
X1568Y3297D02*
X1527D01*
Y3261D01*
X1568D01*
Y3297D01*
D02*
G37*
G36*
X1618D02*
X1578D01*
Y3261D01*
X1618D01*
Y3297D01*
D02*
G37*
G36*
X2993Y3501D02*
X2983Y3500D01*
X2973Y3496D01*
X2965Y3489D01*
X2958Y3481D01*
X2954Y3471D01*
X2953Y3461D01*
X2954Y3451D01*
X2958Y3441D01*
X2965Y3433D01*
X2973Y3426D01*
X2983Y3423D01*
X2993Y3421D01*
X3003Y3423D01*
X3013Y3426D01*
X3021Y3433D01*
X3027Y3441D01*
X3481D01*
X3574Y3347D01*
X3574Y3344D01*
X3575Y3334D01*
X3579Y3324D01*
X3585Y3316D01*
X3594Y3309D01*
X3603Y3305D01*
X3614Y3304D01*
X3624Y3305D01*
X3633Y3309D01*
X3642Y3316D01*
X3648Y3324D01*
X3652Y3334D01*
X3653Y3344D01*
X3652Y3354D01*
X3648Y3364D01*
X3642Y3372D01*
X3633Y3378D01*
X3624Y3382D01*
X3614Y3384D01*
X3603Y3382D01*
X3598Y3380D01*
X3503Y3475D01*
X3497Y3480D01*
X3489Y3481D01*
X3027D01*
X3021Y3489D01*
X3013Y3496D01*
X3003Y3500D01*
X2993Y3501D01*
D02*
G37*
G36*
X10978Y3446D02*
X10942D01*
Y3410D01*
X10948Y3411D01*
X10958Y3415D01*
X10966Y3421D01*
X10973Y3430D01*
X10977Y3440D01*
X10978Y3446D01*
D02*
G37*
G36*
X5097Y3443D02*
X5006D01*
Y3422D01*
X4835D01*
X4832Y3427D01*
X4825Y3432D01*
X4816Y3436D01*
X4807Y3437D01*
X4798Y3436D01*
X4789Y3432D01*
X4782Y3427D01*
X4776Y3420D01*
X4773Y3411D01*
X4772Y3402D01*
X4773Y3393D01*
X4776Y3384D01*
X4782Y3377D01*
X4789Y3371D01*
X4798Y3368D01*
X4807Y3367D01*
X4816Y3368D01*
X4825Y3371D01*
X4832Y3377D01*
X4835Y3381D01*
X5006D01*
Y3360D01*
X5097D01*
Y3443D01*
D02*
G37*
G36*
X5198Y3452D02*
X5154D01*
X5154Y3449D01*
X5157Y3442D01*
X5162Y3436D01*
X5168Y3431D01*
X5175Y3428D01*
X5183Y3427D01*
X5198D01*
Y3452D01*
D02*
G37*
G36*
X6480Y3430D02*
X6444D01*
X6445Y3425D01*
X6449Y3415D01*
X6456Y3406D01*
X6464Y3399D01*
X6475Y3395D01*
X6480Y3394D01*
Y3430D01*
D02*
G37*
G36*
X6527D02*
X6490D01*
Y3394D01*
X6496Y3395D01*
X6506Y3399D01*
X6515Y3406D01*
X6522Y3415D01*
X6526Y3425D01*
X6527Y3430D01*
D02*
G37*
G36*
X10932Y3446D02*
X10896D01*
X10896Y3440D01*
X10901Y3430D01*
X10907Y3421D01*
X10916Y3415D01*
X10926Y3411D01*
X10932Y3410D01*
Y3446D01*
D02*
G37*
G36*
X2993Y3301D02*
X2983Y3300D01*
X2973Y3296D01*
X2965Y3289D01*
X2958Y3281D01*
X2954Y3271D01*
X2953Y3261D01*
X2954Y3251D01*
X2958Y3241D01*
X2965Y3233D01*
X2973Y3226D01*
X2983Y3223D01*
X2993Y3221D01*
X3003Y3223D01*
X3013Y3226D01*
X3021Y3233D01*
X3027Y3241D01*
X3031Y3251D01*
X3033Y3261D01*
X3031Y3271D01*
X3027Y3281D01*
X3021Y3289D01*
X3013Y3296D01*
X3003Y3300D01*
X2993Y3301D01*
D02*
G37*
G36*
X3614Y3284D02*
X3603Y3282D01*
X3594Y3278D01*
X3585Y3272D01*
X3579Y3264D01*
X3575Y3254D01*
X3574Y3244D01*
X3575Y3234D01*
X3579Y3224D01*
X3585Y3216D01*
X3593Y3210D01*
Y3190D01*
X3568D01*
Y3107D01*
X3659D01*
Y3190D01*
X3634D01*
Y3210D01*
X3642Y3216D01*
X3648Y3224D01*
X3652Y3234D01*
X3653Y3244D01*
X3652Y3254D01*
X3648Y3264D01*
X3642Y3272D01*
X3633Y3278D01*
X3624Y3282D01*
X3614Y3284D01*
D02*
G37*
G36*
X3299Y3288D02*
X3289Y3286D01*
X3280Y3282D01*
X3271Y3276D01*
X3265Y3268D01*
X3261Y3258D01*
X3260Y3248D01*
X3261Y3237D01*
X3265Y3228D01*
X3271Y3219D01*
X3279Y3213D01*
Y3194D01*
X3254D01*
Y3111D01*
X3345D01*
Y3194D01*
X3320D01*
Y3213D01*
X3328Y3219D01*
X3334Y3228D01*
X3338Y3237D01*
X3339Y3248D01*
X3338Y3258D01*
X3334Y3268D01*
X3328Y3276D01*
X3319Y3282D01*
X3310Y3286D01*
X3299Y3288D01*
D02*
G37*
G36*
X1579Y3156D02*
X1573Y3155D01*
X1563Y3151D01*
X1554Y3144D01*
X1547Y3135D01*
X1543Y3125D01*
X1542Y3119D01*
X1579D01*
Y3156D01*
D02*
G37*
G36*
X1804Y3109D02*
X1766D01*
Y3071D01*
X1804D01*
Y3109D01*
D02*
G37*
G36*
X1579D02*
X1542D01*
X1543Y3103D01*
X1547Y3092D01*
X1554Y3084D01*
X1563Y3077D01*
X1573Y3072D01*
X1579Y3072D01*
Y3109D01*
D02*
G37*
G36*
X1626D02*
X1589D01*
Y3072D01*
X1595Y3072D01*
X1606Y3077D01*
X1615Y3084D01*
X1621Y3092D01*
X1626Y3103D01*
X1626Y3109D01*
D02*
G37*
G36*
X2993Y3201D02*
X2983Y3200D01*
X2973Y3196D01*
X2965Y3189D01*
X2958Y3181D01*
X2954Y3171D01*
X2953Y3161D01*
X2954Y3151D01*
X2958Y3141D01*
X2965Y3133D01*
X2973Y3126D01*
X2983Y3123D01*
X2993Y3121D01*
X3003Y3123D01*
X3013Y3126D01*
X3021Y3133D01*
X3027Y3141D01*
X3031Y3151D01*
X3033Y3161D01*
X3031Y3171D01*
X3027Y3181D01*
X3021Y3189D01*
X3013Y3196D01*
X3003Y3200D01*
X2993Y3201D01*
D02*
G37*
G36*
X1568Y3251D02*
X1527D01*
Y3214D01*
X1568D01*
Y3251D01*
D02*
G37*
G36*
X1618D02*
X1578D01*
Y3214D01*
X1618D01*
Y3251D01*
D02*
G37*
G36*
X1589Y3156D02*
Y3119D01*
X1626D01*
X1626Y3125D01*
X1621Y3135D01*
X1615Y3144D01*
X1606Y3151D01*
X1595Y3155D01*
X1589Y3156D01*
D02*
G37*
G36*
X1756Y3156D02*
X1719D01*
Y3119D01*
X1756D01*
Y3156D01*
D02*
G37*
G36*
X1804D02*
X1766D01*
Y3119D01*
X1804D01*
Y3156D01*
D02*
G37*
G36*
X2039Y2711D02*
X2003D01*
Y2671D01*
X2039D01*
Y2711D01*
D02*
G37*
G36*
X2275Y1517D02*
X2235D01*
Y1480D01*
X2275D01*
Y1517D01*
D02*
G37*
G36*
X2325D02*
X2285D01*
Y1480D01*
X2325D01*
Y1517D01*
D02*
G37*
G36*
X2715D02*
X2675D01*
Y1480D01*
X2715D01*
Y1517D01*
D02*
G37*
G36*
X1825Y1464D02*
Y1435D01*
X1854D01*
X1854Y1439D01*
X1850Y1447D01*
X1845Y1454D01*
X1837Y1460D01*
X1829Y1463D01*
X1825Y1464D01*
D02*
G37*
G36*
X3142Y1467D02*
X3138Y1466D01*
X3129Y1463D01*
X3122Y1457D01*
X3116Y1450D01*
X3113Y1441D01*
X3112Y1437D01*
X3142D01*
Y1467D01*
D02*
G37*
G36*
X3152D02*
Y1437D01*
X3181D01*
X3180Y1441D01*
X3177Y1450D01*
X3171Y1457D01*
X3164Y1463D01*
X3156Y1466D01*
X3152Y1467D01*
D02*
G37*
G36*
X2393Y2101D02*
X2383Y2100D01*
X2373Y2096D01*
X2365Y2089D01*
X2358Y2081D01*
X2354Y2071D01*
X2353Y2061D01*
X2354Y2051D01*
X2358Y2041D01*
X2365Y2033D01*
X2373Y2026D01*
X2383Y2023D01*
X2393Y2021D01*
X2403Y2023D01*
X2413Y2026D01*
X2421Y2033D01*
X2427Y2041D01*
X2431Y2051D01*
X2433Y2061D01*
X2431Y2071D01*
X2427Y2081D01*
X2421Y2089D01*
X2413Y2096D01*
X2403Y2100D01*
X2393Y2101D01*
D02*
G37*
G36*
Y2201D02*
X2383Y2200D01*
X2373Y2196D01*
X2365Y2189D01*
X2358Y2181D01*
X2354Y2171D01*
X2353Y2161D01*
X2354Y2151D01*
X2358Y2141D01*
X2365Y2133D01*
X2373Y2126D01*
X2383Y2123D01*
X2393Y2121D01*
X2403Y2123D01*
X2413Y2126D01*
X2421Y2133D01*
X2427Y2141D01*
X2431Y2151D01*
X2433Y2161D01*
X2431Y2171D01*
X2427Y2181D01*
X2421Y2189D01*
X2413Y2196D01*
X2403Y2200D01*
X2393Y2201D01*
D02*
G37*
G36*
X2993D02*
X2983Y2200D01*
X2973Y2196D01*
X2965Y2189D01*
X2958Y2181D01*
X2954Y2171D01*
X2953Y2161D01*
X2954Y2151D01*
X2958Y2141D01*
X2965Y2133D01*
X2973Y2126D01*
X2983Y2123D01*
X2993Y2121D01*
X3003Y2123D01*
X3013Y2126D01*
X3021Y2133D01*
X3027Y2141D01*
X3031Y2151D01*
X3033Y2161D01*
X3031Y2171D01*
X3027Y2181D01*
X3021Y2189D01*
X3013Y2196D01*
X3003Y2200D01*
X2993Y2201D01*
D02*
G37*
G36*
X2765Y1517D02*
X2725D01*
Y1480D01*
X2765D01*
Y1517D01*
D02*
G37*
G36*
X3468Y2016D02*
X3424D01*
X3424Y2013D01*
X3427Y2006D01*
X3432Y2000D01*
X3438Y1995D01*
X3445Y1992D01*
X3453Y1991D01*
X3468D01*
Y2016D01*
D02*
G37*
G36*
X3522D02*
X3478D01*
Y1991D01*
X3493D01*
X3500Y1992D01*
X3508Y1995D01*
X3514Y2000D01*
X3518Y2006D01*
X3521Y2013D01*
X3522Y2016D01*
D02*
G37*
G36*
X1815Y1464D02*
X1811Y1463D01*
X1803Y1460D01*
X1795Y1454D01*
X1790Y1447D01*
X1786Y1439D01*
X1786Y1435D01*
X1815D01*
Y1464D01*
D02*
G37*
G36*
X3925Y1279D02*
Y1245D01*
X3959D01*
X3959Y1250D01*
X3955Y1260D01*
X3948Y1268D01*
X3940Y1275D01*
X3930Y1279D01*
X3925Y1279D01*
D02*
G37*
G36*
X2500Y1367D02*
X2463D01*
X2464Y1361D01*
X2468Y1351D01*
X2475Y1342D01*
X2484Y1336D01*
X2494Y1332D01*
X2500Y1331D01*
Y1367D01*
D02*
G37*
G36*
X2546D02*
X2510D01*
Y1331D01*
X2515Y1332D01*
X2525Y1336D01*
X2534Y1342D01*
X2541Y1351D01*
X2545Y1361D01*
X2546Y1367D01*
D02*
G37*
G36*
X3915Y1235D02*
X3881D01*
X3881Y1230D01*
X3885Y1220D01*
X3892Y1212D01*
X3900Y1205D01*
X3910Y1201D01*
X3915Y1201D01*
Y1235D01*
D02*
G37*
G36*
X3959D02*
X3925D01*
Y1201D01*
X3930Y1201D01*
X3940Y1205D01*
X3948Y1212D01*
X3955Y1220D01*
X3959Y1230D01*
X3959Y1235D01*
D02*
G37*
G36*
X3915Y1279D02*
X3910Y1279D01*
X3900Y1275D01*
X3892Y1268D01*
X3885Y1260D01*
X3881Y1250D01*
X3881Y1245D01*
X3915D01*
Y1279D01*
D02*
G37*
G36*
X2325Y1470D02*
X2285D01*
Y1434D01*
X2325D01*
Y1470D01*
D02*
G37*
G36*
X2715D02*
X2675D01*
Y1434D01*
X2715D01*
Y1470D01*
D02*
G37*
G36*
X2765D02*
X2725D01*
Y1434D01*
X2765D01*
Y1470D01*
D02*
G37*
G36*
X2500Y1413D02*
X2494Y1412D01*
X2484Y1408D01*
X2475Y1402D01*
X2468Y1393D01*
X2464Y1383D01*
X2463Y1377D01*
X2500D01*
Y1413D01*
D02*
G37*
G36*
X2510D02*
Y1377D01*
X2546D01*
X2545Y1383D01*
X2541Y1393D01*
X2534Y1402D01*
X2525Y1408D01*
X2515Y1412D01*
X2510Y1413D01*
D02*
G37*
G36*
X2275Y1470D02*
X2235D01*
Y1434D01*
X2275D01*
Y1470D01*
D02*
G37*
G36*
X5268Y2590D02*
X5177D01*
Y2507D01*
X5202D01*
Y2494D01*
X5195Y2493D01*
X5188Y2490D01*
X5182Y2485D01*
X5177Y2479D01*
X5174Y2472D01*
X5173Y2464D01*
X5174Y2456D01*
X5177Y2449D01*
X5182Y2443D01*
X5183Y2441D01*
Y2436D01*
X5182Y2435D01*
X5181Y2434D01*
X5138D01*
Y2462D01*
X5047D01*
Y2379D01*
X5138D01*
Y2394D01*
X5181D01*
X5182Y2393D01*
X5183Y2391D01*
Y2386D01*
X5182Y2385D01*
X5177Y2379D01*
X5174Y2372D01*
X5173Y2369D01*
X5271D01*
X5271Y2372D01*
X5268Y2379D01*
X5263Y2385D01*
X5261Y2386D01*
Y2391D01*
X5263Y2393D01*
X5268Y2399D01*
X5271Y2406D01*
X5272Y2414D01*
X5271Y2422D01*
X5268Y2429D01*
X5263Y2435D01*
X5261Y2436D01*
Y2441D01*
X5263Y2443D01*
X5268Y2449D01*
X5271Y2456D01*
X5272Y2464D01*
X5271Y2472D01*
X5268Y2479D01*
X5263Y2485D01*
X5257Y2490D01*
X5250Y2493D01*
X5243Y2494D01*
Y2507D01*
X5268D01*
Y2515D01*
X5483D01*
Y2497D01*
X5562D01*
Y2577D01*
X5483D01*
Y2555D01*
X5268D01*
Y2590D01*
D02*
G37*
G36*
X2393Y2601D02*
X2383Y2600D01*
X2373Y2596D01*
X2365Y2589D01*
X2358Y2581D01*
X2354Y2571D01*
X2353Y2561D01*
X2354Y2551D01*
X2358Y2541D01*
X2365Y2533D01*
X2373Y2526D01*
X2383Y2523D01*
X2393Y2521D01*
X2403Y2523D01*
X2413Y2526D01*
X2421Y2533D01*
X2427Y2541D01*
X2431Y2551D01*
X2433Y2561D01*
X2431Y2571D01*
X2427Y2581D01*
X2421Y2589D01*
X2413Y2596D01*
X2403Y2600D01*
X2393Y2601D01*
D02*
G37*
G36*
X2993D02*
X2983Y2600D01*
X2973Y2596D01*
X2965Y2589D01*
X2958Y2581D01*
X2954Y2571D01*
X2953Y2561D01*
X2954Y2551D01*
X2958Y2541D01*
X2965Y2533D01*
X2973Y2526D01*
X2983Y2523D01*
X2993Y2521D01*
X3003Y2523D01*
X3013Y2526D01*
X3021Y2533D01*
X3027Y2541D01*
X3031Y2551D01*
X3033Y2561D01*
X3031Y2571D01*
X3027Y2581D01*
X3021Y2589D01*
X3013Y2596D01*
X3003Y2600D01*
X2993Y2601D01*
D02*
G37*
G36*
X5517Y2476D02*
X5512Y2476D01*
X5503Y2472D01*
X5494Y2465D01*
X5488Y2457D01*
X5484Y2447D01*
X5483Y2442D01*
X5517D01*
Y2476D01*
D02*
G37*
G36*
X5527D02*
Y2442D01*
X5562D01*
X5561Y2447D01*
X5557Y2457D01*
X5551Y2465D01*
X5542Y2472D01*
X5533Y2476D01*
X5527Y2476D01*
D02*
G37*
G36*
X5155Y5790D02*
X5064D01*
Y5731D01*
X4376Y5043D01*
X4371Y5036D01*
X4370Y5028D01*
Y3428D01*
X4365Y3425D01*
X4359Y3418D01*
X4356Y3409D01*
X4355Y3400D01*
X4356Y3391D01*
X4359Y3382D01*
X4365Y3375D01*
X4370Y3372D01*
Y2648D01*
X4252Y2530D01*
X3365D01*
X3357Y2529D01*
X3355Y2527D01*
X3351Y2524D01*
X3351Y2524D01*
X3123Y2297D01*
X3119Y2291D01*
X3117Y2283D01*
Y2096D01*
X3096D01*
Y2075D01*
X3030D01*
X3027Y2081D01*
X3021Y2089D01*
X3013Y2096D01*
X3003Y2100D01*
X2993Y2101D01*
X2983Y2100D01*
X2973Y2096D01*
X2965Y2089D01*
X2958Y2081D01*
X2954Y2071D01*
X2953Y2061D01*
X2954Y2051D01*
X2958Y2041D01*
X2965Y2033D01*
X2973Y2026D01*
X2983Y2023D01*
X2993Y2021D01*
X3003Y2023D01*
X3013Y2026D01*
X3021Y2033D01*
X3022Y2035D01*
X3096D01*
Y2006D01*
X3179D01*
Y2096D01*
X3158D01*
Y2274D01*
X3373Y2490D01*
X4260D01*
X4268Y2491D01*
X4274Y2496D01*
Y2496D01*
X4274D01*
D01*
D01*
D01*
D01*
D01*
D01*
X4274D01*
D01*
X4274D01*
Y2496D01*
D01*
D01*
D01*
D01*
Y2496D01*
D01*
D01*
D01*
D01*
D01*
D01*
Y2496D01*
D01*
D01*
X4274D01*
D01*
D01*
D01*
X4404Y2626D01*
X4409Y2632D01*
X4410Y2640D01*
X4410Y2640D01*
Y3372D01*
X4415Y3375D01*
X4421Y3382D01*
X4424Y3391D01*
X4425Y3400D01*
X4424Y3409D01*
X4421Y3418D01*
X4415Y3425D01*
X4410Y3428D01*
Y5020D01*
X5097Y5707D01*
X5155D01*
Y5790D01*
D02*
G37*
G36*
X2393Y2701D02*
X2383Y2700D01*
X2373Y2696D01*
X2365Y2689D01*
X2358Y2681D01*
X2354Y2671D01*
X2353Y2661D01*
X2354Y2651D01*
X2358Y2641D01*
X2365Y2633D01*
X2373Y2626D01*
X2383Y2623D01*
X2393Y2621D01*
X2403Y2623D01*
X2413Y2626D01*
X2421Y2633D01*
X2427Y2641D01*
X2431Y2651D01*
X2433Y2661D01*
X2431Y2671D01*
X2427Y2681D01*
X2421Y2689D01*
X2413Y2696D01*
X2403Y2700D01*
X2393Y2701D01*
D02*
G37*
G36*
X2993D02*
X2983Y2700D01*
X2973Y2696D01*
X2965Y2689D01*
X2958Y2681D01*
X2954Y2671D01*
X2953Y2661D01*
X2954Y2651D01*
X2958Y2641D01*
X2965Y2633D01*
X2973Y2626D01*
X2983Y2623D01*
X2993Y2621D01*
X3003Y2623D01*
X3013Y2626D01*
X3021Y2633D01*
X3027Y2641D01*
X3031Y2651D01*
X3033Y2661D01*
X3031Y2671D01*
X3027Y2681D01*
X3021Y2689D01*
X3013Y2696D01*
X3003Y2700D01*
X2993Y2701D01*
D02*
G37*
G36*
X1993Y2711D02*
X1956D01*
Y2671D01*
X1993D01*
Y2711D01*
D02*
G37*
G36*
X5975Y2935D02*
X5782D01*
X5774Y2934D01*
X5767Y2929D01*
X5696Y2859D01*
X5692Y2852D01*
X5690Y2844D01*
Y1785D01*
X5646D01*
Y1655D01*
X5776D01*
Y1785D01*
X5731D01*
Y2836D01*
X5790Y2895D01*
X5967D01*
X5986Y2876D01*
X5992Y2871D01*
X6000Y2870D01*
X6347D01*
X6436Y2780D01*
Y2693D01*
X6435Y2693D01*
X6427Y2686D01*
X6420Y2677D01*
X6416Y2667D01*
X6414Y2656D01*
X6416Y2646D01*
X6420Y2635D01*
X6426Y2627D01*
Y2525D01*
X6422Y2523D01*
X6355Y2590D01*
X6348Y2596D01*
X6339Y2599D01*
X6330Y2600D01*
X6260D01*
X6180Y2680D01*
X6173Y2686D01*
X6164Y2689D01*
X6155Y2690D01*
X5933D01*
Y2702D01*
X5850D01*
Y2611D01*
X5850D01*
X5850Y2605D01*
X5822Y2577D01*
X5812Y2576D01*
X5803Y2572D01*
X5794Y2565D01*
X5788Y2557D01*
X5785Y2551D01*
X5780Y2552D01*
Y2611D01*
X5823D01*
Y2702D01*
X5801D01*
Y2731D01*
X5823D01*
Y2822D01*
X5740D01*
Y2731D01*
X5761D01*
Y2702D01*
X5740D01*
Y2611D01*
X5740D01*
Y2395D01*
X5740Y2395D01*
X5740D01*
X5741Y2387D01*
X5746Y2381D01*
X5783Y2343D01*
X5783Y2337D01*
X5784Y2327D01*
X5788Y2317D01*
X5794Y2309D01*
X5803Y2302D01*
X5812Y2298D01*
X5822Y2297D01*
X5833Y2298D01*
X5842Y2302D01*
X5851Y2309D01*
X5857Y2317D01*
X5861Y2327D01*
X5862Y2337D01*
X5861Y2347D01*
X5857Y2357D01*
X5851Y2365D01*
X5842Y2372D01*
X5833Y2376D01*
X5822Y2377D01*
X5812Y2376D01*
X5809Y2374D01*
X5780Y2403D01*
Y2422D01*
X5785Y2423D01*
X5788Y2417D01*
X5794Y2409D01*
X5803Y2402D01*
X5812Y2398D01*
X5822Y2397D01*
X5833Y2398D01*
X5841Y2402D01*
X5937D01*
X6074Y2265D01*
X6081Y2259D01*
X6090Y2256D01*
X6099Y2255D01*
X6390D01*
X6392Y2255D01*
X6394D01*
X6396Y2256D01*
X6399Y2256D01*
X6401Y2257D01*
X6403Y2257D01*
X6405Y2259D01*
X6407Y2259D01*
X6409Y2261D01*
X6411Y2262D01*
X6417Y2259D01*
X6426Y2258D01*
X6450D01*
X6451Y2253D01*
X6445Y2247D01*
X6439Y2240D01*
X6436Y2231D01*
X6435Y2222D01*
Y2139D01*
X6434Y2136D01*
X6435Y2134D01*
Y2130D01*
X6435Y2130D01*
X6435D01*
X6436Y2121D01*
X6439Y2113D01*
X6441Y2111D01*
Y1876D01*
X6441Y1876D01*
X6441D01*
X6442Y1867D01*
X6446Y1859D01*
X6451Y1851D01*
X6881Y1421D01*
X6889Y1416D01*
X6897Y1412D01*
X6906Y1411D01*
X6915Y1412D01*
X6924Y1416D01*
X6931Y1421D01*
X6932Y1422D01*
X10240Y1440D01*
X10245Y1440D01*
X10249Y1441D01*
X10249Y1441D01*
X10249Y1441D01*
X10253Y1443D01*
X10258Y1444D01*
X10258Y1444D01*
X10258Y1445D01*
X10261Y1447D01*
X10265Y1450D01*
X10265Y1450D01*
X10265Y1450D01*
X10268Y1454D01*
X10271Y1457D01*
X10271Y1457D01*
X10271Y1458D01*
X10272Y1462D01*
X10274Y1466D01*
X10274Y1466D01*
X10274Y1466D01*
X10275Y1471D01*
X10275Y1475D01*
X10275Y1475D01*
X10275Y1475D01*
X10275Y1480D01*
X10274Y1484D01*
X10274Y1484D01*
X10274Y1484D01*
X10272Y1488D01*
X10271Y1493D01*
X10271Y1493D01*
X10270Y1493D01*
X10268Y1496D01*
X10265Y1500D01*
X10265Y1500D01*
X10265Y1500D01*
X10261Y1503D01*
X10258Y1506D01*
X10258Y1506D01*
X10257Y1506D01*
X10253Y1507D01*
X10249Y1509D01*
X10249Y1509D01*
X10249Y1509D01*
X10244Y1510D01*
X10240Y1510D01*
X10240Y1510D01*
X10240Y1510D01*
X6909Y1493D01*
X6512Y1891D01*
Y2114D01*
X6512Y2115D01*
X6517Y2126D01*
X6518Y2136D01*
X6517Y2147D01*
X6512Y2157D01*
X6506Y2166D01*
X6505Y2166D01*
Y2207D01*
X6550Y2252D01*
X6587D01*
Y2335D01*
X6496D01*
Y2329D01*
X6435D01*
X6434Y2331D01*
X6434Y2332D01*
X6434Y2332D01*
X6432Y2336D01*
X6431Y2338D01*
X6433Y2343D01*
X6436D01*
X6445Y2344D01*
X6454Y2347D01*
X6461Y2353D01*
X6476Y2368D01*
X6496D01*
Y2362D01*
X6587D01*
Y2445D01*
X6497D01*
Y2647D01*
X6498Y2656D01*
X6497Y2667D01*
X6492Y2677D01*
X6486Y2686D01*
X6477Y2693D01*
X6477Y2693D01*
Y2789D01*
X6477Y2789D01*
Y2789D01*
X6477D01*
X6477Y2789D01*
D01*
D01*
D01*
D01*
X6477Y2789D01*
D01*
X6475Y2797D01*
X6473Y2799D01*
X6471Y2803D01*
X6471Y2803D01*
X6369Y2904D01*
X6363Y2909D01*
X6355Y2910D01*
X6008D01*
X5989Y2929D01*
X5983Y2934D01*
X5975Y2935D01*
D02*
G37*
G36*
X9740Y2891D02*
X9728Y2890D01*
X9717Y2886D01*
X9707Y2881D01*
X9697Y2873D01*
X9690Y2864D01*
X9684Y2854D01*
X9681Y2842D01*
X9680Y2830D01*
Y2580D01*
X9681Y2568D01*
X9684Y2557D01*
X9690Y2547D01*
X9697Y2537D01*
X9887Y2347D01*
X9897Y2340D01*
X9907Y2334D01*
X9918Y2331D01*
X9930Y2330D01*
X9942Y2331D01*
X9953Y2334D01*
X9963Y2340D01*
X9973Y2347D01*
X9980Y2357D01*
X9986Y2367D01*
X9989Y2378D01*
X9990Y2390D01*
X9989Y2402D01*
X9986Y2413D01*
X9980Y2423D01*
X9980Y2424D01*
Y2440D01*
X9966D01*
X9800Y2605D01*
Y2678D01*
X9805Y2680D01*
X9853Y2632D01*
X9853Y2632D01*
X9853Y2632D01*
Y2632D01*
X9853Y2632D01*
Y2632D01*
X9862Y2625D01*
X9872Y2619D01*
Y2619D01*
X9872D01*
Y2619D01*
D01*
D01*
D01*
X9872D01*
Y2619D01*
D01*
X9872Y2619D01*
X9872Y2619D01*
X9884Y2616D01*
X9895Y2615D01*
X10055D01*
X10067Y2616D01*
X10078Y2619D01*
X10088Y2625D01*
X10098Y2632D01*
X10105Y2642D01*
X10111Y2652D01*
X10114Y2663D01*
X10115Y2675D01*
X10114Y2687D01*
X10111Y2698D01*
X10105Y2708D01*
X10098Y2718D01*
X10088Y2725D01*
X10078Y2731D01*
X10067Y2734D01*
X10055Y2735D01*
X9920D01*
X9783Y2873D01*
X9773Y2881D01*
X9763Y2886D01*
X9752Y2890D01*
X9740Y2891D01*
D02*
G37*
G36*
X5933Y2822D02*
X5850D01*
Y2731D01*
X5933D01*
Y2741D01*
X6149D01*
X6259Y2631D01*
X6266Y2626D01*
X6274Y2622D01*
X6284Y2621D01*
X6315D01*
Y2615D01*
X6398D01*
Y2698D01*
X6315D01*
Y2692D01*
X6298D01*
X6189Y2801D01*
X6181Y2807D01*
X6173Y2810D01*
X6164Y2812D01*
X5933D01*
Y2822D01*
D02*
G37*
G36*
X2993Y2501D02*
X2983Y2500D01*
X2973Y2496D01*
X2965Y2489D01*
X2958Y2481D01*
X2954Y2471D01*
X2953Y2461D01*
X2954Y2451D01*
X2958Y2441D01*
X2965Y2433D01*
X2973Y2426D01*
X2983Y2423D01*
X2993Y2421D01*
X3003Y2423D01*
X3013Y2426D01*
X3021Y2433D01*
X3027Y2441D01*
X3031Y2451D01*
X3033Y2461D01*
X3031Y2471D01*
X3027Y2481D01*
X3021Y2489D01*
X3013Y2496D01*
X3003Y2500D01*
X2993Y2501D01*
D02*
G37*
G36*
X3518Y2368D02*
X3427D01*
Y2285D01*
X3518D01*
Y2306D01*
X3763D01*
X3766Y2301D01*
X3773Y2296D01*
X3782Y2292D01*
X3791Y2291D01*
X3800Y2292D01*
X3809Y2296D01*
X3816Y2301D01*
X3822Y2308D01*
X3825Y2317D01*
X3826Y2326D01*
X3825Y2335D01*
X3822Y2344D01*
X3816Y2351D01*
X3809Y2357D01*
X3800Y2360D01*
X3791Y2361D01*
X3782Y2360D01*
X3773Y2357D01*
X3766Y2351D01*
X3763Y2347D01*
X3518D01*
Y2368D01*
D02*
G37*
G36*
X5522Y2377D02*
X5512Y2376D01*
X5503Y2372D01*
X5494Y2365D01*
X5488Y2357D01*
X5484Y2347D01*
X5483Y2337D01*
X5484Y2327D01*
X5488Y2317D01*
X5494Y2309D01*
X5503Y2302D01*
X5512Y2298D01*
X5522Y2297D01*
X5533Y2298D01*
X5542Y2302D01*
X5551Y2309D01*
X5557Y2317D01*
X5561Y2327D01*
X5562Y2337D01*
X5561Y2347D01*
X5557Y2357D01*
X5551Y2365D01*
X5542Y2372D01*
X5533Y2376D01*
X5522Y2377D01*
D02*
G37*
G36*
X2393Y2401D02*
X2383Y2400D01*
X2373Y2396D01*
X2365Y2389D01*
X2358Y2381D01*
X2354Y2371D01*
X2353Y2361D01*
X2354Y2351D01*
X2358Y2341D01*
X2365Y2333D01*
X2373Y2326D01*
X2383Y2323D01*
X2393Y2321D01*
X2403Y2323D01*
X2413Y2326D01*
X2421Y2333D01*
X2427Y2341D01*
X2431Y2351D01*
X2433Y2361D01*
X2431Y2371D01*
X2427Y2381D01*
X2421Y2389D01*
X2413Y2396D01*
X2403Y2400D01*
X2393Y2401D01*
D02*
G37*
G36*
X6418Y2178D02*
X6335D01*
Y2161D01*
X6331Y2157D01*
X6059Y2160D01*
X6055Y2165D01*
X6048Y2171D01*
X6039Y2174D01*
X6030Y2175D01*
X6021Y2174D01*
X6012Y2171D01*
X6005Y2165D01*
X5999Y2158D01*
X5996Y2149D01*
X5995Y2140D01*
X5996Y2131D01*
X5999Y2122D01*
X6005Y2115D01*
X6012Y2109D01*
X6021Y2106D01*
X6030Y2105D01*
X6039Y2106D01*
X6048Y2109D01*
X6055Y2115D01*
X6058Y2119D01*
X6335Y2116D01*
Y2095D01*
X6418D01*
Y2178D01*
D02*
G37*
G36*
X2393Y2301D02*
X2383Y2300D01*
X2373Y2296D01*
X2365Y2289D01*
X2358Y2281D01*
X2354Y2271D01*
X2353Y2261D01*
X2354Y2251D01*
X2358Y2241D01*
X2365Y2233D01*
X2373Y2226D01*
X2383Y2223D01*
X2393Y2221D01*
X2403Y2223D01*
X2413Y2226D01*
X2421Y2233D01*
X2427Y2241D01*
X2431Y2251D01*
X2433Y2261D01*
X2431Y2271D01*
X2427Y2281D01*
X2421Y2289D01*
X2413Y2296D01*
X2403Y2300D01*
X2393Y2301D01*
D02*
G37*
G36*
X2993D02*
X2983Y2300D01*
X2973Y2296D01*
X2965Y2289D01*
X2958Y2281D01*
X2954Y2271D01*
X2953Y2261D01*
X2954Y2251D01*
X2958Y2241D01*
X2965Y2233D01*
X2973Y2226D01*
X2983Y2223D01*
X2993Y2221D01*
X3003Y2223D01*
X3013Y2226D01*
X3021Y2233D01*
X3027Y2241D01*
X3031Y2251D01*
X3033Y2261D01*
X3031Y2271D01*
X3027Y2281D01*
X3021Y2289D01*
X3013Y2296D01*
X3003Y2300D01*
X2993Y2301D01*
D02*
G37*
G36*
X5517Y2432D02*
X5483D01*
X5484Y2427D01*
X5488Y2417D01*
X5494Y2409D01*
X5503Y2402D01*
X5512Y2398D01*
X5517Y2398D01*
Y2432D01*
D02*
G37*
G36*
X5562D02*
X5527D01*
Y2398D01*
X5533Y2398D01*
X5542Y2402D01*
X5551Y2409D01*
X5557Y2417D01*
X5561Y2427D01*
X5562Y2432D01*
D02*
G37*
G36*
X2393Y2501D02*
X2383Y2500D01*
X2373Y2496D01*
X2365Y2489D01*
X2358Y2481D01*
X2354Y2471D01*
X2353Y2461D01*
X2354Y2451D01*
X2358Y2441D01*
X2365Y2433D01*
X2373Y2426D01*
X2383Y2423D01*
X2393Y2421D01*
X2403Y2423D01*
X2413Y2426D01*
X2421Y2433D01*
X2427Y2441D01*
X2431Y2451D01*
X2433Y2461D01*
X2431Y2471D01*
X2427Y2481D01*
X2421Y2489D01*
X2413Y2496D01*
X2403Y2500D01*
X2393Y2501D01*
D02*
G37*
G36*
X2993Y2401D02*
X2983Y2400D01*
X2973Y2396D01*
X2965Y2389D01*
X2958Y2381D01*
X2954Y2371D01*
X2953Y2361D01*
X2954Y2351D01*
X2958Y2341D01*
X2965Y2333D01*
X2973Y2326D01*
X2983Y2323D01*
X2993Y2321D01*
X3003Y2323D01*
X3013Y2326D01*
X3021Y2333D01*
X3027Y2341D01*
X3031Y2351D01*
X3033Y2361D01*
X3031Y2371D01*
X3027Y2381D01*
X3021Y2389D01*
X3013Y2396D01*
X3003Y2400D01*
X2993Y2401D01*
D02*
G37*
G36*
X5217Y2359D02*
X5173D01*
X5174Y2356D01*
X5177Y2349D01*
X5182Y2343D01*
X5188Y2338D01*
X5195Y2335D01*
X5203Y2334D01*
X5217D01*
Y2359D01*
D02*
G37*
G36*
X5271D02*
X5227D01*
Y2334D01*
X5242D01*
X5250Y2335D01*
X5257Y2338D01*
X5263Y2343D01*
X5268Y2349D01*
X5271Y2356D01*
X5271Y2359D01*
D02*
G37*
G36*
X5251Y3452D02*
X5208D01*
Y3427D01*
X5222D01*
X5230Y3428D01*
X5237Y3431D01*
X5243Y3436D01*
X5248Y3442D01*
X5251Y3449D01*
X5251Y3452D01*
D02*
G37*
G36*
X3300Y5333D02*
X3260D01*
Y5296D01*
X3300D01*
Y5333D01*
D02*
G37*
G36*
X3351D02*
X3310D01*
Y5296D01*
X3351D01*
Y5333D01*
D02*
G37*
G36*
X3700D02*
X3660D01*
Y5296D01*
X3700D01*
Y5333D01*
D02*
G37*
G36*
X3351Y5286D02*
X3310D01*
Y5250D01*
X3351D01*
Y5286D01*
D02*
G37*
G36*
X3700D02*
X3660D01*
Y5250D01*
X3700D01*
Y5286D01*
D02*
G37*
G36*
X3751D02*
X3710D01*
Y5250D01*
X3751D01*
Y5286D01*
D02*
G37*
G36*
X2815Y5345D02*
X2786D01*
X2786Y5341D01*
X2790Y5333D01*
X2795Y5326D01*
X2803Y5320D01*
X2811Y5317D01*
X2815Y5316D01*
Y5345D01*
D02*
G37*
G36*
X2854D02*
X2825D01*
Y5316D01*
X2829Y5317D01*
X2837Y5320D01*
X2845Y5326D01*
X2850Y5333D01*
X2854Y5341D01*
X2854Y5345D01*
D02*
G37*
G36*
X3500Y5401D02*
X3464D01*
X3465Y5395D01*
X3469Y5385D01*
X3476Y5377D01*
X3484Y5370D01*
X3494Y5366D01*
X3500Y5365D01*
Y5401D01*
D02*
G37*
G36*
X3751Y5333D02*
X3710D01*
Y5296D01*
X3751D01*
Y5333D01*
D02*
G37*
G36*
X4180Y5332D02*
X4151D01*
X4151Y5328D01*
X4155Y5319D01*
X4161Y5312D01*
X4168Y5307D01*
X4176Y5303D01*
X4180Y5303D01*
Y5332D01*
D02*
G37*
G36*
X4219D02*
X4190D01*
Y5303D01*
X4194Y5303D01*
X4203Y5307D01*
X4210Y5312D01*
X4215Y5319D01*
X4219Y5328D01*
X4219Y5332D01*
D02*
G37*
G36*
X3300Y5286D02*
X3260D01*
Y5250D01*
X3300D01*
Y5286D01*
D02*
G37*
G36*
X5541Y4687D02*
X5507D01*
Y4653D01*
X5513Y4654D01*
X5522Y4658D01*
X5530Y4664D01*
X5537Y4672D01*
X5541Y4682D01*
X5541Y4687D01*
D02*
G37*
G36*
X5797D02*
X5763D01*
X5764Y4682D01*
X5768Y4672D01*
X5774Y4664D01*
X5782Y4658D01*
X5792Y4654D01*
X5797Y4653D01*
Y4687D01*
D02*
G37*
G36*
X6553Y4714D02*
X6513D01*
Y4677D01*
X6553D01*
Y4714D01*
D02*
G37*
G36*
X5228Y4585D02*
X5184D01*
X5185Y4582D01*
X5188Y4575D01*
X5192Y4569D01*
X5199Y4564D01*
X5206Y4561D01*
X5214Y4560D01*
X5228D01*
Y4585D01*
D02*
G37*
G36*
X5282D02*
X5238D01*
Y4560D01*
X5253D01*
X5261Y4561D01*
X5268Y4564D01*
X5274Y4569D01*
X5279Y4575D01*
X5282Y4582D01*
X5282Y4585D01*
D02*
G37*
G36*
X5497Y4687D02*
X5463D01*
X5464Y4682D01*
X5468Y4672D01*
X5474Y4664D01*
X5482Y4658D01*
X5492Y4654D01*
X5497Y4653D01*
Y4687D01*
D02*
G37*
G36*
X5542Y4832D02*
X5463D01*
Y4799D01*
X5286D01*
Y4821D01*
X5195D01*
Y4738D01*
X5213D01*
Y4720D01*
X5206Y4719D01*
X5199Y4716D01*
X5192Y4711D01*
X5188Y4705D01*
X5185Y4697D01*
X5184Y4690D01*
X5185Y4682D01*
X5188Y4675D01*
X5192Y4669D01*
X5194Y4667D01*
Y4662D01*
X5192Y4661D01*
X5192Y4660D01*
X5129D01*
Y4682D01*
X5038D01*
Y4599D01*
X5129D01*
Y4619D01*
X5192D01*
X5192Y4619D01*
X5194Y4617D01*
Y4612D01*
X5192Y4611D01*
X5188Y4605D01*
X5185Y4597D01*
X5184Y4595D01*
X5282D01*
X5282Y4597D01*
X5279Y4605D01*
X5274Y4611D01*
X5272Y4612D01*
Y4617D01*
X5274Y4619D01*
X5279Y4625D01*
X5282Y4632D01*
X5283Y4640D01*
X5282Y4647D01*
X5279Y4655D01*
X5274Y4661D01*
X5272Y4662D01*
Y4667D01*
X5274Y4669D01*
X5279Y4675D01*
X5282Y4682D01*
X5283Y4690D01*
X5282Y4697D01*
X5279Y4705D01*
X5274Y4711D01*
X5268Y4716D01*
X5261Y4719D01*
X5254Y4720D01*
Y4738D01*
X5286D01*
Y4759D01*
X5463D01*
Y4753D01*
X5542D01*
Y4832D01*
D02*
G37*
G36*
X4969Y6605D02*
X4956Y6604D01*
X4944Y6600D01*
X4933Y6594D01*
X4923Y6586D01*
X4915Y6576D01*
X4914Y6575D01*
X4675D01*
X4666Y6574D01*
X4657Y6571D01*
X4650Y6565D01*
X4470Y6385D01*
X4464Y6378D01*
X4461Y6369D01*
X4460Y6360D01*
Y5660D01*
X4231Y5431D01*
X4198D01*
X4197Y5432D01*
X4189Y5436D01*
X4180Y5437D01*
X3751D01*
Y5443D01*
X3660D01*
Y5442D01*
X3627D01*
X3626Y5443D01*
X3616Y5447D01*
X3605Y5448D01*
X3594Y5447D01*
X3584Y5443D01*
X3576Y5436D01*
X3569Y5427D01*
X3565Y5417D01*
X3563Y5406D01*
X3565Y5395D01*
X3569Y5385D01*
X3576Y5377D01*
X3584Y5370D01*
X3594Y5366D01*
X3605Y5364D01*
X3616Y5366D01*
X3626Y5370D01*
X3627Y5371D01*
X3660D01*
Y5360D01*
X3751D01*
Y5366D01*
X3881D01*
X3883Y5361D01*
X3776Y5254D01*
X3771Y5248D01*
X3770Y5240D01*
Y2718D01*
X3765Y2715D01*
X3759Y2708D01*
X3756Y2699D01*
X3755Y2690D01*
X3756Y2681D01*
X3759Y2672D01*
X3765Y2665D01*
X3772Y2659D01*
X3781Y2656D01*
X3790Y2655D01*
X3799Y2656D01*
X3808Y2659D01*
X3815Y2665D01*
X3821Y2672D01*
X3824Y2681D01*
X3825Y2690D01*
X3824Y2699D01*
X3821Y2708D01*
X3815Y2715D01*
X3810Y2718D01*
Y5232D01*
X3945Y5366D01*
X4151D01*
Y5361D01*
X4155D01*
X4157Y5357D01*
X4155Y5354D01*
X4151Y5346D01*
X4151Y5342D01*
X4219D01*
X4219Y5346D01*
X4215Y5354D01*
X4214Y5356D01*
X4216Y5361D01*
X4246D01*
X4255Y5362D01*
X4263Y5365D01*
X4271Y5371D01*
Y5371D01*
X4271D01*
D01*
D01*
D01*
D01*
D01*
D01*
X4271D01*
D01*
X4271D01*
Y5371D01*
D01*
D01*
D01*
D01*
Y5371D01*
D01*
D01*
D01*
D01*
D01*
D01*
Y5371D01*
D01*
D01*
X4271D01*
D01*
D01*
D01*
X4520Y5620D01*
X4526Y5627D01*
X4529Y5636D01*
X4530Y5645D01*
D01*
D01*
D01*
D01*
D01*
X4530D01*
D01*
D01*
D01*
D01*
Y5645D01*
X4530D01*
D01*
Y5645D01*
D01*
D01*
D01*
D01*
D01*
D01*
D01*
D01*
D01*
D01*
D01*
D01*
Y5645D01*
D01*
X4530D01*
D01*
D01*
D01*
D01*
X4530Y5645D01*
Y6345D01*
X4690Y6505D01*
X4914D01*
X4915Y6504D01*
X4923Y6494D01*
X4933Y6486D01*
X4944Y6480D01*
X4956Y6476D01*
X4969Y6475D01*
X4982Y6476D01*
X4994Y6480D01*
X5005Y6486D01*
X5015Y6494D01*
X5024Y6504D01*
X5024Y6505D01*
X5124D01*
X5267Y6362D01*
X5267Y6362D01*
X5409Y6220D01*
X5407Y6215D01*
X5195D01*
X5186Y6214D01*
X5177Y6211D01*
X5170Y6205D01*
X5070Y6105D01*
X5064Y6097D01*
X5061Y6089D01*
X5060Y6080D01*
Y6061D01*
X5053D01*
Y5970D01*
X5136D01*
Y6061D01*
X5132D01*
X5130Y6065D01*
X5210Y6145D01*
X5484D01*
X5566Y6062D01*
Y5184D01*
X5292Y4910D01*
X5286D01*
Y4931D01*
X5195D01*
Y4848D01*
X5286D01*
Y4869D01*
X5301D01*
X5309Y4870D01*
X5315Y4875D01*
X5562Y5121D01*
X5566Y5119D01*
Y4203D01*
X5566Y4203D01*
X5566D01*
X5567Y4194D01*
X5571Y4186D01*
X5577Y4178D01*
X5595Y4160D01*
X5593Y4155D01*
X5405D01*
X5396Y4154D01*
X5387Y4151D01*
X5380Y4145D01*
X5060Y3825D01*
X5054Y3818D01*
X5051Y3809D01*
X5050Y3800D01*
Y3705D01*
X5043D01*
Y3615D01*
X5126D01*
Y3705D01*
X5120D01*
Y3785D01*
X5420Y4085D01*
X5638D01*
X5640Y4080D01*
X5585Y4025D01*
X5579Y4018D01*
X5576Y4009D01*
X5575Y4000D01*
Y3037D01*
X5571Y3034D01*
X5237Y2701D01*
X5177D01*
Y2618D01*
X5268D01*
Y2674D01*
X5570Y2976D01*
X5575Y2974D01*
Y2240D01*
X5090Y1755D01*
X5024D01*
X5024Y1756D01*
X5015Y1766D01*
X5005Y1774D01*
X4994Y1780D01*
X4982Y1784D01*
X4969Y1785D01*
X4956Y1784D01*
X4944Y1780D01*
X4933Y1774D01*
X4923Y1766D01*
X4915Y1756D01*
X4909Y1745D01*
X4905Y1733D01*
X4904Y1720D01*
X4905Y1707D01*
X4909Y1695D01*
X4915Y1684D01*
X4923Y1674D01*
X4933Y1666D01*
X4944Y1660D01*
X4956Y1656D01*
X4969Y1655D01*
X4982Y1656D01*
X4994Y1660D01*
X5005Y1666D01*
X5015Y1674D01*
X5024Y1684D01*
X5024Y1685D01*
X5105D01*
X5114Y1686D01*
X5123Y1689D01*
X5130Y1695D01*
X5635Y2200D01*
X5635Y2200D01*
X5641Y2207D01*
X5644Y2216D01*
X5645Y2225D01*
Y3985D01*
X5732Y4073D01*
X5738Y4080D01*
X5740Y4085D01*
X6380D01*
X6404Y4062D01*
X6402Y4057D01*
X6324D01*
Y4050D01*
X6075D01*
X6066Y4049D01*
X6057Y4046D01*
X6050Y4040D01*
X5909Y3899D01*
X5873D01*
Y3909D01*
X5790D01*
Y3818D01*
X5873D01*
Y3828D01*
X5923D01*
X5932Y3829D01*
X5941Y3833D01*
X5948Y3838D01*
X6090Y3980D01*
X6324D01*
Y3974D01*
X6407D01*
Y4052D01*
X6411Y4054D01*
X6429Y4036D01*
X6425Y4026D01*
X6424Y4015D01*
X6425Y4005D01*
X6429Y3995D01*
X6430Y3993D01*
Y3957D01*
X6272Y3799D01*
X5873D01*
Y3809D01*
X5790D01*
Y3718D01*
X5805D01*
Y3685D01*
X5783Y3664D01*
X5776Y3661D01*
X5767Y3654D01*
X5761Y3646D01*
X5757Y3636D01*
X5756Y3626D01*
X5757Y3616D01*
X5761Y3606D01*
X5767Y3598D01*
X5776Y3591D01*
X5785Y3587D01*
X5796Y3586D01*
X5806Y3587D01*
X5816Y3591D01*
X5824Y3598D01*
X5830Y3606D01*
X5833Y3614D01*
X5865Y3645D01*
X5871Y3653D01*
X5874Y3661D01*
X5875Y3670D01*
Y3728D01*
X6287D01*
X6296Y3729D01*
X6304Y3733D01*
X6312Y3738D01*
Y3738D01*
X6312D01*
D01*
D01*
D01*
D01*
D01*
D01*
X6312D01*
D01*
X6312D01*
Y3738D01*
D01*
D01*
D01*
D01*
Y3738D01*
D01*
D01*
D01*
D01*
D01*
D01*
Y3738D01*
D01*
D01*
X6312D01*
D01*
D01*
D01*
X6425Y3852D01*
X6430Y3850D01*
Y3800D01*
X6429Y3799D01*
X6410D01*
Y3771D01*
X6410Y3765D01*
Y3765D01*
X6410Y3760D01*
Y3730D01*
X6414D01*
X6417Y3726D01*
X6415Y3723D01*
X6411Y3715D01*
X6411Y3711D01*
X6445D01*
Y3701D01*
X6411D01*
X6410Y3705D01*
X6360Y3655D01*
X6185D01*
X6176Y3654D01*
X6167Y3651D01*
X6160Y3645D01*
X6075Y3560D01*
X5816D01*
X5816Y3561D01*
X5806Y3564D01*
X5801Y3565D01*
Y3526D01*
Y3487D01*
X5806Y3487D01*
X5811Y3490D01*
X6090D01*
X6099Y3491D01*
X6108Y3494D01*
X6115Y3500D01*
X6200Y3585D01*
X6375D01*
X6384Y3586D01*
X6393Y3589D01*
X6400Y3595D01*
X6451Y3646D01*
X6460Y3645D01*
X6499D01*
Y3639D01*
X6499Y3639D01*
X6499D01*
X6501Y3636D01*
X6460Y3595D01*
X6455Y3588D01*
X6451Y3579D01*
X6450Y3570D01*
Y3458D01*
X6449Y3456D01*
X6445Y3446D01*
X6444Y3440D01*
X6527D01*
X6526Y3446D01*
X6522Y3456D01*
X6521Y3458D01*
Y3556D01*
X6570Y3605D01*
X6575Y3612D01*
X6579Y3621D01*
X6580Y3630D01*
D01*
D01*
D01*
D01*
D01*
X6580D01*
D01*
D01*
D01*
D01*
Y3630D01*
X6580D01*
D01*
Y3630D01*
D01*
D01*
D01*
D01*
D01*
D01*
D01*
D01*
D01*
D01*
D01*
D01*
Y3630D01*
D01*
X6580D01*
D01*
D01*
D01*
D01*
X6580Y3630D01*
Y3639D01*
X6590D01*
Y3675D01*
X6545D01*
Y3680D01*
X6540D01*
Y3722D01*
X6499D01*
Y3715D01*
X6478D01*
X6475Y3723D01*
X6473Y3726D01*
X6475Y3730D01*
X6479D01*
Y3750D01*
X6485Y3755D01*
X6499D01*
Y3749D01*
X6590D01*
Y3832D01*
X6501D01*
Y3934D01*
X6501Y3934D01*
X6502Y3943D01*
X6501Y3953D01*
X6501Y3953D01*
Y3993D01*
X6502Y3995D01*
X6506Y4005D01*
X6507Y4015D01*
X6506Y4026D01*
X6502Y4036D01*
X6501Y4038D01*
Y4045D01*
X6500Y4047D01*
X6501Y4050D01*
X6499Y4059D01*
X6496Y4067D01*
X6490Y4075D01*
X6420Y4145D01*
X6413Y4151D01*
X6404Y4154D01*
X6395Y4155D01*
X5700D01*
X5637Y4218D01*
Y5322D01*
X5642Y5324D01*
X5760Y5205D01*
X5760Y5205D01*
X5760D01*
X5760Y5205D01*
X5760D01*
X5760Y5205D01*
Y5205D01*
Y5205D01*
D01*
D01*
X5760D01*
Y5205D01*
X5767Y5199D01*
X5776Y5196D01*
X5785Y5195D01*
X6335D01*
X6412Y5118D01*
Y5070D01*
X6411Y5068D01*
X6407Y5058D01*
X6406Y5048D01*
X6407Y5037D01*
X6411Y5027D01*
X6412Y5025D01*
Y4907D01*
X6333Y4828D01*
X6063D01*
X5868Y4999D01*
Y5030D01*
X5785D01*
Y4939D01*
X5830D01*
X5951Y4832D01*
X5949Y4828D01*
X5820D01*
X5813Y4831D01*
X5802Y4832D01*
X5792Y4831D01*
X5782Y4827D01*
X5774Y4820D01*
X5768Y4812D01*
X5764Y4803D01*
X5762Y4792D01*
X5764Y4782D01*
X5768Y4772D01*
X5774Y4764D01*
X5782Y4758D01*
X5792Y4754D01*
X5802Y4752D01*
X5813Y4754D01*
X5820Y4757D01*
X6347D01*
X6349Y4757D01*
X6353Y4754D01*
Y4728D01*
X5820D01*
X5813Y4731D01*
X5807Y4731D01*
Y4692D01*
Y4653D01*
X5813Y4654D01*
X5820Y4657D01*
X6378D01*
X6400Y4635D01*
X6408Y4629D01*
X6416Y4626D01*
X6425Y4625D01*
X6448D01*
X6450Y4620D01*
X6443Y4613D01*
X6437Y4605D01*
X6434Y4597D01*
X6432Y4588D01*
Y4510D01*
X6431Y4508D01*
X6427Y4498D01*
X6427Y4493D01*
X6509D01*
X6508Y4498D01*
X6504Y4508D01*
X6503Y4510D01*
Y4573D01*
X6533Y4603D01*
X6538Y4610D01*
X6542Y4619D01*
X6543Y4628D01*
Y4631D01*
X6553D01*
Y4667D01*
X6508D01*
Y4672D01*
X6503D01*
Y4714D01*
X6462D01*
Y4695D01*
X6440D01*
X6414Y4721D01*
X6415Y4722D01*
X6422D01*
Y4752D01*
X6424Y4756D01*
X6425Y4765D01*
Y4809D01*
X6430Y4811D01*
X6462Y4778D01*
Y4741D01*
X6553D01*
Y4824D01*
X6516D01*
X6483Y4857D01*
Y5025D01*
X6484Y5027D01*
X6488Y5037D01*
X6490Y5048D01*
X6488Y5058D01*
X6484Y5068D01*
X6483Y5070D01*
Y5132D01*
X6482Y5141D01*
X6478Y5150D01*
X6473Y5157D01*
X6375Y5255D01*
X6368Y5261D01*
X6359Y5264D01*
X6350Y5265D01*
X5800D01*
X5640Y5425D01*
X5637Y5427D01*
Y6077D01*
X5636Y6086D01*
X5632Y6095D01*
X5627Y6102D01*
X5309Y6419D01*
X5309Y6419D01*
X5164Y6565D01*
X5156Y6571D01*
X5148Y6574D01*
X5139Y6575D01*
X5024D01*
X5024Y6576D01*
X5015Y6586D01*
X5005Y6594D01*
X4994Y6600D01*
X4982Y6604D01*
X4969Y6605D01*
D02*
G37*
G36*
X5868Y5130D02*
X5785D01*
Y5039D01*
X5868D01*
Y5049D01*
X6166D01*
X6192Y5023D01*
X6200Y5017D01*
X6208Y5013D01*
X6217Y5012D01*
X6306D01*
Y5006D01*
X6389D01*
Y5089D01*
X6306D01*
Y5083D01*
X6232D01*
X6206Y5109D01*
X6198Y5115D01*
X6190Y5118D01*
X6181Y5120D01*
X5868D01*
Y5130D01*
D02*
G37*
G36*
X5497Y4731D02*
X5492Y4731D01*
X5482Y4727D01*
X5474Y4720D01*
X5468Y4712D01*
X5464Y4703D01*
X5463Y4697D01*
X5497D01*
Y4731D01*
D02*
G37*
G36*
X5507D02*
Y4697D01*
X5541D01*
X5541Y4703D01*
X5537Y4712D01*
X5530Y4720D01*
X5522Y4727D01*
X5513Y4731D01*
X5507Y4731D01*
D02*
G37*
G36*
X5797D02*
X5792Y4731D01*
X5782Y4727D01*
X5774Y4720D01*
X5768Y4712D01*
X5764Y4703D01*
X5763Y4697D01*
X5797D01*
Y4731D01*
D02*
G37*
G36*
X12345Y6095D02*
X12242D01*
Y5992D01*
X12254Y5993D01*
X12270Y5997D01*
X12286Y6003D01*
X12301Y6012D01*
X12313Y6023D01*
X12324Y6036D01*
X12333Y6051D01*
X12340Y6067D01*
X12344Y6083D01*
X12345Y6095D01*
D02*
G37*
G36*
X5776Y6605D02*
X5646D01*
Y6475D01*
X5776D01*
Y6495D01*
X6290D01*
X6371Y6414D01*
Y6271D01*
X6371Y6270D01*
X6366Y6260D01*
X6365Y6249D01*
X6365Y6247D01*
X6365Y6242D01*
Y6027D01*
X6353Y6015D01*
X6020D01*
X5873Y6162D01*
X5872Y6163D01*
Y6183D01*
X5789D01*
Y6092D01*
X5843D01*
X5915Y6020D01*
X5913Y6015D01*
X5828D01*
X5820Y6019D01*
X5810Y6020D01*
X5800Y6019D01*
X5790Y6015D01*
X5782Y6008D01*
X5776Y6000D01*
X5772Y5990D01*
X5770Y5980D01*
X5772Y5970D01*
X5776Y5960D01*
X5782Y5952D01*
X5790Y5945D01*
X5800Y5941D01*
X5810Y5940D01*
X5820Y5941D01*
X5828Y5945D01*
X6332D01*
Y5944D01*
X6336D01*
X6338Y5940D01*
X6337Y5937D01*
X6315Y5915D01*
X5828D01*
X5820Y5919D01*
X5810Y5920D01*
X5800Y5919D01*
X5790Y5915D01*
X5782Y5908D01*
X5776Y5900D01*
X5772Y5890D01*
X5770Y5880D01*
X5772Y5870D01*
X5776Y5860D01*
X5782Y5852D01*
X5790Y5845D01*
X5800Y5841D01*
X5810Y5840D01*
X5820Y5841D01*
X5828Y5845D01*
X6329D01*
X6339Y5846D01*
X6347Y5849D01*
X6354Y5855D01*
Y5855D01*
X6354D01*
D01*
D01*
D01*
D01*
D01*
D01*
X6354D01*
D01*
X6354D01*
Y5855D01*
D01*
D01*
D01*
D01*
Y5855D01*
D01*
D01*
D01*
D01*
D01*
D01*
Y5855D01*
D01*
D01*
X6354D01*
D01*
D01*
D01*
X6365Y5865D01*
X6371Y5859D01*
Y5691D01*
X6371Y5690D01*
X6366Y5680D01*
X6365Y5669D01*
X6366Y5658D01*
X6371Y5648D01*
X6371Y5647D01*
Y5548D01*
X6371Y5548D01*
X6371D01*
X6373Y5539D01*
X6376Y5531D01*
X6382Y5523D01*
X6570Y5335D01*
X6577Y5329D01*
X6586Y5326D01*
X6595Y5325D01*
X7955D01*
X8841Y4439D01*
X8849Y4433D01*
X8857Y4430D01*
X8866Y4428D01*
X8866Y4428D01*
X9240D01*
Y4355D01*
X9241Y4351D01*
X9243Y4348D01*
X9246Y4346D01*
X9250Y4345D01*
X9435D01*
X9437Y4340D01*
X9446Y4325D01*
X9457Y4312D01*
X9620Y4149D01*
Y3851D01*
X9437Y3668D01*
X9426Y3655D01*
X9423Y3650D01*
X9403D01*
Y3710D01*
X9370D01*
X9340Y3740D01*
X9333Y3746D01*
X9325Y3749D01*
X9315Y3750D01*
X8375D01*
X7605Y4520D01*
X7598Y4526D01*
X7589Y4529D01*
X7580Y4530D01*
X6603D01*
Y4553D01*
X6675Y4625D01*
X6681Y4632D01*
X6684Y4641D01*
X6685Y4650D01*
D01*
D01*
D01*
D01*
D01*
X6685D01*
D01*
D01*
D01*
D01*
Y4650D01*
X6685D01*
D01*
Y4650D01*
D01*
D01*
D01*
D01*
D01*
D01*
D01*
D01*
D01*
D01*
D01*
D01*
Y4650D01*
D01*
X6685D01*
D01*
D01*
D01*
D01*
X6685Y4650D01*
Y4850D01*
X6684Y4859D01*
X6681Y4868D01*
X6675Y4875D01*
X6675Y4875D01*
D01*
D01*
D01*
D01*
X6675Y4875D01*
D01*
D01*
X6675D01*
X6583Y4967D01*
Y5025D01*
X6584Y5027D01*
X6588Y5037D01*
X6590Y5048D01*
X6588Y5058D01*
X6584Y5068D01*
X6577Y5077D01*
X6569Y5084D01*
X6559Y5088D01*
X6548Y5089D01*
X6537Y5088D01*
X6527Y5084D01*
X6518Y5077D01*
X6511Y5068D01*
X6507Y5058D01*
X6506Y5048D01*
X6507Y5037D01*
X6511Y5027D01*
X6512Y5025D01*
Y4952D01*
X6512Y4952D01*
X6512D01*
X6514Y4943D01*
X6517Y4935D01*
X6523Y4927D01*
X6615Y4835D01*
Y4665D01*
X6543Y4593D01*
X6537Y4585D01*
X6534Y4577D01*
X6532Y4568D01*
Y4510D01*
X6531Y4508D01*
X6527Y4498D01*
X6526Y4488D01*
X6527Y4477D01*
X6531Y4467D01*
X6538Y4458D01*
X6547Y4451D01*
X6557Y4447D01*
X6568Y4446D01*
X6579Y4447D01*
X6589Y4451D01*
X6597Y4458D01*
X6599Y4460D01*
X7565D01*
X8335Y3690D01*
X8335Y3690D01*
X8335D01*
X8335Y3690D01*
X8335D01*
X8335Y3690D01*
Y3690D01*
Y3690D01*
D01*
D01*
X8335D01*
Y3690D01*
X8342Y3684D01*
X8351Y3681D01*
X8360Y3680D01*
X9301D01*
X9320Y3660D01*
Y3650D01*
X9289D01*
X9282Y3657D01*
X9279Y3659D01*
X9275Y3660D01*
X9271Y3659D01*
X9268Y3657D01*
X9263Y3652D01*
X9261Y3649D01*
X9260Y3645D01*
Y3490D01*
X9261Y3486D01*
X9263Y3483D01*
X9266Y3481D01*
X9270Y3480D01*
X9318D01*
X9321Y3476D01*
X9321Y3474D01*
X9403D01*
X9402Y3479D01*
X9402Y3480D01*
X9513D01*
X9515Y3480D01*
X9517Y3480D01*
X9570D01*
X9574Y3481D01*
X9577Y3483D01*
X9582Y3488D01*
X9584Y3491D01*
X9585Y3495D01*
X9584Y3499D01*
X9582Y3502D01*
X9582Y3503D01*
X9593Y3512D01*
X9670Y3589D01*
X9675Y3587D01*
Y3170D01*
X9676Y3158D01*
X9679Y3147D01*
X9685Y3137D01*
X9692Y3127D01*
X9702Y3120D01*
X9712Y3114D01*
X9723Y3111D01*
X9735Y3110D01*
X9747Y3111D01*
X9758Y3114D01*
X9768Y3120D01*
X9778Y3127D01*
X9785Y3137D01*
X9791Y3147D01*
X9794Y3158D01*
X9795Y3170D01*
Y3714D01*
X9808Y3727D01*
X9819Y3740D01*
X9828Y3755D01*
X9833Y3766D01*
X9835Y3771D01*
X9839Y3788D01*
X9840Y3805D01*
Y4195D01*
X9839Y4212D01*
X9835Y4229D01*
X9831Y4238D01*
X9828Y4245D01*
X9819Y4260D01*
X9808Y4273D01*
X9613Y4468D01*
X9600Y4479D01*
X9585Y4488D01*
X9569Y4495D01*
X9560Y4497D01*
Y4505D01*
X9559Y4509D01*
X9557Y4512D01*
X9554Y4514D01*
X9550Y4515D01*
X9552Y4517D01*
X9626D01*
X9638Y4509D01*
X9653Y4502D01*
X9670Y4497D01*
X9687Y4495D01*
X9704Y4496D01*
X9721Y4499D01*
X9738Y4505D01*
X9753Y4513D01*
X9758Y4517D01*
X9843D01*
X9846Y4518D01*
X9850Y4520D01*
X9852Y4524D01*
X9853Y4528D01*
Y4629D01*
X10058Y4886D01*
X10063Y4886D01*
X10433Y4516D01*
Y4473D01*
X10434Y4469D01*
X10436Y4466D01*
X10439Y4464D01*
X10443Y4463D01*
X10640D01*
X10642Y4458D01*
X10462Y4278D01*
X10451Y4265D01*
X10442Y4250D01*
X10437Y4239D01*
X10435Y4234D01*
X10431Y4217D01*
X10430Y4200D01*
Y3765D01*
X10431Y3748D01*
X10435Y3731D01*
X10437Y3726D01*
X10442Y3715D01*
X10451Y3700D01*
X10462Y3687D01*
X10480Y3669D01*
Y3480D01*
X10197Y3198D01*
X10190Y3188D01*
X10184Y3178D01*
X10181Y3167D01*
X10180Y3155D01*
Y2125D01*
X10181Y2113D01*
X10184Y2102D01*
X10190Y2092D01*
X10197Y2082D01*
X10207Y2075D01*
X10217Y2069D01*
X10228Y2066D01*
X10240Y2065D01*
X10252Y2066D01*
X10263Y2069D01*
X10273Y2075D01*
X10283Y2082D01*
X10290Y2092D01*
X10296Y2102D01*
X10299Y2113D01*
X10300Y2125D01*
Y3130D01*
X10583Y3412D01*
Y3412D01*
D01*
D01*
D01*
X10583Y3412D01*
D01*
Y3412D01*
D01*
X10583D01*
Y3412D01*
D01*
Y3412D01*
Y3412D01*
X10583D01*
D01*
D01*
Y3412D01*
D01*
D01*
D01*
D01*
D01*
D01*
Y3412D01*
D01*
D01*
X10583D01*
D01*
X10583Y3412D01*
D01*
D01*
X10590Y3422D01*
X10596Y3432D01*
Y3432D01*
X10596D01*
D01*
D01*
D01*
D01*
X10596D01*
D01*
D01*
D01*
D01*
Y3432D01*
X10596D01*
D01*
Y3432D01*
D01*
D01*
D01*
D01*
D01*
D01*
D01*
D01*
D01*
D01*
D01*
D01*
Y3432D01*
D01*
X10596D01*
D01*
D01*
D01*
D01*
X10596Y3432D01*
X10599Y3443D01*
X10600Y3455D01*
X10600Y3455D01*
Y3542D01*
X10605Y3544D01*
X10655Y3494D01*
Y3494D01*
X10655Y3492D01*
X10655Y3491D01*
X10655Y3490D01*
X10655Y3490D01*
X10656Y3489D01*
X10657Y3487D01*
X10675Y3467D01*
X10675Y3467D01*
X10675Y3466D01*
X10676Y3466D01*
X10678Y3465D01*
X10678Y3464D01*
X10678Y3464D01*
X10680Y3464D01*
X10682Y3463D01*
X10682Y3464D01*
X10682Y3463D01*
X10687Y3463D01*
X10688Y3464D01*
X10688Y3463D01*
X10690Y3464D01*
X10691Y3464D01*
X10692Y3464D01*
X10692Y3465D01*
X10693Y3465D01*
X10706Y3460D01*
X10723Y3456D01*
X10740Y3455D01*
X10757Y3456D01*
X10774Y3460D01*
X10789Y3466D01*
X10894D01*
X10897Y3462D01*
X10896Y3462D01*
X10896Y3456D01*
X10978D01*
X10977Y3462D01*
X10977Y3462D01*
X10980Y3466D01*
X11040D01*
X11044Y3467D01*
X11047Y3469D01*
X11049Y3473D01*
X11050Y3477D01*
Y3606D01*
X11050Y3606D01*
X11051Y3607D01*
X11051Y3607D01*
X11051Y3608D01*
X11052Y3609D01*
X11052Y3610D01*
X11052Y3611D01*
X11052Y3612D01*
X11052Y3613D01*
X11052Y3614D01*
X11050Y3619D01*
X11050Y3620D01*
X11050Y3621D01*
X11205D01*
X11345Y3480D01*
Y2735D01*
X10605Y1995D01*
X8555D01*
X6700Y3850D01*
Y3930D01*
X6699Y3939D01*
X6696Y3948D01*
X6690Y3955D01*
X6690Y3955D01*
D01*
D01*
D01*
D01*
X6690Y3955D01*
D01*
D01*
X6690D01*
X6595Y4050D01*
X6588Y4056D01*
X6579Y4059D01*
X6570Y4060D01*
X6560D01*
X6551Y4059D01*
X6542Y4056D01*
X6535Y4050D01*
X6529Y4043D01*
X6526Y4034D01*
X6525Y4025D01*
X6525Y4025D01*
X6523Y4015D01*
X6525Y4005D01*
X6529Y3995D01*
X6536Y3986D01*
X6544Y3979D01*
X6555Y3975D01*
X6565Y3974D01*
X6571Y3974D01*
X6630Y3915D01*
Y3630D01*
X6560Y3560D01*
X6555Y3553D01*
X6551Y3544D01*
X6550Y3535D01*
Y3458D01*
X6549Y3456D01*
X6545Y3446D01*
X6543Y3435D01*
X6545Y3425D01*
X6549Y3415D01*
X6556Y3406D01*
X6564Y3399D01*
X6575Y3395D01*
X6585Y3394D01*
X6596Y3395D01*
X6606Y3399D01*
X6615Y3406D01*
X6622Y3415D01*
X6626Y3425D01*
X6627Y3435D01*
X6626Y3446D01*
X6622Y3456D01*
X6621Y3458D01*
Y3521D01*
X6690Y3590D01*
X6696Y3597D01*
X6699Y3606D01*
X6700Y3615D01*
D01*
D01*
D01*
D01*
D01*
X6700D01*
D01*
D01*
D01*
D01*
Y3615D01*
X6700D01*
D01*
Y3615D01*
D01*
D01*
D01*
D01*
D01*
D01*
D01*
D01*
D01*
D01*
D01*
D01*
Y3615D01*
D01*
X6700D01*
D01*
D01*
D01*
D01*
X6700Y3615D01*
Y3743D01*
X6705Y3745D01*
X8515Y1935D01*
X8515Y1935D01*
X8515D01*
X8515Y1935D01*
X8515D01*
X8515Y1935D01*
Y1935D01*
Y1935D01*
D01*
D01*
X8515D01*
Y1935D01*
X8522Y1929D01*
X8531Y1926D01*
X8540Y1925D01*
X10620D01*
X10629Y1926D01*
X10638Y1929D01*
X10645Y1935D01*
X11405Y2695D01*
X11411Y2702D01*
X11414Y2711D01*
X11415Y2720D01*
D01*
D01*
D01*
D01*
D01*
X11415D01*
D01*
D01*
D01*
D01*
Y2720D01*
X11415D01*
D01*
Y2720D01*
D01*
D01*
D01*
D01*
D01*
D01*
D01*
D01*
D01*
D01*
D01*
D01*
Y2720D01*
D01*
X11415D01*
D01*
D01*
D01*
D01*
X11415Y2720D01*
Y3495D01*
X11414Y3504D01*
X11411Y3513D01*
X11405Y3520D01*
X11405Y3520D01*
D01*
D01*
D01*
D01*
X11405Y3520D01*
D01*
D01*
X11405D01*
X11244Y3681D01*
X11237Y3686D01*
X11228Y3690D01*
X11219Y3691D01*
X10978D01*
Y3693D01*
X10895D01*
Y3625D01*
X10832D01*
X10829Y3630D01*
X10818Y3643D01*
X10650Y3811D01*
Y4154D01*
X10801Y4304D01*
X10812Y4318D01*
X10821Y4332D01*
X10822Y4336D01*
X11060D01*
X11064Y4336D01*
X11067Y4339D01*
X11069Y4342D01*
X11070Y4346D01*
Y4475D01*
X11070Y4475D01*
X11071Y4476D01*
X11071Y4477D01*
X11072Y4478D01*
X11072Y4479D01*
X11072Y4480D01*
X11072Y4481D01*
X11072Y4481D01*
X11072Y4483D01*
X11072Y4484D01*
X11070Y4488D01*
X11070Y4489D01*
X11069Y4490D01*
X11069Y4491D01*
X11068Y4492D01*
X11068Y4493D01*
X11067Y4493D01*
X11066Y4494D01*
X11065Y4494D01*
X11064Y4495D01*
X11063Y4495D01*
X11048Y4500D01*
X11046Y4500D01*
X11044Y4500D01*
X11044Y4500D01*
X11044Y4500D01*
X11042Y4500D01*
X11040Y4499D01*
X11040Y4499D01*
X11040Y4499D01*
X11039Y4498D01*
X11037Y4497D01*
X11035Y4494D01*
X11018D01*
X11015Y4498D01*
X11015Y4500D01*
Y4590D01*
X11014Y4594D01*
X11012Y4597D01*
X11009Y4599D01*
X11005Y4600D01*
Y4615D01*
X11655D01*
X11845Y4425D01*
Y2820D01*
X10675Y1650D01*
X7635D01*
X6753Y2532D01*
X6751Y2538D01*
X6745Y2545D01*
X6610Y2680D01*
X6603Y2686D01*
X6594Y2689D01*
X6585Y2690D01*
X6580D01*
X6577Y2693D01*
X6567Y2697D01*
X6556Y2698D01*
X6545Y2697D01*
X6535Y2693D01*
X6527Y2686D01*
X6520Y2677D01*
X6516Y2667D01*
X6514Y2656D01*
X6516Y2646D01*
X6520Y2635D01*
X6527Y2627D01*
X6535Y2620D01*
X6545Y2616D01*
X6556Y2615D01*
X6567Y2616D01*
X6572Y2618D01*
X6685Y2505D01*
Y2280D01*
X6582Y2177D01*
X6576Y2178D01*
X6565Y2177D01*
X6555Y2173D01*
X6547Y2166D01*
X6540Y2157D01*
X6536Y2147D01*
X6534Y2136D01*
X6536Y2126D01*
X6540Y2115D01*
X6547Y2107D01*
X6555Y2100D01*
X6565Y2096D01*
X6576Y2095D01*
X6587Y2096D01*
X6597Y2100D01*
X6600Y2102D01*
X6601Y2102D01*
X6609Y2106D01*
X6616Y2111D01*
X6745Y2240D01*
X6751Y2247D01*
X6754Y2256D01*
X6755Y2265D01*
Y2423D01*
X6760Y2425D01*
X7595Y1590D01*
X7602Y1584D01*
X7611Y1581D01*
X7620Y1580D01*
X10690D01*
X10699Y1581D01*
X10708Y1584D01*
X10715Y1590D01*
Y1590D01*
X10715D01*
D01*
D01*
D01*
D01*
D01*
D01*
X10715D01*
D01*
X10715D01*
Y1590D01*
D01*
D01*
D01*
D01*
Y1590D01*
D01*
D01*
D01*
D01*
D01*
D01*
Y1590D01*
D01*
D01*
X10715D01*
D01*
D01*
D01*
D01*
D01*
X11905Y2780D01*
X11911Y2787D01*
X11914Y2796D01*
X11915Y2805D01*
D01*
D01*
D01*
D01*
D01*
X11915D01*
D01*
D01*
D01*
D01*
Y2805D01*
X11915D01*
D01*
Y2805D01*
D01*
D01*
D01*
D01*
D01*
D01*
D01*
D01*
D01*
D01*
D01*
D01*
Y2805D01*
D01*
X11915D01*
D01*
D01*
D01*
D01*
X11915Y2805D01*
Y4440D01*
X11914Y4449D01*
X11911Y4458D01*
X11905Y4465D01*
X11905Y4465D01*
X11695Y4675D01*
X11688Y4681D01*
X11679Y4684D01*
X11670Y4685D01*
X10988D01*
Y4687D01*
X10905D01*
Y4631D01*
X10620D01*
X10618Y4635D01*
X10609Y4650D01*
X10598Y4663D01*
X10150Y5111D01*
Y5512D01*
X10148Y5529D01*
X10144Y5546D01*
X10138Y5562D01*
X10129Y5577D01*
X10117Y5590D01*
X10116Y5591D01*
X10115Y5592D01*
X9722Y5985D01*
X9724Y5990D01*
X10343D01*
X10360Y5991D01*
X10377Y5995D01*
X10393Y6002D01*
X10408Y6011D01*
X10421Y6022D01*
X10432Y6035D01*
X10441Y6050D01*
X10448Y6066D01*
X10452Y6083D01*
X10453Y6100D01*
X10452Y6117D01*
X10448Y6134D01*
X10441Y6150D01*
X10432Y6165D01*
X10421Y6178D01*
X10408Y6189D01*
X10393Y6198D01*
X10377Y6205D01*
X10360Y6209D01*
X10343Y6210D01*
X9470D01*
X9466Y6211D01*
X9449Y6213D01*
X9449Y6213D01*
X9449D01*
D01*
Y6213D01*
X9449Y6213D01*
Y6213D01*
Y6213D01*
X9449D01*
X9449D01*
D01*
X9449D01*
D01*
Y6213D01*
D01*
D01*
D01*
D01*
D01*
X9432Y6211D01*
X9415Y6207D01*
X9399Y6201D01*
X9384Y6192D01*
X9371Y6180D01*
X9360Y6167D01*
X9351Y6152D01*
X9344Y6136D01*
X9340Y6120D01*
X9338Y6102D01*
X9340Y6085D01*
X9344Y6068D01*
X9351Y6052D01*
X9360Y6038D01*
X9371Y6024D01*
X9373Y6022D01*
X9373Y6022D01*
X9929Y5466D01*
Y5078D01*
X9929Y5078D01*
X9631Y4705D01*
X9413D01*
X9412Y4705D01*
X9330D01*
Y4699D01*
X9136D01*
X8330Y5505D01*
X8323Y5511D01*
X8314Y5514D01*
X8305Y5515D01*
X6690D01*
X6547Y5658D01*
X6547Y5658D01*
X6549Y5669D01*
X6547Y5680D01*
X6543Y5690D01*
X6542Y5691D01*
Y5722D01*
X6615Y5795D01*
X6621Y5802D01*
X6624Y5811D01*
X6625Y5820D01*
Y6065D01*
X6624Y6074D01*
X6621Y6083D01*
X6615Y6090D01*
X6615Y6090D01*
D01*
D01*
D01*
D01*
X6615Y6090D01*
D01*
D01*
X6615D01*
X6542Y6163D01*
Y6227D01*
X6543Y6228D01*
X6547Y6238D01*
X6549Y6249D01*
X6547Y6260D01*
X6543Y6270D01*
X6536Y6279D01*
X6528Y6285D01*
X6518Y6290D01*
X6507Y6291D01*
X6496Y6290D01*
X6486Y6285D01*
X6477Y6279D01*
X6471Y6270D01*
X6466Y6260D01*
X6465Y6249D01*
X6466Y6238D01*
X6471Y6228D01*
X6471Y6227D01*
Y6148D01*
X6471Y6148D01*
X6471D01*
X6473Y6139D01*
X6476Y6131D01*
X6482Y6123D01*
X6555Y6050D01*
Y5835D01*
X6482Y5762D01*
X6476Y5754D01*
X6473Y5746D01*
X6471Y5737D01*
Y5691D01*
X6471Y5690D01*
X6466Y5680D01*
X6465Y5669D01*
X6466Y5658D01*
X6471Y5648D01*
X6472Y5647D01*
X6473Y5639D01*
X6476Y5631D01*
X6482Y5623D01*
X6650Y5455D01*
X6650Y5455D01*
X6650D01*
X6650Y5455D01*
X6650D01*
X6650Y5455D01*
Y5455D01*
Y5455D01*
D01*
D01*
X6650D01*
Y5455D01*
X6657Y5449D01*
X6666Y5446D01*
X6675Y5445D01*
X8290D01*
X9096Y4639D01*
X9104Y4633D01*
X9112Y4630D01*
X9121Y4628D01*
X9330D01*
Y4622D01*
D01*
Y4622D01*
X9328Y4620D01*
X9315D01*
X9311Y4619D01*
X9308Y4617D01*
X9306Y4614D01*
X9305Y4610D01*
Y4520D01*
X9305Y4519D01*
X9302Y4515D01*
X9269D01*
X9262Y4522D01*
X9259Y4524D01*
X9255Y4525D01*
X9251Y4524D01*
X9248Y4522D01*
X9243Y4517D01*
X9241Y4514D01*
X9240Y4510D01*
Y4499D01*
X8881D01*
X7995Y5385D01*
X7988Y5391D01*
X7979Y5394D01*
X7970Y5395D01*
X6610D01*
X6442Y5563D01*
Y5647D01*
X6443Y5648D01*
X6447Y5658D01*
X6449Y5669D01*
X6447Y5680D01*
X6443Y5690D01*
X6442Y5691D01*
Y5819D01*
X6475Y5853D01*
X6512D01*
Y5936D01*
X6421D01*
Y5915D01*
X6417Y5913D01*
X6400Y5930D01*
X6397Y5937D01*
X6395Y5940D01*
X6397Y5944D01*
X6401D01*
Y5964D01*
X6407Y5969D01*
X6408Y5969D01*
X6421D01*
Y5963D01*
X6512D01*
Y6046D01*
X6435D01*
Y6219D01*
X6436Y6220D01*
X6443Y6228D01*
X6447Y6238D01*
X6449Y6249D01*
X6447Y6260D01*
X6443Y6270D01*
X6442Y6271D01*
Y6428D01*
X6441Y6437D01*
X6437Y6446D01*
X6432Y6453D01*
X6432Y6453D01*
X6432D01*
X6432Y6453D01*
Y6453D01*
X6330Y6555D01*
X6323Y6561D01*
X6314Y6564D01*
X6305Y6565D01*
X5776D01*
Y6605D01*
D02*
G37*
G36*
X8915Y6075D02*
X8881D01*
X8881Y6070D01*
X8885Y6060D01*
X8892Y6052D01*
X8900Y6045D01*
X8910Y6041D01*
X8915Y6041D01*
Y6075D01*
D02*
G37*
G36*
X5247Y6061D02*
X5164D01*
Y5970D01*
X5210D01*
Y5943D01*
X5202Y5942D01*
X5195Y5939D01*
X5189Y5934D01*
X5184Y5928D01*
X5181Y5921D01*
X5180Y5913D01*
X5181Y5905D01*
X5184Y5898D01*
X5189Y5892D01*
X5191Y5891D01*
Y5886D01*
X5189Y5884D01*
X5188Y5884D01*
X5155D01*
Y5900D01*
X5064D01*
Y5817D01*
X5155D01*
Y5843D01*
X5188D01*
X5189Y5842D01*
X5191Y5841D01*
Y5836D01*
X5189Y5834D01*
X5184Y5828D01*
X5181Y5821D01*
X5181Y5818D01*
X5279D01*
X5279Y5821D01*
X5276Y5828D01*
X5271Y5834D01*
X5269Y5836D01*
Y5841D01*
X5271Y5842D01*
X5276Y5848D01*
X5279Y5855D01*
X5280Y5863D01*
X5279Y5871D01*
X5276Y5878D01*
X5271Y5884D01*
X5269Y5886D01*
Y5891D01*
X5271Y5892D01*
X5276Y5898D01*
X5279Y5905D01*
X5280Y5913D01*
X5279Y5921D01*
X5276Y5928D01*
X5271Y5934D01*
X5265Y5939D01*
X5257Y5942D01*
X5250Y5943D01*
Y5990D01*
X5250Y5991D01*
X5253Y5995D01*
X5466D01*
X5471Y5991D01*
Y5940D01*
X5550D01*
Y6020D01*
X5499D01*
X5489Y6030D01*
X5483Y6034D01*
X5475Y6036D01*
X5247D01*
Y6061D01*
D02*
G37*
G36*
X11829Y6210D02*
X10737D01*
X10720Y6209D01*
X10703Y6205D01*
X10687Y6198D01*
X10672Y6189D01*
X10659Y6178D01*
X10648Y6165D01*
X10639Y6150D01*
X10632Y6134D01*
X10628Y6117D01*
X10627Y6100D01*
X10628Y6083D01*
X10632Y6066D01*
X10639Y6050D01*
X10648Y6035D01*
X10659Y6022D01*
X10672Y6011D01*
X10687Y6002D01*
X10703Y5995D01*
X10720Y5991D01*
X10737Y5990D01*
X11829D01*
X11847Y5991D01*
X11852Y5992D01*
X11860Y5993D01*
X11877Y5997D01*
X11892Y6003D01*
X11907Y6012D01*
X11920Y6023D01*
X11931Y6036D01*
X11940Y6051D01*
X11946Y6067D01*
X11950Y6083D01*
X11951Y6100D01*
X11950Y6117D01*
X11946Y6133D01*
X11940Y6149D01*
X11931Y6164D01*
X11920Y6177D01*
X11907Y6188D01*
X11892Y6197D01*
X11877Y6203D01*
X11860Y6207D01*
X11852Y6208D01*
X11847Y6209D01*
X11829Y6210D01*
D02*
G37*
G36*
X12232Y6095D02*
X12129D01*
X12130Y6083D01*
X12134Y6067D01*
X12140Y6051D01*
X12149Y6036D01*
X12160Y6023D01*
X12173Y6012D01*
X12188Y6003D01*
X12203Y5997D01*
X12220Y5993D01*
X12232Y5992D01*
Y6095D01*
D02*
G37*
G36*
Y6208D02*
X12220Y6207D01*
X12203Y6203D01*
X12188Y6197D01*
X12173Y6188D01*
X12160Y6177D01*
X12149Y6164D01*
X12140Y6149D01*
X12134Y6133D01*
X12130Y6117D01*
X12129Y6105D01*
X12232D01*
Y6208D01*
D02*
G37*
G36*
X12242D02*
Y6105D01*
X12345D01*
X12344Y6117D01*
X12340Y6133D01*
X12333Y6149D01*
X12324Y6164D01*
X12313Y6177D01*
X12301Y6188D01*
X12286Y6197D01*
X12270Y6203D01*
X12254Y6207D01*
X12242Y6208D01*
D02*
G37*
G36*
X6348Y6291D02*
X6265D01*
Y6273D01*
X5872D01*
Y6283D01*
X5789D01*
Y6192D01*
X5872D01*
Y6202D01*
X6295D01*
X6304Y6203D01*
X6313Y6207D01*
X6314Y6208D01*
X6348D01*
Y6291D01*
D02*
G37*
G36*
X8959Y6075D02*
X8925D01*
Y6041D01*
X8930Y6041D01*
X8940Y6045D01*
X8948Y6052D01*
X8955Y6060D01*
X8959Y6070D01*
X8959Y6075D01*
D02*
G37*
G36*
X8915Y6119D02*
X8910Y6119D01*
X8900Y6115D01*
X8892Y6108D01*
X8885Y6100D01*
X8881Y6090D01*
X8881Y6085D01*
X8915D01*
Y6119D01*
D02*
G37*
G36*
X8925D02*
Y6085D01*
X8959D01*
X8959Y6090D01*
X8955Y6100D01*
X8948Y6108D01*
X8940Y6115D01*
X8930Y6119D01*
X8925Y6119D01*
D02*
G37*
G36*
X5515Y5919D02*
Y5885D01*
X5549D01*
X5549Y5890D01*
X5545Y5900D01*
X5538Y5908D01*
X5530Y5915D01*
X5520Y5919D01*
X5515Y5919D01*
D02*
G37*
G36*
X3447Y5448D02*
X3364D01*
Y5442D01*
X3351D01*
Y5443D01*
X3331D01*
X3329Y5444D01*
X3319Y5445D01*
X2825D01*
X2816Y5444D01*
X2800D01*
X2795Y5445D01*
X2188D01*
X2184Y5445D01*
X1675D01*
X1666Y5444D01*
X1657Y5441D01*
X1650Y5435D01*
X1170Y4955D01*
X1164Y4948D01*
X1161Y4939D01*
X1160Y4930D01*
Y1305D01*
X1160Y1305D01*
X1160D01*
X1161Y1296D01*
X1164Y1287D01*
X1170Y1280D01*
X1380Y1070D01*
X1387Y1064D01*
X1396Y1061D01*
X1405Y1060D01*
X1414Y1061D01*
X1423Y1064D01*
X1423Y1065D01*
X3940D01*
X3949Y1066D01*
X3958Y1069D01*
X3965Y1075D01*
Y1075D01*
X3965D01*
D01*
D01*
D01*
D01*
D01*
D01*
X3965D01*
D01*
X3965D01*
Y1075D01*
D01*
D01*
D01*
D01*
Y1075D01*
D01*
D01*
D01*
D01*
D01*
D01*
Y1075D01*
D01*
D01*
X3965D01*
D01*
D01*
D01*
X4045Y1155D01*
X4051Y1162D01*
X4054Y1171D01*
X4055Y1180D01*
D01*
D01*
D01*
D01*
D01*
X4055D01*
D01*
D01*
D01*
D01*
Y1180D01*
X4055D01*
D01*
Y1180D01*
D01*
D01*
D01*
D01*
D01*
D01*
D01*
D01*
D01*
D01*
D01*
D01*
Y1180D01*
D01*
X4055D01*
D01*
D01*
D01*
D01*
X4055Y1180D01*
Y1200D01*
X4060D01*
Y1280D01*
X3980D01*
Y1200D01*
X3985D01*
Y1195D01*
X3925Y1135D01*
X3443D01*
X3188Y1390D01*
X3181Y1395D01*
Y1408D01*
X3177D01*
X3175Y1412D01*
X3177Y1415D01*
X3180Y1423D01*
X3181Y1427D01*
X3112D01*
X3113Y1423D01*
X3116Y1415D01*
X3118Y1412D01*
X3116Y1408D01*
X3112D01*
Y1400D01*
X2765D01*
Y1406D01*
X2730D01*
X2723Y1407D01*
X2646D01*
Y1413D01*
X2563D01*
Y1330D01*
X2646D01*
Y1337D01*
X2675D01*
Y1323D01*
X2765D01*
Y1330D01*
X3149D01*
X3338Y1140D01*
X3336Y1135D01*
X1415D01*
X1230Y1320D01*
Y4915D01*
X1690Y5375D01*
X2156D01*
X2160Y5374D01*
X2789D01*
X2791Y5370D01*
X2790Y5368D01*
X2786Y5360D01*
X2786Y5355D01*
X2854D01*
X2854Y5360D01*
X2850Y5368D01*
X2848Y5370D01*
X2851Y5375D01*
X3260D01*
Y5360D01*
X3351D01*
Y5371D01*
X3364D01*
Y5365D01*
X3447D01*
Y5448D01*
D02*
G37*
G36*
X6348Y5711D02*
X6265D01*
Y5704D01*
X6120D01*
X6111Y5703D01*
X6102Y5700D01*
X6095Y5694D01*
X6089Y5687D01*
X6086Y5678D01*
X6085Y5669D01*
X6086Y5660D01*
X6089Y5651D01*
X6095Y5644D01*
X6102Y5639D01*
X6111Y5635D01*
X6120Y5634D01*
X6265D01*
Y5628D01*
X6348D01*
Y5711D01*
D02*
G37*
G36*
X5510Y5820D02*
X5500Y5819D01*
X5490Y5815D01*
X5482Y5808D01*
X5476Y5800D01*
X5472Y5790D01*
X5470Y5780D01*
X5472Y5770D01*
X5476Y5760D01*
X5482Y5752D01*
X5490Y5745D01*
X5500Y5741D01*
X5510Y5740D01*
X5520Y5741D01*
X5530Y5745D01*
X5538Y5752D01*
X5545Y5760D01*
X5549Y5770D01*
X5550Y5780D01*
X5549Y5790D01*
X5545Y5800D01*
X5538Y5808D01*
X5530Y5815D01*
X5520Y5819D01*
X5510Y5820D01*
D02*
G37*
G36*
X3546Y5401D02*
X3510D01*
Y5365D01*
X3516Y5366D01*
X3526Y5370D01*
X3535Y5377D01*
X3541Y5385D01*
X3546Y5395D01*
X3546Y5401D01*
D02*
G37*
G36*
X3500Y5447D02*
X3494Y5447D01*
X3484Y5443D01*
X3476Y5436D01*
X3469Y5427D01*
X3465Y5417D01*
X3464Y5411D01*
X3500D01*
Y5447D01*
D02*
G37*
G36*
X3510D02*
Y5411D01*
X3546D01*
X3546Y5417D01*
X3541Y5427D01*
X3535Y5436D01*
X3526Y5443D01*
X3516Y5447D01*
X3510Y5447D01*
D02*
G37*
G36*
X5505Y5875D02*
X5471D01*
X5472Y5870D01*
X5476Y5860D01*
X5482Y5852D01*
X5490Y5845D01*
X5500Y5841D01*
X5505Y5841D01*
Y5875D01*
D02*
G37*
G36*
X5549D02*
X5515D01*
Y5841D01*
X5520Y5841D01*
X5530Y5845D01*
X5538Y5852D01*
X5545Y5860D01*
X5549Y5870D01*
X5549Y5875D01*
D02*
G37*
G36*
X5505Y5919D02*
X5500Y5919D01*
X5490Y5915D01*
X5482Y5908D01*
X5476Y5900D01*
X5472Y5890D01*
X5471Y5885D01*
X5505D01*
Y5919D01*
D02*
G37*
G36*
X5762Y6283D02*
X5679D01*
Y6192D01*
X5685D01*
Y6183D01*
X5679D01*
Y6092D01*
X5705D01*
Y5835D01*
X5705Y5835D01*
X5705D01*
X5706Y5827D01*
X5711Y5821D01*
X5766Y5766D01*
X5772Y5761D01*
X5775Y5761D01*
X5776Y5760D01*
X5782Y5752D01*
X5790Y5745D01*
X5800Y5741D01*
X5810Y5740D01*
X5820Y5741D01*
X5830Y5745D01*
X5838Y5752D01*
X5845Y5760D01*
X5849Y5770D01*
X5850Y5780D01*
X5849Y5790D01*
X5845Y5800D01*
X5838Y5808D01*
X5830Y5815D01*
X5820Y5819D01*
X5810Y5820D01*
X5800Y5819D01*
X5790Y5815D01*
X5782Y5808D01*
X5781Y5808D01*
X5745Y5843D01*
Y6092D01*
X5762D01*
Y6183D01*
X5756D01*
Y6192D01*
X5762D01*
Y6283D01*
D02*
G37*
G36*
X5225Y5808D02*
X5181D01*
X5181Y5805D01*
X5184Y5798D01*
X5189Y5792D01*
X5195Y5787D01*
X5202Y5784D01*
X5210Y5783D01*
X5225D01*
Y5808D01*
D02*
G37*
G36*
X5279D02*
X5235D01*
Y5783D01*
X5250D01*
X5257Y5784D01*
X5265Y5787D01*
X5271Y5792D01*
X5276Y5798D01*
X5279Y5805D01*
X5279Y5808D01*
D02*
G37*
G36*
X5758Y5130D02*
X5675D01*
Y5039D01*
X5696D01*
Y5030D01*
X5675D01*
Y4939D01*
X5696D01*
Y4673D01*
X5696Y4673D01*
X5696D01*
X5698Y4666D01*
X5702Y4659D01*
X5763Y4598D01*
X5762Y4592D01*
X5764Y4582D01*
X5768Y4572D01*
X5774Y4564D01*
X5782Y4558D01*
X5792Y4554D01*
X5802Y4552D01*
X5813Y4554D01*
X5822Y4558D01*
X5830Y4564D01*
X5837Y4572D01*
X5841Y4582D01*
X5842Y4592D01*
X5841Y4603D01*
X5837Y4612D01*
X5830Y4620D01*
X5822Y4627D01*
X5813Y4631D01*
X5802Y4632D01*
X5792Y4631D01*
X5789Y4630D01*
X5737Y4682D01*
Y4939D01*
X5758D01*
Y5030D01*
X5737D01*
Y5039D01*
X5758D01*
Y5130D01*
D02*
G37*
G36*
X1772Y3686D02*
X1738D01*
Y3652D01*
X1743Y3653D01*
X1753Y3656D01*
X1761Y3663D01*
X1767Y3671D01*
X1771Y3681D01*
X1772Y3686D01*
D02*
G37*
G36*
X6590Y3722D02*
X6550D01*
Y3685D01*
X6590D01*
Y3722D01*
D02*
G37*
G36*
X1728Y3686D02*
X1694D01*
X1694Y3681D01*
X1698Y3671D01*
X1705Y3663D01*
X1713Y3656D01*
X1723Y3653D01*
X1728Y3652D01*
Y3686D01*
D02*
G37*
G36*
X2393Y3701D02*
X2383Y3700D01*
X2373Y3696D01*
X2365Y3689D01*
X2358Y3681D01*
X2354Y3671D01*
X2353Y3661D01*
X2354Y3651D01*
X2358Y3641D01*
X2365Y3633D01*
X2373Y3626D01*
X2383Y3623D01*
X2393Y3621D01*
X2403Y3623D01*
X2413Y3626D01*
X2421Y3633D01*
X2427Y3641D01*
X2431Y3651D01*
X2433Y3661D01*
X2431Y3671D01*
X2427Y3681D01*
X2421Y3689D01*
X2413Y3696D01*
X2403Y3700D01*
X2393Y3701D01*
D02*
G37*
G36*
X2993D02*
X2983Y3700D01*
X2973Y3696D01*
X2965Y3689D01*
X2958Y3681D01*
X2954Y3671D01*
X2953Y3661D01*
X2954Y3651D01*
X2958Y3641D01*
X2965Y3633D01*
X2973Y3626D01*
X2983Y3623D01*
X2993Y3621D01*
X3003Y3623D01*
X3013Y3626D01*
X3021Y3633D01*
X3027Y3641D01*
X3031Y3651D01*
X3033Y3661D01*
X3031Y3671D01*
X3027Y3681D01*
X3021Y3689D01*
X3013Y3696D01*
X3003Y3700D01*
X2993Y3701D01*
D02*
G37*
G36*
Y3901D02*
X2983Y3900D01*
X2973Y3896D01*
X2965Y3889D01*
X2958Y3881D01*
X2954Y3871D01*
X2953Y3861D01*
X2954Y3851D01*
X2958Y3841D01*
X2965Y3833D01*
X2973Y3826D01*
X2983Y3823D01*
X2993Y3821D01*
X3003Y3823D01*
X3013Y3826D01*
X3021Y3833D01*
X3027Y3841D01*
X3031Y3851D01*
X3033Y3861D01*
X3031Y3871D01*
X3027Y3881D01*
X3021Y3889D01*
X3013Y3896D01*
X3003Y3900D01*
X2993Y3901D01*
D02*
G37*
G36*
X1630Y4095D02*
X1465D01*
X1457Y4094D01*
X1451Y4089D01*
X1346Y3984D01*
X1341Y3978D01*
X1340Y3970D01*
Y1510D01*
X1340Y1510D01*
X1340D01*
X1341Y1502D01*
X1346Y1496D01*
X1485Y1356D01*
D01*
X1485Y1356D01*
X1485Y1356D01*
D01*
D01*
D01*
X1485Y1356D01*
Y1356D01*
X1492Y1352D01*
X1500Y1350D01*
X1785D01*
Y1336D01*
X1806D01*
X1808Y1334D01*
X1816Y1331D01*
X1826Y1330D01*
X2235D01*
Y1323D01*
X2325D01*
Y1337D01*
X2382D01*
X2384Y1336D01*
X2394Y1332D01*
X2405Y1330D01*
X2415Y1332D01*
X2425Y1336D01*
X2434Y1342D01*
X2441Y1351D01*
X2445Y1361D01*
X2446Y1372D01*
X2445Y1383D01*
X2441Y1393D01*
X2434Y1402D01*
X2425Y1408D01*
X2425Y1408D01*
Y1706D01*
X2539Y1821D01*
X2544Y1827D01*
X2545Y1835D01*
D01*
D01*
D01*
D01*
D01*
X2545D01*
D01*
D01*
D01*
D01*
Y1835D01*
X2545D01*
D01*
Y1835D01*
D01*
D01*
D01*
D01*
D01*
D01*
D01*
D01*
D01*
D01*
D01*
D01*
Y1835D01*
D01*
X2545D01*
D01*
D01*
D01*
D01*
X2545Y1835D01*
Y2970D01*
X2545Y2970D01*
X2544Y2978D01*
X2539Y2984D01*
X2539Y2984D01*
X2488Y3036D01*
X2490Y3041D01*
X2884D01*
X2954Y2971D01*
X2953Y2961D01*
X2954Y2951D01*
X2958Y2941D01*
X2965Y2933D01*
X2973Y2926D01*
X2983Y2923D01*
X2993Y2921D01*
X3003Y2923D01*
X3013Y2926D01*
X3021Y2933D01*
X3027Y2941D01*
X3078D01*
X3201Y2818D01*
X3207Y2813D01*
X3215Y2812D01*
X3247D01*
Y2774D01*
X3338D01*
Y2795D01*
X3446D01*
X3454Y2796D01*
X3461Y2801D01*
Y2801D01*
X3461D01*
D01*
D01*
D01*
D01*
D01*
D01*
X3461D01*
D01*
X3461D01*
Y2801D01*
D01*
D01*
D01*
D01*
Y2801D01*
D01*
D01*
D01*
D01*
D01*
D01*
Y2801D01*
D01*
D01*
X3461D01*
D01*
D01*
D01*
D01*
D01*
X3467Y2807D01*
X3507D01*
Y2876D01*
X3503D01*
X3501Y2881D01*
X3503Y2883D01*
X3507Y2892D01*
X3507Y2896D01*
X3439D01*
X3439Y2892D01*
X3443Y2883D01*
X3445Y2881D01*
X3442Y2876D01*
X3438D01*
Y2836D01*
X3438Y2835D01*
X3338D01*
Y2857D01*
X3247D01*
Y2852D01*
X3223D01*
X3100Y2975D01*
X3094Y2980D01*
X3086Y2981D01*
X3027D01*
X3021Y2989D01*
X3013Y2996D01*
X3003Y3000D01*
X2993Y3001D01*
X2983Y3000D01*
X2907Y3075D01*
X2901Y3080D01*
X2893Y3081D01*
X2427D01*
X2421Y3089D01*
X2413Y3096D01*
X2403Y3100D01*
X2393Y3101D01*
X2383Y3100D01*
X2382Y3099D01*
X2381Y3099D01*
X2373Y3101D01*
X2318D01*
Y3128D01*
X2227D01*
Y3101D01*
X2127D01*
Y3115D01*
X2113D01*
Y3228D01*
X2113Y3228D01*
X2112Y3236D01*
X2107Y3242D01*
X2004Y3345D01*
X1998Y3350D01*
X1990Y3351D01*
X1949D01*
Y3376D01*
X1866D01*
Y3286D01*
X1949D01*
Y3311D01*
X1981D01*
X2072Y3219D01*
Y3115D01*
X2058D01*
Y3046D01*
X2062D01*
X2065Y3041D01*
X2063Y3039D01*
X2059Y3031D01*
X2059Y3026D01*
X2127D01*
X2127Y3031D01*
X2123Y3039D01*
X2121Y3041D01*
X2123Y3046D01*
X2127D01*
Y3060D01*
X2227D01*
Y3045D01*
X2318D01*
Y3060D01*
X2353D01*
X2354Y3051D01*
X2358Y3041D01*
X2365Y3033D01*
X2373Y3026D01*
X2383Y3023D01*
X2393Y3021D01*
X2403Y3023D01*
X2413Y3026D01*
X2421Y3033D01*
X2424Y3037D01*
X2429Y3037D01*
X2505Y2962D01*
Y1843D01*
X2390Y1729D01*
X2386Y1722D01*
X2384Y1715D01*
Y1408D01*
X2384Y1408D01*
X2382Y1407D01*
X2287D01*
X2280Y1406D01*
X2235D01*
Y1400D01*
X1855D01*
Y1405D01*
X1851D01*
X1848Y1410D01*
X1850Y1412D01*
X1854Y1420D01*
X1854Y1425D01*
X1786D01*
X1786Y1420D01*
X1790Y1412D01*
X1792Y1410D01*
X1789Y1405D01*
X1785D01*
Y1391D01*
X1508D01*
X1380Y1518D01*
Y3962D01*
X1473Y4055D01*
X1622D01*
X1712Y3964D01*
Y3925D01*
X1705Y3919D01*
X1698Y3911D01*
X1694Y3901D01*
X1693Y3891D01*
X1694Y3881D01*
X1698Y3871D01*
X1705Y3863D01*
X1708Y3860D01*
X1707Y3855D01*
X1696D01*
X1672Y3879D01*
Y3931D01*
X1593D01*
Y3851D01*
X1657D01*
X1679Y3829D01*
D01*
X1679Y3829D01*
X1679Y3829D01*
D01*
D01*
D01*
X1679Y3829D01*
Y3829D01*
X1684Y3826D01*
X1690Y3825D01*
X1704D01*
X1706Y3820D01*
X1705Y3819D01*
X1698Y3811D01*
X1694Y3801D01*
X1693Y3791D01*
X1694Y3781D01*
X1698Y3771D01*
X1703Y3765D01*
X1701Y3760D01*
X1691D01*
X1671Y3780D01*
X1671Y3781D01*
X1673Y3791D01*
X1671Y3801D01*
X1667Y3811D01*
X1661Y3819D01*
X1653Y3826D01*
X1643Y3830D01*
X1633Y3831D01*
X1623Y3830D01*
X1613Y3826D01*
X1605Y3819D01*
X1598Y3811D01*
X1594Y3801D01*
X1593Y3791D01*
X1594Y3781D01*
X1598Y3771D01*
X1605Y3763D01*
X1613Y3756D01*
X1623Y3753D01*
X1633Y3751D01*
X1643Y3753D01*
X1652Y3756D01*
X1674Y3734D01*
X1679Y3731D01*
X1685Y3730D01*
X1711D01*
X1712Y3725D01*
X1705Y3719D01*
X1698Y3711D01*
X1694Y3701D01*
X1694Y3696D01*
X1772D01*
X1771Y3701D01*
X1767Y3711D01*
X1761Y3719D01*
X1753Y3726D01*
X1743Y3730D01*
Y3730D01*
X1743Y3730D01*
X1819D01*
X2000Y3549D01*
Y3500D01*
X2000Y3500D01*
X2000D01*
X2001Y3494D01*
X2004Y3489D01*
X2243Y3250D01*
X2248Y3247D01*
X2254Y3246D01*
X2356D01*
X2358Y3241D01*
X2365Y3233D01*
X2373Y3226D01*
X2383Y3223D01*
X2393Y3221D01*
X2403Y3223D01*
X2413Y3226D01*
X2421Y3233D01*
X2427Y3241D01*
X2431Y3251D01*
X2433Y3261D01*
X2431Y3271D01*
X2427Y3281D01*
X2421Y3289D01*
X2413Y3296D01*
X2403Y3300D01*
X2393Y3301D01*
X2383Y3300D01*
X2373Y3296D01*
X2365Y3289D01*
X2358Y3281D01*
X2356Y3276D01*
X2260D01*
X2030Y3506D01*
Y3555D01*
X2029Y3561D01*
X2026Y3566D01*
X2026Y3566D01*
X2026D01*
D01*
X2026Y3566D01*
Y3566D01*
X1836Y3756D01*
X1831Y3759D01*
X1825Y3760D01*
X1765D01*
X1763Y3765D01*
X1767Y3771D01*
X1891D01*
X2216Y3446D01*
D01*
X2216Y3446D01*
X2216Y3446D01*
D01*
D01*
D01*
X2216Y3446D01*
Y3446D01*
X2222Y3441D01*
X2230Y3440D01*
X2359D01*
X2365Y3433D01*
X2373Y3426D01*
X2383Y3423D01*
X2393Y3421D01*
X2403Y3423D01*
X2413Y3426D01*
X2421Y3433D01*
X2427Y3441D01*
X2431Y3451D01*
X2433Y3461D01*
X2431Y3471D01*
X2427Y3481D01*
X2421Y3489D01*
X2420Y3490D01*
X2422Y3495D01*
X2429D01*
X2465Y3459D01*
Y3401D01*
X2440Y3376D01*
X2429D01*
X2427Y3381D01*
X2421Y3389D01*
X2413Y3396D01*
X2403Y3400D01*
X2393Y3401D01*
X2383Y3400D01*
X2373Y3396D01*
X2365Y3389D01*
X2358Y3381D01*
X2354Y3371D01*
X2353Y3361D01*
X2354Y3351D01*
X2358Y3341D01*
X2365Y3333D01*
X2373Y3326D01*
X2383Y3323D01*
X2393Y3321D01*
X2403Y3323D01*
X2413Y3326D01*
X2421Y3333D01*
X2427Y3341D01*
X2429Y3346D01*
X2446D01*
X2452Y3347D01*
X2457Y3350D01*
X2491Y3384D01*
X2494Y3389D01*
X2494Y3390D01*
X2495Y3395D01*
Y3465D01*
X2494Y3471D01*
X2491Y3476D01*
X2491Y3476D01*
X2491D01*
D01*
X2491Y3476D01*
Y3476D01*
X2446Y3521D01*
X2441Y3524D01*
X2435Y3525D01*
X2419D01*
X2417Y3530D01*
X2421Y3533D01*
X2427Y3541D01*
X2431Y3551D01*
X2433Y3561D01*
X2431Y3571D01*
X2427Y3581D01*
X2421Y3589D01*
X2413Y3596D01*
X2403Y3600D01*
X2393Y3601D01*
X2383Y3600D01*
X2373Y3596D01*
X2365Y3589D01*
X2358Y3581D01*
X2354Y3571D01*
X2353Y3561D01*
X2354Y3551D01*
X2358Y3541D01*
X2365Y3533D01*
X2368Y3530D01*
X2367Y3525D01*
X2271D01*
X1946Y3851D01*
X1941Y3854D01*
X1935Y3855D01*
X1759D01*
X1757Y3860D01*
X1761Y3863D01*
X1767Y3871D01*
X1771Y3881D01*
X1773Y3891D01*
X1771Y3901D01*
X1767Y3911D01*
X1761Y3919D01*
X1753Y3925D01*
Y3972D01*
X1752Y3980D01*
X1750Y3983D01*
X1747Y3987D01*
X1747Y3987D01*
X1644Y4089D01*
X1638Y4094D01*
X1630Y4095D01*
D02*
G37*
G36*
X2393Y3901D02*
X2383Y3900D01*
X2373Y3896D01*
X2365Y3889D01*
X2358Y3881D01*
X2354Y3871D01*
X2353Y3861D01*
X2354Y3851D01*
X2358Y3841D01*
X2365Y3833D01*
X2373Y3826D01*
X2383Y3823D01*
X2393Y3821D01*
X2403Y3823D01*
X2413Y3826D01*
X2421Y3833D01*
X2427Y3841D01*
X2431Y3851D01*
X2433Y3861D01*
X2431Y3871D01*
X2427Y3881D01*
X2421Y3889D01*
X2413Y3896D01*
X2403Y3900D01*
X2393Y3901D01*
D02*
G37*
G36*
Y3801D02*
X2383Y3800D01*
X2373Y3796D01*
X2365Y3789D01*
X2358Y3781D01*
X2354Y3771D01*
X2353Y3761D01*
X2354Y3751D01*
X2358Y3741D01*
X2365Y3733D01*
X2373Y3726D01*
X2383Y3723D01*
X2393Y3721D01*
X2403Y3723D01*
X2413Y3726D01*
X2421Y3733D01*
X2427Y3741D01*
X2431Y3751D01*
X2433Y3761D01*
X2431Y3771D01*
X2427Y3781D01*
X2421Y3789D01*
X2413Y3796D01*
X2403Y3800D01*
X2393Y3801D01*
D02*
G37*
G36*
X2993D02*
X2983Y3800D01*
X2973Y3796D01*
X2965Y3789D01*
X2958Y3781D01*
X2954Y3771D01*
X2953Y3761D01*
X2954Y3751D01*
X2958Y3741D01*
X2965Y3733D01*
X2973Y3726D01*
X2983Y3723D01*
X2993Y3721D01*
X3003Y3723D01*
X3013Y3726D01*
X3021Y3733D01*
X3027Y3741D01*
X3031Y3751D01*
X3033Y3761D01*
X3031Y3771D01*
X3027Y3781D01*
X3021Y3789D01*
X3013Y3796D01*
X3003Y3800D01*
X2993Y3801D01*
D02*
G37*
G36*
X5535Y3521D02*
X5501D01*
Y3487D01*
X5506Y3487D01*
X5516Y3491D01*
X5524Y3498D01*
X5530Y3506D01*
X5534Y3516D01*
X5535Y3521D01*
D02*
G37*
G36*
X5763Y3909D02*
X5680D01*
Y3818D01*
X5701D01*
Y3809D01*
X5680D01*
Y3718D01*
X5701D01*
Y3507D01*
X5701Y3507D01*
X5701D01*
X5703Y3499D01*
X5707Y3492D01*
X5759Y3441D01*
X5757Y3436D01*
X5756Y3426D01*
X5757Y3416D01*
X5761Y3406D01*
X5767Y3398D01*
X5776Y3391D01*
X5785Y3387D01*
X5796Y3386D01*
X5806Y3387D01*
X5816Y3391D01*
X5824Y3398D01*
X5830Y3406D01*
X5834Y3416D01*
X5836Y3426D01*
X5834Y3436D01*
X5830Y3446D01*
X5824Y3454D01*
X5816Y3461D01*
X5806Y3464D01*
X5796Y3466D01*
X5792Y3465D01*
X5769Y3489D01*
X5772Y3493D01*
X5776Y3491D01*
X5778Y3491D01*
X5785Y3487D01*
X5791Y3487D01*
Y3526D01*
Y3565D01*
X5785Y3564D01*
X5776Y3561D01*
X5772Y3557D01*
X5767Y3556D01*
X5760Y3550D01*
X5754Y3543D01*
X5751Y3534D01*
X5750Y3525D01*
X5751Y3516D01*
X5753Y3512D01*
X5749Y3509D01*
X5742Y3515D01*
Y3718D01*
X5763D01*
Y3809D01*
X5742D01*
Y3818D01*
X5763D01*
Y3909D01*
D02*
G37*
G36*
X5491Y3521D02*
X5456D01*
X5457Y3516D01*
X5461Y3506D01*
X5467Y3498D01*
X5476Y3491D01*
X5485Y3487D01*
X5491Y3487D01*
Y3521D01*
D02*
G37*
G36*
X9357Y3464D02*
X9321D01*
X9321Y3458D01*
X9325Y3448D01*
X9332Y3439D01*
X9341Y3432D01*
X9351Y3428D01*
X9357Y3427D01*
Y3464D01*
D02*
G37*
G36*
X9403D02*
X9367D01*
Y3427D01*
X9373Y3428D01*
X9383Y3432D01*
X9391Y3439D01*
X9398Y3448D01*
X9402Y3458D01*
X9403Y3464D01*
D02*
G37*
G36*
X5501Y3565D02*
Y3531D01*
X5535D01*
X5534Y3536D01*
X5530Y3546D01*
X5524Y3554D01*
X5516Y3561D01*
X5506Y3564D01*
X5501Y3565D01*
D02*
G37*
G36*
X5237Y3705D02*
X5154D01*
Y3615D01*
X5175D01*
Y3586D01*
X5168Y3583D01*
X5162Y3578D01*
X5157Y3572D01*
X5154Y3565D01*
X5153Y3557D01*
X5154Y3549D01*
X5157Y3542D01*
X5162Y3536D01*
X5163Y3535D01*
Y3530D01*
X5162Y3528D01*
X5161Y3528D01*
X5097D01*
Y3554D01*
X5006D01*
Y3471D01*
X5097D01*
Y3487D01*
X5161D01*
X5162Y3486D01*
X5163Y3485D01*
Y3480D01*
X5162Y3478D01*
X5157Y3472D01*
X5154Y3465D01*
X5154Y3462D01*
X5251D01*
X5251Y3465D01*
X5248Y3472D01*
X5243Y3478D01*
X5242Y3480D01*
Y3485D01*
X5243Y3486D01*
X5248Y3492D01*
X5251Y3499D01*
X5252Y3507D01*
X5251Y3515D01*
X5248Y3522D01*
X5243Y3528D01*
X5242Y3530D01*
Y3535D01*
X5243Y3536D01*
X5248Y3542D01*
X5251Y3549D01*
X5252Y3557D01*
X5251Y3565D01*
X5248Y3572D01*
X5243Y3578D01*
X5237Y3583D01*
X5230Y3586D01*
X5222Y3587D01*
X5216D01*
Y3615D01*
X5237D01*
Y3640D01*
X5297D01*
X5325Y3612D01*
X5331Y3607D01*
X5339Y3606D01*
X5339Y3606D01*
X5456D01*
Y3586D01*
X5535D01*
Y3666D01*
X5456D01*
Y3646D01*
X5347D01*
X5319Y3674D01*
X5313Y3679D01*
X5305Y3680D01*
X5237D01*
Y3705D01*
D02*
G37*
G36*
X5491Y3565D02*
X5485Y3564D01*
X5476Y3561D01*
X5467Y3554D01*
X5461Y3546D01*
X5457Y3536D01*
X5456Y3531D01*
X5491D01*
Y3565D01*
D02*
G37*
G36*
X1633Y3731D02*
X1623Y3730D01*
X1613Y3726D01*
X1605Y3719D01*
X1598Y3711D01*
X1594Y3701D01*
X1593Y3691D01*
X1594Y3681D01*
X1598Y3671D01*
X1605Y3663D01*
X1612Y3657D01*
Y3525D01*
X1596Y3509D01*
X1595Y3510D01*
X1584Y3511D01*
X1573Y3510D01*
X1563Y3505D01*
X1554Y3498D01*
X1547Y3490D01*
X1543Y3479D01*
X1541Y3468D01*
X1543Y3457D01*
X1547Y3447D01*
X1552Y3440D01*
Y3408D01*
X1527D01*
Y3325D01*
X1618D01*
Y3408D01*
X1593D01*
Y3427D01*
X1595Y3427D01*
X1606Y3431D01*
X1615Y3438D01*
X1621Y3447D01*
X1622Y3448D01*
X1724D01*
X1724Y3447D01*
X1731Y3438D01*
X1740Y3431D01*
X1750Y3427D01*
X1761Y3425D01*
X1773Y3427D01*
X1774Y3427D01*
X1777Y3423D01*
Y3376D01*
X1756D01*
Y3286D01*
X1839D01*
Y3376D01*
X1818D01*
Y3432D01*
X1817Y3440D01*
X1812Y3446D01*
X1812D01*
D01*
D01*
Y3446D01*
D01*
D01*
D01*
D01*
D01*
D01*
Y3446D01*
X1812D01*
D01*
D01*
D01*
X1813Y3448D01*
X1933D01*
X2226Y3156D01*
X2232Y3151D01*
X2240Y3150D01*
X2355D01*
X2358Y3141D01*
X2365Y3133D01*
X2373Y3126D01*
X2383Y3123D01*
X2393Y3121D01*
X2403Y3123D01*
X2413Y3126D01*
X2421Y3133D01*
X2427Y3141D01*
X2431Y3151D01*
X2433Y3161D01*
X2431Y3171D01*
X2427Y3181D01*
X2421Y3189D01*
X2413Y3196D01*
X2403Y3200D01*
X2393Y3201D01*
X2383Y3200D01*
X2373Y3196D01*
X2366Y3190D01*
X2248D01*
X1956Y3483D01*
X1950Y3487D01*
X1942Y3489D01*
X1799D01*
X1799Y3490D01*
X1792Y3498D01*
X1783Y3505D01*
X1773Y3510D01*
X1761Y3511D01*
X1750Y3510D01*
X1740Y3505D01*
X1731Y3498D01*
X1724Y3490D01*
X1724Y3489D01*
X1640D01*
X1638Y3493D01*
X1647Y3502D01*
X1652Y3509D01*
X1653Y3517D01*
Y3657D01*
X1661Y3663D01*
X1667Y3671D01*
X1671Y3681D01*
X1673Y3691D01*
X1671Y3701D01*
X1667Y3711D01*
X1661Y3719D01*
X1653Y3726D01*
X1643Y3730D01*
X1633Y3731D01*
D02*
G37*
G36*
X2993Y3601D02*
X2983Y3600D01*
X2973Y3596D01*
X2965Y3589D01*
X2958Y3581D01*
X2954Y3571D01*
X2953Y3561D01*
X2954Y3551D01*
X2958Y3541D01*
X2965Y3533D01*
X2973Y3526D01*
X2983Y3523D01*
X2993Y3521D01*
X3003Y3523D01*
X3013Y3526D01*
X3021Y3533D01*
X3027Y3541D01*
X3031Y3551D01*
X3033Y3561D01*
X3031Y3571D01*
X3027Y3581D01*
X3021Y3589D01*
X3013Y3596D01*
X3003Y3600D01*
X2993Y3601D01*
D02*
G37*
G36*
Y4001D02*
X2983Y4000D01*
X2973Y3996D01*
X2965Y3989D01*
X2958Y3981D01*
X2954Y3971D01*
X2953Y3961D01*
X2954Y3951D01*
X2958Y3941D01*
X2965Y3933D01*
X2973Y3926D01*
X2983Y3923D01*
X2993Y3921D01*
X3003Y3923D01*
X3013Y3926D01*
X3021Y3933D01*
X3027Y3941D01*
X3031Y3951D01*
X3033Y3961D01*
X3031Y3971D01*
X3027Y3981D01*
X3021Y3989D01*
X3013Y3996D01*
X3003Y4000D01*
X2993Y4001D01*
D02*
G37*
G36*
X6463Y4483D02*
X6427D01*
X6427Y4477D01*
X6431Y4467D01*
X6438Y4458D01*
X6447Y4451D01*
X6457Y4447D01*
X6463Y4446D01*
Y4483D01*
D02*
G37*
G36*
X5129Y4572D02*
X5038D01*
Y4551D01*
X4865D01*
X4858Y4549D01*
X4851Y4545D01*
X4591Y4284D01*
X4586Y4278D01*
X4585Y4270D01*
Y2393D01*
X4333Y2141D01*
X3514D01*
X3514Y2142D01*
X3508Y2147D01*
X3500Y2150D01*
X3493Y2151D01*
Y2174D01*
X3518D01*
Y2257D01*
X3427D01*
Y2174D01*
X3452D01*
Y2151D01*
X3445Y2150D01*
X3438Y2147D01*
X3432Y2142D01*
X3427Y2136D01*
X3424Y2129D01*
X3423Y2121D01*
X3424Y2113D01*
X3427Y2106D01*
X3432Y2100D01*
X3434Y2099D01*
Y2094D01*
X3432Y2092D01*
X3427Y2086D01*
X3424Y2079D01*
X3424Y2077D01*
X3419Y2071D01*
X3289D01*
Y2096D01*
X3206D01*
Y2006D01*
X3289D01*
Y2031D01*
X3421D01*
X3424Y2027D01*
X3424Y2026D01*
X3522D01*
X3521Y2029D01*
X3518Y2036D01*
X3514Y2042D01*
X3512Y2044D01*
Y2049D01*
X3514Y2050D01*
X3518Y2056D01*
X3521Y2063D01*
X3523Y2071D01*
X3521Y2079D01*
X3518Y2086D01*
X3514Y2092D01*
X3512Y2094D01*
Y2099D01*
X3514Y2100D01*
X3514Y2101D01*
X4903D01*
X4911Y2102D01*
X4917Y2107D01*
Y2107D01*
X4917D01*
D01*
D01*
D01*
D01*
D01*
D01*
X4917D01*
D01*
X4917D01*
Y2107D01*
D01*
D01*
D01*
D01*
Y2107D01*
D01*
D01*
D01*
D01*
D01*
D01*
Y2107D01*
D01*
D01*
X4917D01*
D01*
D01*
D01*
X5080Y2269D01*
X5138D01*
Y2352D01*
X5047D01*
Y2294D01*
X4894Y2141D01*
X4397D01*
X4395Y2146D01*
X4619Y2371D01*
X4624Y2377D01*
X4625Y2385D01*
D01*
D01*
D01*
D01*
D01*
X4625D01*
D01*
D01*
D01*
D01*
Y2385D01*
X4625D01*
D01*
Y2385D01*
D01*
D01*
D01*
D01*
D01*
D01*
D01*
D01*
D01*
D01*
D01*
D01*
Y2385D01*
D01*
X4625D01*
D01*
D01*
D01*
D01*
X4625Y2385D01*
Y4262D01*
X4874Y4510D01*
X5038D01*
Y4489D01*
X5129D01*
Y4572D01*
D02*
G37*
G36*
X6509Y4483D02*
X6473D01*
Y4446D01*
X6479Y4447D01*
X6489Y4451D01*
X6497Y4458D01*
X6504Y4467D01*
X6508Y4477D01*
X6509Y4483D01*
D02*
G37*
G36*
X2432Y4001D02*
X2353D01*
Y3921D01*
X2432D01*
Y4001D01*
D02*
G37*
G36*
X6409Y4529D02*
X6326D01*
Y4523D01*
X6117D01*
X6114Y4524D01*
X6105Y4525D01*
X6096Y4524D01*
X6087Y4521D01*
X6080Y4515D01*
X6074Y4508D01*
X6071Y4499D01*
X6070Y4490D01*
X6070Y4489D01*
X6070Y4488D01*
X6071Y4478D01*
X6074Y4470D01*
X6080Y4463D01*
X6087Y4457D01*
X6096Y4453D01*
X6105Y4452D01*
X6326D01*
Y4446D01*
X6409D01*
Y4529D01*
D02*
G37*
G36*
X5502Y4632D02*
X5492Y4631D01*
X5482Y4627D01*
X5474Y4620D01*
X5468Y4612D01*
X5464Y4603D01*
X5462Y4592D01*
X5464Y4582D01*
X5468Y4572D01*
X5474Y4564D01*
X5482Y4558D01*
X5492Y4554D01*
X5502Y4552D01*
X5513Y4554D01*
X5522Y4558D01*
X5530Y4564D01*
X5537Y4572D01*
X5541Y4582D01*
X5542Y4592D01*
X5541Y4603D01*
X5537Y4612D01*
X5530Y4620D01*
X5522Y4627D01*
X5513Y4631D01*
X5502Y4632D01*
D02*
G37*
%LPD*%
G36*
X11040Y3616D02*
X11042Y3611D01*
X11040Y3609D01*
Y3477D01*
X10970D01*
X10966Y3481D01*
X10958Y3487D01*
X10948Y3491D01*
X10937Y3493D01*
X10926Y3491D01*
X10916Y3487D01*
X10907Y3481D01*
X10904Y3477D01*
X10690D01*
X10687Y3474D01*
X10682Y3474D01*
X10665Y3494D01*
Y3615D01*
X10895D01*
Y3610D01*
X10978D01*
Y3615D01*
X11020D01*
X11025Y3621D01*
X11040Y3616D01*
D02*
G37*
G36*
X6220Y2540D02*
X6220Y2540D01*
X6220Y2540D01*
X6220D01*
X6220Y2540D01*
X6220D01*
X6220Y2540D01*
Y2540D01*
X6220Y2540D01*
Y2540D01*
X6227Y2534D01*
X6236Y2531D01*
X6245Y2530D01*
X6315D01*
X6426Y2419D01*
Y2418D01*
X6421Y2412D01*
X6367D01*
Y2343D01*
X6370D01*
X6372Y2339D01*
X6371Y2336D01*
X6371Y2336D01*
X6369Y2335D01*
X6366Y2326D01*
X6366Y2325D01*
X6114D01*
X5977Y2462D01*
X5970Y2468D01*
X5961Y2471D01*
X5952Y2472D01*
X5841D01*
X5833Y2476D01*
X5822Y2477D01*
X5812Y2476D01*
X5803Y2472D01*
X5794Y2465D01*
X5788Y2457D01*
X5785Y2451D01*
X5780Y2452D01*
Y2522D01*
X5785Y2523D01*
X5788Y2517D01*
X5794Y2509D01*
X5803Y2502D01*
X5812Y2498D01*
X5822Y2497D01*
X5833Y2498D01*
X5842Y2502D01*
X5845Y2505D01*
X5850Y2506D01*
X5857Y2512D01*
X5857Y2512D01*
X5857Y2512D01*
X5915Y2570D01*
X5921Y2577D01*
X5924Y2586D01*
X5925Y2595D01*
D01*
D01*
D01*
D01*
D01*
X5925D01*
D01*
D01*
D01*
D01*
Y2595D01*
X5925D01*
D01*
Y2595D01*
D01*
D01*
D01*
D01*
D01*
D01*
D01*
D01*
D01*
D01*
D01*
D01*
Y2595D01*
D01*
X5925D01*
D01*
D01*
D01*
D01*
X5925Y2595D01*
Y2611D01*
X5933D01*
Y2620D01*
X6140D01*
X6220Y2540D01*
D02*
G37*
G36*
X9285Y3640D02*
X9320D01*
Y3627D01*
X9403D01*
Y3640D01*
X9570D01*
Y3500D01*
X9575Y3495D01*
X9570Y3490D01*
X9398D01*
X9391Y3498D01*
X9383Y3505D01*
X9373Y3509D01*
X9362Y3511D01*
X9351Y3509D01*
X9341Y3505D01*
X9332Y3498D01*
X9326Y3490D01*
X9270D01*
Y3645D01*
X9275Y3650D01*
X9285Y3640D01*
D02*
G37*
G36*
X9780Y4687D02*
X9795Y4679D01*
X9812Y4675D01*
X9829Y4672D01*
X9839Y4673D01*
X9843Y4669D01*
Y4528D01*
X9400D01*
X9398Y4532D01*
X9401Y4534D01*
X9407Y4543D01*
X9411Y4553D01*
X9412Y4559D01*
X9371D01*
Y4564D01*
X9366D01*
Y4605D01*
X9360Y4604D01*
X9350Y4600D01*
X9349Y4599D01*
X9345Y4602D01*
Y4611D01*
Y4622D01*
X9413D01*
Y4695D01*
X9767D01*
X9780Y4687D01*
D02*
G37*
G36*
X2254Y3499D02*
X2254Y3499D01*
X2254Y3499D01*
X2254Y3499D01*
Y3499D01*
X2259Y3496D01*
X2265Y3495D01*
X2364D01*
X2366Y3490D01*
X2365Y3489D01*
X2358Y3481D01*
X2358Y3480D01*
X2238D01*
X1913Y3805D01*
X1907Y3810D01*
X1899Y3811D01*
X1767D01*
X1761Y3819D01*
X1760Y3820D01*
X1762Y3825D01*
X1929D01*
X2254Y3499D01*
D02*
G37*
G36*
X9265Y4505D02*
X9350D01*
X9351Y4500D01*
X9350Y4500D01*
X9341Y4493D01*
X9335Y4485D01*
X9331Y4474D01*
X9330Y4469D01*
X9412D01*
X9411Y4474D01*
X9407Y4485D01*
X9401Y4493D01*
X9392Y4500D01*
X9382Y4504D01*
Y4504D01*
X9382D01*
D01*
D01*
X9382D01*
X9382Y4504D01*
Y4504D01*
X9382Y4505D01*
X9550D01*
Y4365D01*
X9555Y4360D01*
X9550Y4355D01*
X9250D01*
Y4510D01*
X9255Y4515D01*
X9265Y4505D01*
D02*
G37*
G36*
X11061Y4486D02*
X11062Y4481D01*
X11060Y4478D01*
Y4346D01*
X10710D01*
X10708Y4343D01*
X10703Y4343D01*
X10685Y4363D01*
Y4484D01*
X10920D01*
X10922Y4479D01*
X10917Y4476D01*
X10910Y4467D01*
X10906Y4457D01*
X10905Y4451D01*
X10987D01*
X10987Y4457D01*
X10982Y4467D01*
X10976Y4476D01*
X10967Y4482D01*
X10967Y4484D01*
X11040D01*
X11045Y4490D01*
X11061Y4486D01*
D02*
G37*
G36*
X10905Y4604D02*
X10988D01*
Y4615D01*
X10995D01*
Y4494D01*
X10967D01*
X10966Y4494D01*
X10965D01*
X10965Y4494D01*
X10964Y4494D01*
X10963Y4493D01*
X10962Y4493D01*
X10961Y4492D01*
X10960Y4491D01*
X10960Y4491D01*
X10959Y4490D01*
X10959Y4489D01*
X10958Y4488D01*
X10958Y4487D01*
X10957Y4486D01*
X10957Y4486D01*
D01*
X10957Y4486D01*
X10957Y4486D01*
X10946Y4488D01*
X10935Y4486D01*
X10934Y4486D01*
X10931Y4487D01*
X10929Y4488D01*
D01*
X10929Y4488D01*
D01*
X10929D01*
X10929Y4490D01*
X10928Y4491D01*
X10927Y4491D01*
X10927Y4491D01*
X10926Y4492D01*
X10925Y4493D01*
X10924Y4493D01*
X10924Y4494D01*
X10922Y4494D01*
X10921Y4494D01*
X10920Y4494D01*
X10920Y4494D01*
X10685D01*
X10681Y4494D01*
X10678Y4491D01*
X10676Y4488D01*
X10675Y4484D01*
Y4482D01*
X10672Y4481D01*
X10660Y4473D01*
X10443D01*
Y4547D01*
Y4590D01*
X10444Y4590D01*
X10460Y4597D01*
X10475Y4606D01*
X10488Y4617D01*
X10491Y4621D01*
X10905D01*
Y4604D01*
D02*
G37*
%LPC*%
G36*
X10932Y3546D02*
X10896D01*
X10896Y3540D01*
X10901Y3530D01*
X10907Y3521D01*
X10916Y3515D01*
X10926Y3511D01*
X10932Y3510D01*
Y3546D01*
D02*
G37*
G36*
X10978D02*
X10942D01*
Y3510D01*
X10948Y3511D01*
X10958Y3515D01*
X10966Y3521D01*
X10973Y3530D01*
X10977Y3540D01*
X10978Y3546D01*
D02*
G37*
G36*
X10941Y4587D02*
X10935Y4586D01*
X10925Y4582D01*
X10917Y4576D01*
X10910Y4567D01*
X10906Y4557D01*
X10905Y4551D01*
X10941D01*
Y4587D01*
D02*
G37*
G36*
X9376Y4605D02*
Y4569D01*
X9412D01*
X9411Y4574D01*
X9407Y4585D01*
X9401Y4593D01*
X9392Y4600D01*
X9382Y4604D01*
X9376Y4605D01*
D02*
G37*
G36*
X10951Y4587D02*
Y4551D01*
X10987D01*
X10987Y4557D01*
X10982Y4567D01*
X10976Y4576D01*
X10967Y4582D01*
X10957Y4586D01*
X10951Y4587D01*
D02*
G37*
G36*
X9357Y3564D02*
X9321D01*
X9321Y3558D01*
X9325Y3548D01*
X9332Y3539D01*
X9341Y3532D01*
X9351Y3528D01*
X9357Y3527D01*
Y3564D01*
D02*
G37*
G36*
X9412Y4459D02*
X9376D01*
Y4422D01*
X9382Y4423D01*
X9392Y4427D01*
X9401Y4434D01*
X9407Y4443D01*
X9411Y4453D01*
X9412Y4459D01*
D02*
G37*
G36*
X9367Y3610D02*
Y3574D01*
X9403D01*
X9402Y3579D01*
X9398Y3590D01*
X9391Y3598D01*
X9383Y3605D01*
X9373Y3609D01*
X9367Y3610D01*
D02*
G37*
G36*
X9366Y4459D02*
X9330D01*
X9331Y4453D01*
X9335Y4443D01*
X9341Y4434D01*
X9350Y4427D01*
X9360Y4423D01*
X9366Y4422D01*
Y4459D01*
D02*
G37*
G36*
X10941Y4441D02*
X10905D01*
X10906Y4435D01*
X10910Y4425D01*
X10917Y4416D01*
X10925Y4410D01*
X10935Y4406D01*
X10941Y4405D01*
Y4441D01*
D02*
G37*
G36*
X10987D02*
X10951D01*
Y4405D01*
X10957Y4406D01*
X10967Y4410D01*
X10976Y4416D01*
X10982Y4425D01*
X10987Y4435D01*
X10987Y4441D01*
D02*
G37*
G36*
X9357Y3610D02*
X9351Y3609D01*
X9341Y3605D01*
X9332Y3598D01*
X9325Y3590D01*
X9321Y3579D01*
X9321Y3574D01*
X9357D01*
Y3610D01*
D02*
G37*
G36*
X10987Y4541D02*
X10951D01*
Y4505D01*
X10957Y4506D01*
X10967Y4510D01*
X10976Y4516D01*
X10982Y4525D01*
X10987Y4535D01*
X10987Y4541D01*
D02*
G37*
G36*
X9403Y3564D02*
X9367D01*
Y3527D01*
X9373Y3528D01*
X9383Y3532D01*
X9391Y3539D01*
X9398Y3548D01*
X9402Y3558D01*
X9403Y3564D01*
D02*
G37*
G36*
X10941Y4541D02*
X10905D01*
X10906Y4535D01*
X10910Y4525D01*
X10917Y4516D01*
X10925Y4510D01*
X10935Y4506D01*
X10941Y4505D01*
Y4541D01*
D02*
G37*
G36*
X10942Y3592D02*
Y3556D01*
X10978D01*
X10977Y3562D01*
X10973Y3572D01*
X10966Y3581D01*
X10958Y3587D01*
X10948Y3591D01*
X10942Y3592D01*
D02*
G37*
G36*
X10932D02*
X10926Y3591D01*
X10916Y3587D01*
X10907Y3581D01*
X10901Y3572D01*
X10896Y3562D01*
X10896Y3556D01*
X10932D01*
Y3592D01*
D02*
G37*
%LPD*%
D10*
X6508Y4783D02*
D03*
Y4672D02*
D03*
X6467Y6004D02*
D03*
Y5894D02*
D03*
X6541Y2403D02*
D03*
Y2293D02*
D03*
X6545Y3790D02*
D03*
Y3680D02*
D03*
X5222Y2659D02*
D03*
Y2549D02*
D03*
X5240Y4889D02*
D03*
Y4779D02*
D03*
X5052Y3512D02*
D03*
Y3402D02*
D03*
X5110Y5858D02*
D03*
Y5748D02*
D03*
X5092Y2421D02*
D03*
Y2311D02*
D03*
X5083Y4641D02*
D03*
Y4530D02*
D03*
X3705Y5401D02*
D03*
Y5291D02*
D03*
X3305Y5401D02*
D03*
Y5291D02*
D03*
X3473Y2326D02*
D03*
Y2216D02*
D03*
X2720Y1365D02*
D03*
Y1475D02*
D03*
X2280Y1365D02*
D03*
Y1475D02*
D03*
X1573Y3366D02*
D03*
Y3256D02*
D03*
X2273Y3086D02*
D03*
Y2976D02*
D03*
X3293Y2816D02*
D03*
Y2926D02*
D03*
X3299Y3153D02*
D03*
Y3043D02*
D03*
X3614Y3149D02*
D03*
Y3039D02*
D03*
D11*
X5720Y6237D02*
D03*
X5831D02*
D03*
Y6137D02*
D03*
X5720D02*
D03*
X5891Y2656D02*
D03*
X5781D02*
D03*
Y2776D02*
D03*
X5891D02*
D03*
X5827Y4984D02*
D03*
X5717D02*
D03*
Y5084D02*
D03*
X5827D02*
D03*
X5832Y3763D02*
D03*
X5722D02*
D03*
Y3863D02*
D03*
X5832D02*
D03*
X5085Y3660D02*
D03*
X5195D02*
D03*
X5095Y6015D02*
D03*
X5205D02*
D03*
X3138Y2051D02*
D03*
X3248D02*
D03*
X1908Y3331D02*
D03*
X1798D02*
D03*
X2108Y2716D02*
D03*
X1998D02*
D03*
X2108Y2856D02*
D03*
X1998D02*
D03*
D12*
X4020Y1180D02*
Y1240D01*
X3705Y5401D02*
X4180D01*
X1826Y1365D02*
X2280D01*
X2287Y1372D02*
X2405D01*
X2605D02*
X2723D01*
X1410Y1100D02*
X3940D01*
X3163Y1365D02*
X3422Y1107D01*
X2720Y1365D02*
X3163D01*
X1195Y1305D02*
Y4930D01*
X2160Y5410D02*
X2795D01*
X1195Y1305D02*
X1405Y1095D01*
X1195Y4930D02*
X1675Y5410D01*
X2184D01*
X2160Y5410D02*
X2184Y5410D01*
X3940Y1100D02*
X4020Y1180D01*
X2825Y5410D02*
X3319D01*
X5284Y6394D02*
X5602Y6077D01*
Y4203D02*
X5707Y4097D01*
X5405Y4120D02*
X6395D01*
X5195Y6180D02*
X5499D01*
X4193Y5396D02*
X4246D01*
X4495Y5645D01*
Y6360D01*
X4675Y6540D01*
X3310Y5406D02*
X3405D01*
X3700D02*
X3705Y5401D01*
X3605Y5406D02*
X3700D01*
X5721Y6530D02*
X6305D01*
X6407Y6428D01*
Y6249D02*
Y6428D01*
X6476Y1876D02*
X6906Y1446D01*
X6895Y1457D02*
X10240Y1475D01*
X6470Y2130D02*
Y2222D01*
X6476Y1876D02*
Y2136D01*
X8866Y4464D02*
X9371D01*
X6407Y5548D02*
Y5873D01*
Y5834D02*
X6467Y5894D01*
X7970Y5360D02*
X8866Y4464D01*
X6595Y5360D02*
X7970D01*
X6407Y5548D02*
X6595Y5360D01*
X6507Y5648D02*
Y5737D01*
X9121Y4664D02*
X9371D01*
X8305Y5480D02*
X9121Y4664D01*
X6675Y5480D02*
X8305D01*
X6507Y5648D02*
X6675Y5480D01*
X5720Y6137D02*
Y6237D01*
X5810Y5980D02*
X6365D01*
X5848Y6137D02*
X6005Y5980D01*
X5831Y6137D02*
X5848D01*
X5831Y6237D02*
X6295D01*
X6120Y5669D02*
X6307D01*
X6590Y5820D02*
Y6065D01*
X6507Y5737D02*
X6590Y5820D01*
X6507Y6148D02*
X6590Y6065D01*
X6507Y6148D02*
Y6249D01*
X5810Y5880D02*
X6329D01*
X6366Y5916D01*
X6367Y5979D02*
X6400Y6012D01*
X6408Y6004D02*
X6467D01*
X6400Y6012D02*
Y6242D01*
X6367Y5979D02*
Y5979D01*
X6365Y5915D02*
X6407Y5873D01*
X6568Y4488D02*
Y4568D01*
Y4495D02*
X7580D01*
X9315Y3715D02*
X9362Y3669D01*
X8360Y3715D02*
X9315D01*
X7580Y4495D02*
X8360Y3715D01*
X10950Y3656D02*
X11219D01*
X11380Y3495D01*
Y2720D02*
Y3495D01*
X10620Y1960D02*
X11380Y2720D01*
X8540Y1960D02*
X10620D01*
X6665Y3615D02*
Y3930D01*
X6570Y4025D02*
X6665Y3930D01*
Y3835D02*
X8540Y1960D01*
X6448Y4843D02*
Y5132D01*
X6347Y4792D02*
X6448Y4893D01*
X5802Y4792D02*
X6347D01*
X5602Y4203D02*
Y6077D01*
X6390Y4765D02*
Y4835D01*
X5829Y4987D02*
X6050Y4792D01*
X5615Y5400D02*
X5785Y5230D01*
X6350D01*
X6448Y5132D01*
X5827Y5084D02*
X6181D01*
X6105Y4488D02*
X6368D01*
X6217Y5048D02*
X6348D01*
X6181Y5084D02*
X6217Y5048D01*
X6388Y4697D02*
X6425Y4660D01*
X5802Y4692D02*
X6383D01*
X6548Y4952D02*
Y5048D01*
Y4952D02*
X6650Y4850D01*
Y4650D02*
Y4850D01*
X6568Y4568D02*
X6650Y4650D01*
X6508Y4628D02*
Y4672D01*
X6468Y4588D02*
X6508Y4628D01*
X6468Y4488D02*
Y4588D01*
X6495Y4660D02*
X6508Y4672D01*
X6425Y4660D02*
X6495D01*
X6388Y4697D02*
Y4698D01*
X6448Y4843D02*
X6508Y4783D01*
X5139Y6540D02*
X5292Y6387D01*
X4675Y6540D02*
X5139D01*
X5095Y6015D02*
Y6080D01*
X5195Y6180D01*
X5610Y4000D02*
X5707Y4097D01*
X5610Y2225D02*
Y4000D01*
X5105Y1720D02*
X5610Y2225D01*
X4969Y1720D02*
X5105D01*
X5222Y2659D02*
X5224D01*
X6465Y3795D02*
Y4045D01*
X6287Y3763D02*
X6467Y3943D01*
X5085Y3660D02*
Y3800D01*
X6395Y4120D02*
X6465Y4050D01*
X5085Y3800D02*
X5405Y4120D01*
X6075Y4015D02*
X6365D01*
X6190Y3435D02*
X6385D01*
X6445Y3695D02*
X6460Y3680D01*
X5785Y3525D02*
X6090D01*
X6375Y3620D02*
X6445Y3690D01*
X6185Y3620D02*
X6375D01*
X6090Y3525D02*
X6185Y3620D01*
X5796Y3626D02*
X5840Y3670D01*
Y3763D01*
X5832D02*
X6287D01*
X5923Y3863D02*
X6075Y4015D01*
X5832Y3863D02*
X5923D01*
X6560Y4025D02*
X6570D01*
X6585Y3435D02*
Y3535D01*
X6665Y3615D01*
X6445Y3765D02*
X6470Y3790D01*
X6545D01*
X6445Y3765D02*
Y3765D01*
X6460Y3680D02*
X6545D01*
Y3630D02*
Y3680D01*
X6485Y3570D02*
X6545Y3630D01*
X6485Y3435D02*
Y3570D01*
X11670Y4650D02*
X11880Y4440D01*
X10946Y4650D02*
X11670D01*
X11880Y2805D02*
Y4440D01*
X10690Y1615D02*
X11880Y2805D01*
X7620Y1615D02*
X10690D01*
X6720Y2515D02*
X7620Y1615D01*
X5891Y2776D02*
X6164D01*
X6284Y2656D02*
X6356D01*
X6164Y2776D02*
X6284Y2656D01*
X5890Y2655D02*
X6155D01*
X6330Y2565D02*
X6453Y2442D01*
X6245Y2565D02*
X6330D01*
X6155Y2655D02*
X6245Y2565D01*
X5890Y2595D02*
Y2655D01*
X5832Y2537D02*
X5890Y2595D01*
X5822Y2537D02*
X5832D01*
X6569Y2656D02*
X6570Y2655D01*
X6585D01*
X6720Y2520D01*
Y2265D02*
Y2520D01*
X6591Y2136D02*
X6720Y2265D01*
X6576Y2136D02*
X6591D01*
X6390Y2290D02*
X6401Y2318D01*
X6099Y2290D02*
X6390D01*
X5952Y2437D02*
X6099Y2290D01*
X5822Y2437D02*
X5952D01*
X6462Y2403D02*
Y2651D01*
X6427Y2378D02*
X6436D01*
X6462Y2403D01*
X6541D01*
X6426Y2293D02*
X6541D01*
X6400Y2317D02*
X6401Y2318D01*
Y2319D01*
X6470Y2222D02*
X6541Y2293D01*
X6470Y2130D02*
X6476Y2136D01*
D13*
X5115Y5863D02*
X5230D01*
X5205Y6015D02*
X5230Y5990D01*
Y5913D02*
Y5990D01*
X5475Y6015D02*
X5510Y5980D01*
X5205Y6015D02*
X5475D01*
X4390Y5028D02*
X5110Y5748D01*
X3790Y5240D02*
X3951Y5401D01*
X3790Y2690D02*
Y5240D01*
X3473Y2326D02*
X3791D01*
X4390Y2640D02*
Y5028D01*
X4807Y3402D02*
X5052D01*
X2985Y2055D02*
X3134D01*
X4260Y2510D02*
X4390Y2640D01*
X3365Y2510D02*
X4260D01*
X3138Y2283D02*
X3365Y2510D01*
X3138Y2051D02*
Y2283D01*
X3473Y2121D02*
X4903D01*
X4345Y2125D02*
X4605Y2385D01*
Y4270D01*
X4865Y4530D01*
X5083D01*
X4903Y2121D02*
X5092Y2311D01*
X2393Y3061D02*
X2893D01*
X2093Y3081D02*
X2373D01*
X2434Y3061D02*
X2525Y2970D01*
X2405Y1372D02*
Y1715D01*
X2525Y1835D01*
Y2970D01*
X2893Y3061D02*
X2993Y2961D01*
X3011Y3043D02*
X3610D01*
X3475Y2901D02*
X3614Y3039D01*
X3473Y2901D02*
X3475D01*
X3489Y3461D02*
X3606Y3344D01*
X2993Y3461D02*
X3489D01*
X2993Y3361D02*
X3286D01*
X3614Y3149D02*
Y3244D01*
X3299Y3153D02*
Y3248D01*
X3011Y3043D02*
X3299D01*
X3293Y3036D02*
X3299Y3043D01*
X3293Y2926D02*
Y3036D01*
X3215Y2832D02*
X3277D01*
X3086Y2961D02*
X3215Y2832D01*
X2993Y2961D02*
X3086D01*
X3280Y2815D02*
X3446D01*
X3473Y2841D01*
Y2121D02*
Y2216D01*
X3427Y2051D02*
X3447Y2071D01*
X3248Y2051D02*
X3427D01*
X1733Y3891D02*
Y3972D01*
X1630Y4075D02*
X1733Y3972D01*
X1465Y4075D02*
X1630D01*
X1360Y3970D02*
X1465Y4075D01*
X1360Y1510D02*
Y3970D01*
Y1510D02*
X1500Y1370D01*
X1820D01*
X1633Y3891D02*
X1639D01*
X2230Y3460D02*
X2392D01*
X1899Y3791D02*
X2230Y3460D01*
X1733Y3791D02*
X1899D01*
X1584Y3468D02*
X1942D01*
X2240Y3170D02*
X2384D01*
X1942Y3468D02*
X2240Y3170D01*
X1633Y3791D02*
X1639D01*
X1761Y3468D02*
X1798Y3432D01*
Y3331D02*
Y3432D01*
X1573Y3366D02*
Y3457D01*
X1584Y3468D02*
X1633Y3517D01*
Y3691D01*
X2093Y3081D02*
Y3228D01*
X1908Y3331D02*
X1990D01*
X2093Y3228D01*
Y3021D02*
X2138Y2976D01*
X2373Y3081D02*
X2393Y3061D01*
X2378Y2976D02*
X2393Y2961D01*
X2138Y2976D02*
X2378D01*
X2113Y2861D02*
X2220D01*
X2108Y2716D02*
X2154D01*
X2220Y2650D01*
X2328Y2758D01*
Y2761D02*
X2393D01*
X2224Y2861D02*
X2393D01*
X5780Y5780D02*
X5810D01*
X5725Y5835D02*
X5780Y5780D01*
X5725Y5835D02*
Y6130D01*
X5717Y4673D02*
Y5084D01*
Y4673D02*
X5798Y4592D01*
X5084Y4640D02*
X5233D01*
Y4698D02*
Y4772D01*
X5240Y4779D01*
Y4770D02*
Y4779D01*
X5301Y4889D02*
X5602Y5190D01*
X5240Y4779D02*
X5489D01*
X5240Y4889D02*
X5301D01*
X5224Y2659D02*
X5585Y3020D01*
X5099Y2414D02*
X5222D01*
X5236Y2535D02*
X5515D01*
X5222Y2464D02*
Y2549D01*
X5339Y3626D02*
X5496D01*
X5305Y3660D02*
X5339Y3626D01*
X5195Y3660D02*
X5305D01*
X5052Y3507D02*
X5203D01*
X5195Y3565D02*
Y3660D01*
X5722Y3763D02*
Y3863D01*
X5722Y3507D02*
Y3763D01*
Y3507D02*
X5796Y3433D01*
X6030Y2140D02*
X6376Y2136D01*
X6456Y2656D02*
Y2789D01*
X6355Y2890D02*
X6456Y2789D01*
X6000Y2890D02*
X6355D01*
X5975Y2915D02*
X6000Y2890D01*
X5782Y2915D02*
X5975D01*
X5711Y2844D02*
X5782Y2915D01*
X5711Y1720D02*
Y2844D01*
X5781Y2656D02*
Y2776D01*
X5760Y2395D02*
Y2635D01*
Y2395D02*
X5818Y2337D01*
X5822D01*
D14*
X1935Y3840D02*
X2265Y3510D01*
X2435D02*
X2480Y3465D01*
Y3395D02*
Y3465D01*
X2393Y3361D02*
X2446D01*
X2480Y3395D01*
X2265Y3510D02*
X2435D01*
X1690Y3840D02*
X1935D01*
X1639Y3891D02*
X1690Y3840D01*
X2254Y3261D02*
X2393D01*
X2015Y3500D02*
X2254Y3261D01*
X2015Y3500D02*
Y3555D01*
X1825Y3745D02*
X2015Y3555D01*
X1685Y3745D02*
X1825D01*
X1639Y3791D02*
X1685Y3745D01*
D15*
X10540Y3455D02*
Y3805D01*
X10240Y2125D02*
Y3155D01*
X10540Y3455D01*
X9740Y2580D02*
X9930Y2390D01*
X9740Y2830D02*
X9895Y2675D01*
X10055D01*
X9740Y2580D02*
Y2830D01*
X9735Y3170D02*
Y3830D01*
D16*
X10540Y3765D02*
X10740Y3565D01*
X10540Y3765D02*
Y4200D01*
X9730Y3805D02*
Y4195D01*
X10540Y4200D02*
X10722Y4383D01*
X10039Y5066D02*
Y5512D01*
Y5066D02*
X10520Y4585D01*
X9692Y4605D02*
X10015Y5009D01*
X9515Y3590D02*
X9730Y3805D01*
X9535Y4390D02*
X9730Y4195D01*
X9449Y6102D02*
X10037Y5514D01*
X9451Y6100D02*
X10343D01*
X9449Y6102D02*
X9451Y6100D01*
X10737D02*
X11829D01*
D17*
X9365Y3569D02*
D03*
D18*
X10935Y3549D02*
D03*
D19*
X10945Y4545D02*
D03*
X9375Y4565D02*
D03*
X9380Y4455D02*
D03*
D20*
X2393Y3761D02*
D03*
X1733Y3891D02*
D03*
X1633Y3791D02*
D03*
X1733D02*
D03*
X1633Y3691D02*
D03*
X1733D02*
D03*
X2993Y2061D02*
D03*
Y2161D02*
D03*
Y2261D02*
D03*
Y2361D02*
D03*
Y2461D02*
D03*
Y2561D02*
D03*
Y2661D02*
D03*
Y2761D02*
D03*
Y2861D02*
D03*
Y2961D02*
D03*
Y3061D02*
D03*
Y3161D02*
D03*
Y3261D02*
D03*
Y3361D02*
D03*
Y3461D02*
D03*
Y3561D02*
D03*
Y3661D02*
D03*
Y3761D02*
D03*
Y3861D02*
D03*
Y3961D02*
D03*
X2393Y2061D02*
D03*
Y2161D02*
D03*
Y2261D02*
D03*
Y2361D02*
D03*
Y2461D02*
D03*
Y2561D02*
D03*
Y2661D02*
D03*
Y2761D02*
D03*
Y2861D02*
D03*
Y2961D02*
D03*
Y3061D02*
D03*
Y3161D02*
D03*
Y3261D02*
D03*
Y3361D02*
D03*
Y3461D02*
D03*
Y3561D02*
D03*
Y3661D02*
D03*
Y3861D02*
D03*
X3299Y3348D02*
D03*
Y3248D02*
D03*
X3614Y3344D02*
D03*
Y3244D02*
D03*
X3920Y1240D02*
D03*
D21*
X10946Y4546D02*
D03*
X9371Y4564D02*
D03*
X6456Y2656D02*
D03*
X6556D02*
D03*
X10946Y4446D02*
D03*
X6476Y2136D02*
D03*
X6576D02*
D03*
X6465Y4015D02*
D03*
X6565D02*
D03*
X10937Y3551D02*
D03*
Y3451D02*
D03*
X6485Y3435D02*
D03*
X6585D02*
D03*
X6407Y6249D02*
D03*
X6507D02*
D03*
X9371Y4464D02*
D03*
X6407Y5669D02*
D03*
X6507D02*
D03*
X6448Y5048D02*
D03*
X6548D02*
D03*
X9362Y3569D02*
D03*
Y3469D02*
D03*
X6468Y4488D02*
D03*
X6568D02*
D03*
X2505Y1372D02*
D03*
X2405D02*
D03*
X3505Y5406D02*
D03*
X3605D02*
D03*
D22*
X4969Y1720D02*
D03*
Y6540D02*
D03*
D23*
X5711Y1720D02*
D03*
Y6540D02*
D03*
D24*
X6401Y2319D02*
D03*
X6445Y3706D02*
D03*
X6367Y5920D02*
D03*
X6388Y4698D02*
D03*
X3147Y1432D02*
D03*
X1820Y1430D02*
D03*
X2093Y3021D02*
D03*
X3473Y2901D02*
D03*
X2820Y5350D02*
D03*
X4185Y5337D02*
D03*
X10070Y2680D02*
D03*
D25*
X6401Y2378D02*
D03*
X6445Y3765D02*
D03*
X6367Y5979D02*
D03*
X6388Y4757D02*
D03*
X3147Y1373D02*
D03*
X1820Y1370D02*
D03*
X2093Y3081D02*
D03*
X3473Y2841D02*
D03*
X2820Y5410D02*
D03*
X4185Y5396D02*
D03*
X9740Y3190D02*
D03*
D26*
X6356Y2656D02*
D03*
X6376Y2136D02*
D03*
X6365Y4015D02*
D03*
X6385Y3435D02*
D03*
X6307Y6249D02*
D03*
Y5669D02*
D03*
X6348Y5048D02*
D03*
X6368Y4488D02*
D03*
X2605Y1372D02*
D03*
X3405Y5406D02*
D03*
D27*
X5822Y2337D02*
D03*
Y2437D02*
D03*
Y2537D02*
D03*
X5522Y2337D02*
D03*
Y2437D02*
D03*
X5796Y3426D02*
D03*
Y3526D02*
D03*
Y3626D02*
D03*
X5496Y3426D02*
D03*
Y3526D02*
D03*
X5810Y5780D02*
D03*
Y5880D02*
D03*
Y5980D02*
D03*
X5510Y5780D02*
D03*
Y5880D02*
D03*
X5802Y4592D02*
D03*
Y4692D02*
D03*
Y4792D02*
D03*
X5502Y4592D02*
D03*
Y4692D02*
D03*
X8920Y6080D02*
D03*
X10240Y2400D02*
D03*
D28*
X5522Y2537D02*
D03*
X5496Y3626D02*
D03*
X5510Y5980D02*
D03*
X5502Y4792D02*
D03*
D29*
X10946Y4646D02*
D03*
X10937Y3651D02*
D03*
X9371Y4664D02*
D03*
X9362Y3669D02*
D03*
D30*
X5222Y2464D02*
D03*
X5203Y3557D02*
D03*
X5230Y5913D02*
D03*
X5233Y4690D02*
D03*
X3473Y2121D02*
D03*
D31*
X5222Y2414D02*
D03*
Y2364D02*
D03*
X5203Y3507D02*
D03*
Y3457D02*
D03*
X5230Y5863D02*
D03*
Y5813D02*
D03*
X5233Y4640D02*
D03*
Y4590D02*
D03*
X3473Y2071D02*
D03*
Y2021D02*
D03*
D32*
X1633Y3891D02*
D03*
D33*
X2220Y2861D02*
D03*
D34*
Y2650D02*
D03*
D35*
X2393Y3961D02*
D03*
X4020Y1240D02*
D03*
X9420Y6080D02*
D03*
X9940Y2400D02*
D03*
D36*
X1761Y3468D02*
D03*
X1584D02*
D03*
Y3114D02*
D03*
D37*
X1761D02*
D03*
D38*
X10343Y6100D02*
D03*
X10737D02*
D03*
X11843D02*
D03*
X12237D02*
D03*
D39*
X9740Y2830D02*
D03*
D40*
X10230Y2680D02*
D03*
D41*
X3790Y2690D02*
D03*
X3791Y2326D02*
D03*
X4390Y3400D02*
D03*
X4807Y3402D02*
D03*
X10240Y1475D02*
D03*
Y2125D02*
D03*
X6120Y6237D02*
D03*
Y5669D02*
D03*
X6110Y5084D02*
D03*
X6105Y4490D02*
D03*
X6175Y4015D02*
D03*
X6190Y3435D02*
D03*
X6030Y2140D02*
D03*
X6035Y2776D02*
D03*
M02*
