%FSLAX23Y23*%
%MOIN*%
G70*
G01*
G75*
%ADD10R,0.071X0.063*%
%ADD11R,0.063X0.071*%
%ADD12C,0.050*%
%ADD13C,0.020*%
%ADD14C,0.010*%
%ADD15C,0.100*%
%ADD16C,0.200*%
%ADD17R,0.120X0.083*%
%ADD18R,0.120X0.087*%
%ADD19R,0.120X0.090*%
%ADD20C,0.059*%
%ADD21C,0.063*%
%ADD22C,0.110*%
%ADD23R,0.110X0.110*%
%ADD24C,0.049*%
%ADD25R,0.049X0.049*%
%ADD26R,0.063X0.063*%
%ADD27C,0.059*%
%ADD28R,0.059X0.059*%
%ADD29R,0.063X0.063*%
%ADD30O,0.079X0.039*%
%ADD31O,0.079X0.039*%
%ADD32R,0.059X0.059*%
%ADD33C,0.051*%
%ADD34C,0.051*%
%ADD35R,0.059X0.059*%
%ADD36C,0.065*%
%ADD37R,0.065X0.065*%
%ADD38C,0.196*%
%ADD39C,0.049*%
%ADD40R,0.049X0.049*%
%ADD41C,0.050*%
%ADD42R,0.079X0.071*%
%ADD43R,0.071X0.079*%
%ADD44C,0.067*%
%ADD45C,0.071*%
%ADD46C,0.118*%
%ADD47R,0.118X0.118*%
%ADD48C,0.057*%
%ADD49R,0.057X0.057*%
%ADD50R,0.071X0.071*%
%ADD51C,0.067*%
%ADD52R,0.067X0.067*%
%ADD53R,0.071X0.071*%
%ADD54O,0.087X0.047*%
%ADD55O,0.087X0.047*%
%ADD56R,0.067X0.067*%
%ADD57C,0.059*%
%ADD58C,0.059*%
%ADD59R,0.067X0.067*%
%ADD60C,0.073*%
%ADD61R,0.073X0.073*%
%ADD62C,0.204*%
%ADD63C,0.057*%
%ADD64R,0.057X0.057*%
%ADD65C,0.058*%
%ADD66C,0.004*%
D10*
X6508Y4783D02*
D03*
Y4672D02*
D03*
X6467Y6004D02*
D03*
Y5894D02*
D03*
X6541Y2403D02*
D03*
Y2293D02*
D03*
X6545Y3790D02*
D03*
Y3680D02*
D03*
X5222Y2659D02*
D03*
Y2549D02*
D03*
X5240Y4889D02*
D03*
Y4779D02*
D03*
X5052Y3512D02*
D03*
Y3402D02*
D03*
X5110Y5858D02*
D03*
Y5748D02*
D03*
X5092Y2421D02*
D03*
Y2311D02*
D03*
X5083Y4641D02*
D03*
Y4530D02*
D03*
X3705Y5401D02*
D03*
Y5291D02*
D03*
X3305Y5401D02*
D03*
Y5291D02*
D03*
X3473Y2326D02*
D03*
Y2216D02*
D03*
X2720Y1365D02*
D03*
Y1475D02*
D03*
X2280Y1365D02*
D03*
Y1475D02*
D03*
X1573Y3366D02*
D03*
Y3256D02*
D03*
X2273Y3086D02*
D03*
Y2976D02*
D03*
X3293Y2816D02*
D03*
Y2926D02*
D03*
X3299Y3153D02*
D03*
Y3043D02*
D03*
X3614Y3149D02*
D03*
Y3039D02*
D03*
D11*
X5720Y6237D02*
D03*
X5831D02*
D03*
Y6137D02*
D03*
X5720D02*
D03*
X5891Y2656D02*
D03*
X5781D02*
D03*
Y2776D02*
D03*
X5891D02*
D03*
X5827Y4984D02*
D03*
X5717D02*
D03*
Y5084D02*
D03*
X5827D02*
D03*
X5832Y3763D02*
D03*
X5722D02*
D03*
Y3863D02*
D03*
X5832D02*
D03*
X5085Y3660D02*
D03*
X5195D02*
D03*
X5095Y6015D02*
D03*
X5205D02*
D03*
X3138Y2051D02*
D03*
X3248D02*
D03*
X1908Y3331D02*
D03*
X1798D02*
D03*
X2108Y2716D02*
D03*
X1998D02*
D03*
X2108Y2856D02*
D03*
X1998D02*
D03*
D20*
X2393Y3761D02*
D03*
X1733Y3891D02*
D03*
X1633Y3791D02*
D03*
X1733D02*
D03*
X1633Y3691D02*
D03*
X1733D02*
D03*
X2993Y2061D02*
D03*
Y2161D02*
D03*
Y2261D02*
D03*
Y2361D02*
D03*
Y2461D02*
D03*
Y2561D02*
D03*
Y2661D02*
D03*
Y2761D02*
D03*
Y2861D02*
D03*
Y2961D02*
D03*
Y3061D02*
D03*
Y3161D02*
D03*
Y3261D02*
D03*
Y3361D02*
D03*
Y3461D02*
D03*
Y3561D02*
D03*
Y3661D02*
D03*
Y3761D02*
D03*
Y3861D02*
D03*
Y3961D02*
D03*
X2393Y2061D02*
D03*
Y2161D02*
D03*
Y2261D02*
D03*
Y2361D02*
D03*
Y2461D02*
D03*
Y2561D02*
D03*
Y2661D02*
D03*
Y2761D02*
D03*
Y2861D02*
D03*
Y2961D02*
D03*
Y3061D02*
D03*
Y3161D02*
D03*
Y3261D02*
D03*
Y3361D02*
D03*
Y3461D02*
D03*
Y3561D02*
D03*
Y3661D02*
D03*
Y3861D02*
D03*
X3299Y3348D02*
D03*
Y3248D02*
D03*
X3614Y3344D02*
D03*
Y3244D02*
D03*
X3920Y1240D02*
D03*
D21*
X10946Y4546D02*
D03*
X9371Y4564D02*
D03*
X6456Y2656D02*
D03*
X6556D02*
D03*
X10946Y4446D02*
D03*
X6476Y2136D02*
D03*
X6576D02*
D03*
X6465Y4015D02*
D03*
X6565D02*
D03*
X10937Y3551D02*
D03*
Y3451D02*
D03*
X6485Y3435D02*
D03*
X6585D02*
D03*
X6407Y6249D02*
D03*
X6507D02*
D03*
X9371Y4464D02*
D03*
X6407Y5669D02*
D03*
X6507D02*
D03*
X6448Y5048D02*
D03*
X6548D02*
D03*
X9362Y3569D02*
D03*
Y3469D02*
D03*
X6468Y4488D02*
D03*
X6568D02*
D03*
X2505Y1372D02*
D03*
X2405D02*
D03*
X3505Y5406D02*
D03*
X3605D02*
D03*
D22*
X4969Y1720D02*
D03*
Y6540D02*
D03*
D23*
X5711Y1720D02*
D03*
Y6540D02*
D03*
D24*
X6401Y2319D02*
D03*
X6445Y3706D02*
D03*
X6367Y5920D02*
D03*
X6388Y4698D02*
D03*
X3147Y1432D02*
D03*
X1820Y1430D02*
D03*
X2093Y3021D02*
D03*
X3473Y2901D02*
D03*
X2820Y5350D02*
D03*
X4185Y5337D02*
D03*
X10070Y2680D02*
D03*
D25*
X6401Y2378D02*
D03*
X6445Y3765D02*
D03*
X6367Y5979D02*
D03*
X6388Y4757D02*
D03*
X3147Y1373D02*
D03*
X1820Y1370D02*
D03*
X2093Y3081D02*
D03*
X3473Y2841D02*
D03*
X2820Y5410D02*
D03*
X4185Y5396D02*
D03*
X9740Y3190D02*
D03*
D26*
X6356Y2656D02*
D03*
X6376Y2136D02*
D03*
X6365Y4015D02*
D03*
X6385Y3435D02*
D03*
X6307Y6249D02*
D03*
Y5669D02*
D03*
X6348Y5048D02*
D03*
X6368Y4488D02*
D03*
X2605Y1372D02*
D03*
X3405Y5406D02*
D03*
D27*
X5822Y2337D02*
D03*
Y2437D02*
D03*
Y2537D02*
D03*
X5522Y2337D02*
D03*
Y2437D02*
D03*
X5796Y3426D02*
D03*
Y3526D02*
D03*
Y3626D02*
D03*
X5496Y3426D02*
D03*
Y3526D02*
D03*
X5810Y5780D02*
D03*
Y5880D02*
D03*
Y5980D02*
D03*
X5510Y5780D02*
D03*
Y5880D02*
D03*
X5802Y4592D02*
D03*
Y4692D02*
D03*
Y4792D02*
D03*
X5502Y4592D02*
D03*
Y4692D02*
D03*
X8920Y6080D02*
D03*
X10240Y2400D02*
D03*
D28*
X5522Y2537D02*
D03*
X5496Y3626D02*
D03*
X5510Y5980D02*
D03*
X5502Y4792D02*
D03*
D29*
X10946Y4646D02*
D03*
X10937Y3651D02*
D03*
X9371Y4664D02*
D03*
X9362Y3669D02*
D03*
D30*
X5222Y2464D02*
D03*
X5203Y3557D02*
D03*
X5230Y5913D02*
D03*
X5233Y4690D02*
D03*
X3473Y2121D02*
D03*
D31*
X5222Y2414D02*
D03*
Y2364D02*
D03*
X5203Y3507D02*
D03*
Y3457D02*
D03*
X5230Y5863D02*
D03*
Y5813D02*
D03*
X5233Y4640D02*
D03*
Y4590D02*
D03*
X3473Y2071D02*
D03*
Y2021D02*
D03*
D32*
X1633Y3891D02*
D03*
D33*
X2220Y2861D02*
D03*
D34*
Y2650D02*
D03*
D35*
X2393Y3961D02*
D03*
X4020Y1240D02*
D03*
X9420Y6080D02*
D03*
X9940Y2400D02*
D03*
D36*
X1761Y3468D02*
D03*
X1584D02*
D03*
Y3114D02*
D03*
D37*
X1761D02*
D03*
D38*
X10343Y6100D02*
D03*
X10737D02*
D03*
X11843D02*
D03*
X12237D02*
D03*
D39*
X9740Y2830D02*
D03*
D40*
X10230Y2680D02*
D03*
M02*
