%FSLAX23Y23*%
%MOIN*%
G70*
G01*
G75*
G04 Layer_Color=128*
%ADD10R,0.071X0.063*%
%ADD11R,0.063X0.071*%
%ADD12C,0.050*%
%ADD13C,0.020*%
%ADD14C,0.010*%
%ADD15C,0.100*%
%ADD16C,0.200*%
%ADD17R,0.120X0.083*%
%ADD18R,0.120X0.087*%
%ADD19R,0.120X0.090*%
%ADD20C,0.059*%
%ADD21C,0.063*%
%ADD22C,0.110*%
%ADD23R,0.110X0.110*%
%ADD24C,0.049*%
%ADD25R,0.049X0.049*%
%ADD26R,0.063X0.063*%
%ADD27C,0.059*%
%ADD28R,0.059X0.059*%
%ADD29R,0.063X0.063*%
%ADD30O,0.079X0.039*%
%ADD31O,0.079X0.039*%
%ADD32R,0.059X0.059*%
%ADD33C,0.051*%
%ADD34C,0.051*%
%ADD35R,0.059X0.059*%
%ADD36C,0.065*%
%ADD37R,0.065X0.065*%
%ADD38C,0.196*%
%ADD39C,0.049*%
%ADD40R,0.049X0.049*%
%ADD41C,0.050*%
D10*
X6508Y4783D02*
D03*
Y4672D02*
D03*
X6467Y6004D02*
D03*
Y5894D02*
D03*
X6541Y2403D02*
D03*
Y2293D02*
D03*
X6545Y3790D02*
D03*
Y3680D02*
D03*
X5222Y2659D02*
D03*
Y2549D02*
D03*
X5240Y4889D02*
D03*
Y4779D02*
D03*
X5052Y3512D02*
D03*
Y3402D02*
D03*
X5110Y5858D02*
D03*
Y5748D02*
D03*
X5092Y2421D02*
D03*
Y2311D02*
D03*
X5083Y4641D02*
D03*
Y4530D02*
D03*
X3705Y5401D02*
D03*
Y5291D02*
D03*
X3305Y5401D02*
D03*
Y5291D02*
D03*
X3473Y2326D02*
D03*
Y2216D02*
D03*
X2720Y1365D02*
D03*
Y1475D02*
D03*
X2280Y1365D02*
D03*
Y1475D02*
D03*
X1573Y3366D02*
D03*
Y3256D02*
D03*
X2273Y3086D02*
D03*
Y2976D02*
D03*
X3293Y2816D02*
D03*
Y2926D02*
D03*
X3299Y3153D02*
D03*
Y3043D02*
D03*
X3614Y3149D02*
D03*
Y3039D02*
D03*
D11*
X5720Y6237D02*
D03*
X5831D02*
D03*
Y6137D02*
D03*
X5720D02*
D03*
X5891Y2656D02*
D03*
X5781D02*
D03*
Y2776D02*
D03*
X5891D02*
D03*
X5827Y4984D02*
D03*
X5717D02*
D03*
Y5084D02*
D03*
X5827D02*
D03*
X5832Y3763D02*
D03*
X5722D02*
D03*
Y3863D02*
D03*
X5832D02*
D03*
X5085Y3660D02*
D03*
X5195D02*
D03*
X5095Y6015D02*
D03*
X5205D02*
D03*
X3138Y2051D02*
D03*
X3248D02*
D03*
X1908Y3331D02*
D03*
X1798D02*
D03*
X2108Y2716D02*
D03*
X1998D02*
D03*
X2108Y2856D02*
D03*
X1998D02*
D03*
M02*
